{
	"patcher" : 	{
		"fileversion" : 1,
		"rect" : [ 0.0, 44.0, 416.0, 418.0 ],
		"bglocked" : 0,
		"defrect" : [ 0.0, 44.0, 416.0, 418.0 ],
		"openrect" : [ 0.0, 0.0, 0.0, 0.0 ],
		"openinpresentation" : 0,
		"default_fontsize" : 12.0,
		"default_fontface" : 0,
		"default_fontname" : "Arial",
		"gridonopen" : 0,
		"gridsize" : [ 15.0, 15.0 ],
		"gridsnaponopen" : 0,
		"toolbarvisible" : 1,
		"boxanimatetime" : 200,
		"imprint" : 0,
		"enablehscroll" : 1,
		"enablevscroll" : 1,
		"devicewidth" : 0.0,
		"boxes" : [ 			{
				"box" : 				{
					"maxclass" : "comment",
					"text" : "select",
					"fontsize" : 12.0,
					"numoutlets" : 0,
					"patching_rect" : [ 5.0, 237.0, 42.0, 20.0 ],
					"id" : "obj-4",
					"fontname" : "Arial",
					"numinlets" : 1
				}

			}
, 			{
				"box" : 				{
					"maxclass" : "comment",
					"text" : "display",
					"fontsize" : 12.0,
					"numoutlets" : 0,
					"patching_rect" : [ 301.0, 332.0, 48.0, 20.0 ],
					"id" : "obj-3",
					"fontname" : "Arial",
					"numinlets" : 1
				}

			}
, 			{
				"box" : 				{
					"maxclass" : "newobj",
					"text" : "key-bang 27",
					"fontsize" : 12.0,
					"hidden" : 1,
					"numoutlets" : 1,
					"outlettype" : [ "bang" ],
					"patching_rect" : [ 192.0, 304.0, 77.0, 20.0 ],
					"id" : "obj-1",
					"fontname" : "Arial",
					"numinlets" : 1
				}

			}
, 			{
				"box" : 				{
					"maxclass" : "newobj",
					"text" : "key-bang 32",
					"fontsize" : 12.0,
					"numoutlets" : 1,
					"outlettype" : [ "bang" ],
					"patching_rect" : [ 48.0, 205.0, 77.0, 20.0 ],
					"id" : "obj-5",
					"fontname" : "Arial",
					"numinlets" : 1
				}

			}
, 			{
				"box" : 				{
					"maxclass" : "comment",
					"text" : "clear display",
					"fontsize" : 12.0,
					"numoutlets" : 0,
					"patching_rect" : [ 113.0, 304.0, 77.0, 20.0 ],
					"id" : "obj-6",
					"fontname" : "Arial",
					"numinlets" : 1
				}

			}
, 			{
				"box" : 				{
					"maxclass" : "message",
					"text" : "a b c",
					"fontsize" : 12.0,
					"numoutlets" : 1,
					"outlettype" : [ "" ],
					"patching_rect" : [ 117.0, 237.0, 37.0, 18.0 ],
					"id" : "obj-7",
					"fontname" : "Arial",
					"numinlets" : 2
				}

			}
, 			{
				"box" : 				{
					"maxclass" : "message",
					"text" : "1 2 3 4 5",
					"fontsize" : 12.0,
					"numoutlets" : 1,
					"outlettype" : [ "" ],
					"patching_rect" : [ 160.0, 237.0, 57.0, 18.0 ],
					"id" : "obj-14",
					"fontname" : "Arial",
					"numinlets" : 2
				}

			}
, 			{
				"box" : 				{
					"maxclass" : "message",
					"text" : "7 Shadock 3.14 x",
					"fontsize" : 12.0,
					"numoutlets" : 1,
					"outlettype" : [ "" ],
					"patching_rect" : [ 221.0, 237.0, 103.0, 18.0 ],
					"id" : "obj-17",
					"fontname" : "Arial",
					"numinlets" : 2
				}

			}
, 			{
				"box" : 				{
					"maxclass" : "button",
					"numoutlets" : 1,
					"outlettype" : [ "bang" ],
					"patching_rect" : [ 94.0, 303.0, 17.0, 17.0 ],
					"id" : "obj-18",
					"numinlets" : 1
				}

			}
, 			{
				"box" : 				{
					"maxclass" : "message",
					"fontsize" : 12.0,
					"numoutlets" : 1,
					"outlettype" : [ "" ],
					"patching_rect" : [ 48.0, 332.0, 250.0, 18.0 ],
					"id" : "obj-19",
					"fontname" : "Arial",
					"numinlets" : 2
				}

			}
, 			{
				"box" : 				{
					"maxclass" : "newobj",
					"text" : "collect",
					"fontsize" : 12.0,
					"numoutlets" : 1,
					"outlettype" : [ "" ],
					"patching_rect" : [ 48.0, 302.0, 45.0, 20.0 ],
					"id" : "obj-20",
					"fontname" : "Arial",
					"numinlets" : 2
				}

			}
, 			{
				"box" : 				{
					"maxclass" : "newobj",
					"text" : "permutate",
					"fontsize" : 12.0,
					"numoutlets" : 1,
					"outlettype" : [ "" ],
					"patching_rect" : [ 48.0, 271.0, 88.0, 20.0 ],
					"id" : "obj-21",
					"fontname" : "Arial",
					"numinlets" : 2
				}

			}
, 			{
				"box" : 				{
					"maxclass" : "button",
					"numoutlets" : 1,
					"outlettype" : [ "bang" ],
					"patching_rect" : [ 48.0, 237.0, 22.0, 22.0 ],
					"id" : "obj-22",
					"numinlets" : 1
				}

			}
, 			{
				"box" : 				{
					"maxclass" : "newobj",
					"text" : "p another_example",
					"fontsize" : 12.0,
					"numoutlets" : 0,
					"patching_rect" : [ 268.0, 171.0, 113.0, 20.0 ],
					"id" : "obj-28",
					"fontname" : "Arial",
					"color" : [ 1.0, 0.741176, 0.611765, 1.0 ],
					"numinlets" : 0,
					"patcher" : 					{
						"fileversion" : 1,
						"rect" : [ 42.0, 108.0, 429.0, 262.0 ],
						"bglocked" : 0,
						"defrect" : [ 42.0, 108.0, 429.0, 262.0 ],
						"openrect" : [ 0.0, 0.0, 0.0, 0.0 ],
						"openinpresentation" : 0,
						"default_fontsize" : 12.0,
						"default_fontface" : 0,
						"default_fontname" : "Arial",
						"gridonopen" : 0,
						"gridsize" : [ 15.0, 15.0 ],
						"gridsnaponopen" : 0,
						"toolbarvisible" : 1,
						"boxanimatetime" : 200,
						"imprint" : 0,
						"enablehscroll" : 1,
						"enablevscroll" : 1,
						"devicewidth" : 0.0,
						"boxes" : [ 							{
								"box" : 								{
									"maxclass" : "button",
									"numoutlets" : 1,
									"outlettype" : [ "bang" ],
									"patching_rect" : [ 37.0, 94.0, 20.0, 20.0 ],
									"id" : "obj-22",
									"numinlets" : 1
								}

							}
, 							{
								"box" : 								{
									"maxclass" : "newobj",
									"text" : "lb 100",
									"fontsize" : 12.0,
									"hidden" : 1,
									"numoutlets" : 1,
									"outlettype" : [ "" ],
									"patching_rect" : [ 60.0, 10.0, 43.0, 20.0 ],
									"id" : "obj-20",
									"fontname" : "Arial",
									"numinlets" : 0
								}

							}
, 							{
								"box" : 								{
									"maxclass" : "message",
									"text" : "5",
									"fontsize" : 12.0,
									"hidden" : 1,
									"numoutlets" : 1,
									"outlettype" : [ "" ],
									"patching_rect" : [ 149.0, 14.0, 32.5, 18.0 ],
									"id" : "obj-1",
									"fontname" : "Arial",
									"numinlets" : 2
								}

							}
, 							{
								"box" : 								{
									"maxclass" : "newobj",
									"text" : "permutate",
									"fontsize" : 12.0,
									"numoutlets" : 1,
									"outlettype" : [ "" ],
									"patching_rect" : [ 37.0, 120.0, 65.0, 20.0 ],
									"id" : "obj-2",
									"fontname" : "Arial",
									"numinlets" : 2
								}

							}
, 							{
								"box" : 								{
									"maxclass" : "number",
									"fontface" : 1,
									"fontsize" : 12.0,
									"numoutlets" : 2,
									"outlettype" : [ "int", "bang" ],
									"triscale" : 0.9,
									"patching_rect" : [ 37.0, 147.0, 27.0, 20.0 ],
									"id" : "obj-3",
									"fontname" : "Arial",
									"cantchange" : 1,
									"htextcolor" : [ 0.870588, 0.870588, 0.870588, 1.0 ],
									"bgcolor" : [ 0.866667, 0.866667, 0.866667, 1.0 ],
									"numinlets" : 1,
									"triangle" : 0
								}

							}
, 							{
								"box" : 								{
									"maxclass" : "message",
									"text" : "60 61 62 63 64",
									"fontsize" : 12.0,
									"numoutlets" : 1,
									"outlettype" : [ "" ],
									"patching_rect" : [ 149.0, 147.0, 91.0, 18.0 ],
									"id" : "obj-4",
									"fontname" : "Arial",
									"numinlets" : 2
								}

							}
, 							{
								"box" : 								{
									"maxclass" : "newobj",
									"text" : "show",
									"fontsize" : 12.0,
									"numoutlets" : 1,
									"outlettype" : [ "" ],
									"patching_rect" : [ 149.0, 120.0, 39.0, 20.0 ],
									"id" : "obj-5",
									"fontname" : "Arial",
									"numinlets" : 2
								}

							}
, 							{
								"box" : 								{
									"maxclass" : "newobj",
									"text" : "make-scale 60",
									"fontsize" : 12.0,
									"numoutlets" : 1,
									"outlettype" : [ "" ],
									"patching_rect" : [ 149.0, 68.0, 89.0, 20.0 ],
									"id" : "obj-6",
									"fontname" : "Arial",
									"numinlets" : 2
								}

							}
, 							{
								"box" : 								{
									"maxclass" : "newobj",
									"text" : "metro 100",
									"fontsize" : 12.0,
									"numoutlets" : 1,
									"outlettype" : [ "bang" ],
									"patching_rect" : [ 37.0, 68.0, 78.0, 20.0 ],
									"id" : "obj-7",
									"fontname" : "Arial",
									"numinlets" : 2
								}

							}
, 							{
								"box" : 								{
									"maxclass" : "toggle",
									"numoutlets" : 1,
									"outlettype" : [ "int" ],
									"patching_rect" : [ 37.0, 37.0, 21.0, 21.0 ],
									"id" : "obj-9",
									"numinlets" : 1
								}

							}
, 							{
								"box" : 								{
									"maxclass" : "number",
									"fontsize" : 12.0,
									"maximum" : 11,
									"numoutlets" : 2,
									"outlettype" : [ "int", "bang" ],
									"triscale" : 0.9,
									"patching_rect" : [ 149.0, 37.0, 34.0, 20.0 ],
									"id" : "obj-10",
									"fontname" : "Arial",
									"htextcolor" : [ 0.870588, 0.870588, 0.870588, 1.0 ],
									"mouseup" : 1,
									"bgcolor" : [ 0.866667, 0.866667, 0.866667, 1.0 ],
									"minimum" : 2,
									"numinlets" : 1
								}

							}
, 							{
								"box" : 								{
									"maxclass" : "comment",
									"text" : "number of notes",
									"fontsize" : 12.0,
									"numoutlets" : 0,
									"patching_rect" : [ 185.0, 37.0, 97.0, 20.0 ],
									"id" : "obj-11",
									"fontname" : "Arial",
									"numinlets" : 1
								}

							}
, 							{
								"box" : 								{
									"maxclass" : "comment",
									"text" : "chosen note",
									"fontsize" : 12.0,
									"numoutlets" : 0,
									"patching_rect" : [ 66.0, 147.0, 76.0, 20.0 ],
									"id" : "obj-12",
									"fontname" : "Arial",
									"numinlets" : 1
								}

							}
, 							{
								"box" : 								{
									"maxclass" : "comment",
									"text" : "note supply",
									"fontsize" : 12.0,
									"numoutlets" : 0,
									"patching_rect" : [ 242.0, 147.0, 72.0, 20.0 ],
									"id" : "obj-13",
									"fontname" : "Arial",
									"numinlets" : 1
								}

							}
, 							{
								"box" : 								{
									"maxclass" : "newobj",
									"text" : "loadbang",
									"fontsize" : 12.0,
									"hidden" : 1,
									"numoutlets" : 1,
									"outlettype" : [ "bang" ],
									"patching_rect" : [ 190.0, 9.0, 60.0, 20.0 ],
									"id" : "obj-14",
									"fontname" : "Arial",
									"numinlets" : 1
								}

							}
, 							{
								"box" : 								{
									"maxclass" : "newobj",
									"text" : "p create-note-supply",
									"fontsize" : 12.0,
									"numoutlets" : 1,
									"outlettype" : [ "" ],
									"patching_rect" : [ 269.0, 68.0, 120.0, 20.0 ],
									"id" : "obj-15",
									"fontname" : "Arial",
									"numinlets" : 0,
									"patcher" : 									{
										"fileversion" : 1,
										"rect" : [ 476.0, 44.0, 247.0, 178.0 ],
										"bglocked" : 0,
										"defrect" : [ 476.0, 44.0, 247.0, 178.0 ],
										"openrect" : [ 0.0, 0.0, 0.0, 0.0 ],
										"openinpresentation" : 0,
										"default_fontsize" : 12.0,
										"default_fontface" : 0,
										"default_fontname" : "Arial",
										"gridonopen" : 0,
										"gridsize" : [ 15.0, 15.0 ],
										"gridsnaponopen" : 0,
										"toolbarvisible" : 1,
										"boxanimatetime" : 200,
										"imprint" : 0,
										"enablehscroll" : 1,
										"enablevscroll" : 1,
										"devicewidth" : 0.0,
										"boxes" : [ 											{
												"box" : 												{
													"maxclass" : "outlet",
													"numoutlets" : 0,
													"patching_rect" : [ 64.0, 148.0, 15.0, 15.0 ],
													"id" : "obj-1",
													"numinlets" : 1,
													"comment" : ""
												}

											}
, 											{
												"box" : 												{
													"maxclass" : "comment",
													"text" : "clear",
													"fontsize" : 12.0,
													"numoutlets" : 0,
													"patching_rect" : [ 130.0, 87.0, 37.0, 20.0 ],
													"id" : "obj-2",
													"fontname" : "Arial",
													"numinlets" : 1
												}

											}
, 											{
												"box" : 												{
													"maxclass" : "comment",
													"text" : "send",
													"fontsize" : 12.0,
													"numoutlets" : 0,
													"patching_rect" : [ 3.0, 87.0, 37.0, 20.0 ],
													"id" : "obj-3",
													"fontname" : "Arial",
													"numinlets" : 1
												}

											}
, 											{
												"box" : 												{
													"maxclass" : "button",
													"numoutlets" : 1,
													"outlettype" : [ "bang" ],
													"patching_rect" : [ 41.0, 87.0, 20.0, 20.0 ],
													"id" : "obj-4",
													"numinlets" : 1
												}

											}
, 											{
												"box" : 												{
													"maxclass" : "button",
													"numoutlets" : 1,
													"outlettype" : [ "bang" ],
													"patching_rect" : [ 111.0, 87.0, 20.0, 20.0 ],
													"id" : "obj-5",
													"numinlets" : 1
												}

											}
, 											{
												"box" : 												{
													"maxclass" : "message",
													"text" : "59 65 63",
													"fontsize" : 12.0,
													"numoutlets" : 1,
													"outlettype" : [ "" ],
													"patching_rect" : [ 64.0, 115.0, 100.0, 18.0 ],
													"id" : "obj-6",
													"fontname" : "Arial",
													"numinlets" : 2
												}

											}
, 											{
												"box" : 												{
													"maxclass" : "newobj",
													"text" : "collect",
													"fontsize" : 12.0,
													"numoutlets" : 1,
													"outlettype" : [ "" ],
													"patching_rect" : [ 64.0, 87.0, 45.0, 20.0 ],
													"id" : "obj-7",
													"fontname" : "Arial",
													"numinlets" : 2
												}

											}
, 											{
												"box" : 												{
													"maxclass" : "kslider",
													"numoutlets" : 2,
													"presentation_rect" : [ 0.0, 0.0, 98.0, 35.0 ],
													"hkeycolor" : [ 0.501961, 0.501961, 0.501961, 1.0 ],
													"outlettype" : [ "int", "int" ],
													"patching_rect" : [ 64.0, 28.0, 154.0, 49.0 ],
													"id" : "obj-8",
													"offset" : 48,
													"range" : 24,
													"numinlets" : 2
												}

											}
 ],
										"lines" : [ 											{
												"patchline" : 												{
													"source" : [ "obj-5", 0 ],
													"destination" : [ "obj-7", 1 ],
													"hidden" : 1,
													"midpoints" : [  ]
												}

											}
, 											{
												"patchline" : 												{
													"source" : [ "obj-6", 0 ],
													"destination" : [ "obj-1", 0 ],
													"hidden" : 0,
													"midpoints" : [  ]
												}

											}
, 											{
												"patchline" : 												{
													"source" : [ "obj-4", 0 ],
													"destination" : [ "obj-6", 0 ],
													"hidden" : 0,
													"midpoints" : [ 50.5, 109.0, 73.5, 109.0 ]
												}

											}
, 											{
												"patchline" : 												{
													"source" : [ "obj-7", 0 ],
													"destination" : [ "obj-6", 0 ],
													"hidden" : 0,
													"midpoints" : [  ]
												}

											}
, 											{
												"patchline" : 												{
													"source" : [ "obj-8", 0 ],
													"destination" : [ "obj-7", 0 ],
													"hidden" : 0,
													"midpoints" : [  ]
												}

											}
 ]
									}
,
									"saved_object_attributes" : 									{
										"fontface" : 0,
										"fontsize" : 12.0,
										"default_fontface" : 0,
										"default_fontname" : "Arial",
										"fontname" : "Arial",
										"default_fontsize" : 12.0,
										"globalpatchername" : ""
									}

								}

							}
, 							{
								"box" : 								{
									"maxclass" : "number",
									"fontsize" : 12.0,
									"numoutlets" : 2,
									"outlettype" : [ "int", "bang" ],
									"triscale" : 0.9,
									"patching_rect" : [ 96.0, 37.0, 39.0, 20.0 ],
									"id" : "obj-16",
									"fontname" : "Arial",
									"htextcolor" : [ 0.870588, 0.870588, 0.870588, 1.0 ],
									"bgcolor" : [ 0.866667, 0.866667, 0.866667, 1.0 ],
									"minimum" : 50,
									"numinlets" : 1
								}

							}
, 							{
								"box" : 								{
									"maxclass" : "button",
									"numoutlets" : 1,
									"outlettype" : [ "bang" ],
									"patching_rect" : [ 190.0, 120.0, 20.0, 20.0 ],
									"id" : "obj-17",
									"numinlets" : 1
								}

							}
, 							{
								"box" : 								{
									"maxclass" : "comment",
									"text" : "The permutation mechanism prevents direct repetitions of notes!",
									"fontsize" : 12.0,
									"numoutlets" : 0,
									"patching_rect" : [ 16.0, 219.0, 353.0, 20.0 ],
									"id" : "obj-18",
									"fontname" : "Arial",
									"numinlets" : 1
								}

							}
, 							{
								"box" : 								{
									"maxclass" : "newobj",
									"text" : "play 127 200",
									"fontsize" : 12.0,
									"numoutlets" : 0,
									"patching_rect" : [ 37.0, 179.0, 79.0, 20.0 ],
									"id" : "obj-19",
									"fontname" : "Arial",
									"numinlets" : 5
								}

							}
 ],
						"lines" : [ 							{
								"patchline" : 								{
									"source" : [ "obj-17", 0 ],
									"destination" : [ "obj-5", 1 ],
									"hidden" : 1,
									"midpoints" : [  ]
								}

							}
, 							{
								"patchline" : 								{
									"source" : [ "obj-5", 0 ],
									"destination" : [ "obj-4", 0 ],
									"hidden" : 0,
									"midpoints" : [  ]
								}

							}
, 							{
								"patchline" : 								{
									"source" : [ "obj-6", 0 ],
									"destination" : [ "obj-5", 0 ],
									"hidden" : 0,
									"midpoints" : [  ]
								}

							}
, 							{
								"patchline" : 								{
									"source" : [ "obj-15", 0 ],
									"destination" : [ "obj-5", 0 ],
									"hidden" : 1,
									"midpoints" : [  ]
								}

							}
, 							{
								"patchline" : 								{
									"source" : [ "obj-10", 0 ],
									"destination" : [ "obj-6", 0 ],
									"hidden" : 0,
									"midpoints" : [  ]
								}

							}
, 							{
								"patchline" : 								{
									"source" : [ "obj-1", 0 ],
									"destination" : [ "obj-10", 0 ],
									"hidden" : 1,
									"midpoints" : [  ]
								}

							}
, 							{
								"patchline" : 								{
									"source" : [ "obj-14", 0 ],
									"destination" : [ "obj-1", 0 ],
									"hidden" : 1,
									"midpoints" : [  ]
								}

							}
, 							{
								"patchline" : 								{
									"source" : [ "obj-15", 0 ],
									"destination" : [ "obj-2", 1 ],
									"hidden" : 0,
									"midpoints" : [ 278.5, 91.0, 92.5, 91.0 ]
								}

							}
, 							{
								"patchline" : 								{
									"source" : [ "obj-6", 0 ],
									"destination" : [ "obj-2", 1 ],
									"hidden" : 0,
									"midpoints" : [ 158.5, 91.0, 92.5, 91.0 ]
								}

							}
, 							{
								"patchline" : 								{
									"source" : [ "obj-16", 0 ],
									"destination" : [ "obj-7", 1 ],
									"hidden" : 0,
									"midpoints" : [  ]
								}

							}
, 							{
								"patchline" : 								{
									"source" : [ "obj-3", 0 ],
									"destination" : [ "obj-19", 0 ],
									"hidden" : 0,
									"midpoints" : [  ]
								}

							}
, 							{
								"patchline" : 								{
									"source" : [ "obj-2", 0 ],
									"destination" : [ "obj-3", 0 ],
									"hidden" : 0,
									"midpoints" : [  ]
								}

							}
, 							{
								"patchline" : 								{
									"source" : [ "obj-9", 0 ],
									"destination" : [ "obj-7", 0 ],
									"hidden" : 0,
									"midpoints" : [  ]
								}

							}
, 							{
								"patchline" : 								{
									"source" : [ "obj-20", 0 ],
									"destination" : [ "obj-16", 0 ],
									"hidden" : 1,
									"midpoints" : [  ]
								}

							}
, 							{
								"patchline" : 								{
									"source" : [ "obj-7", 0 ],
									"destination" : [ "obj-22", 0 ],
									"hidden" : 0,
									"midpoints" : [  ]
								}

							}
, 							{
								"patchline" : 								{
									"source" : [ "obj-22", 0 ],
									"destination" : [ "obj-2", 0 ],
									"hidden" : 0,
									"midpoints" : [  ]
								}

							}
 ]
					}
,
					"saved_object_attributes" : 					{
						"fontface" : 0,
						"fontsize" : 12.0,
						"default_fontface" : 0,
						"default_fontname" : "Arial",
						"fontname" : "Arial",
						"default_fontsize" : 12.0,
						"globalpatchername" : ""
					}

				}

			}
, 			{
				"box" : 				{
					"maxclass" : "comment",
					"text" : "supply",
					"fontsize" : 12.0,
					"numoutlets" : 0,
					"patching_rect" : [ 326.0, 237.0, 45.0, 20.0 ],
					"id" : "obj-31",
					"fontname" : "Arial",
					"numinlets" : 1
				}

			}
, 			{
				"box" : 				{
					"maxclass" : "newobj",
					"text" : "loadbang",
					"fontsize" : 12.0,
					"hidden" : 1,
					"numoutlets" : 1,
					"outlettype" : [ "bang" ],
					"patching_rect" : [ 135.0, 205.0, 60.0, 20.0 ],
					"id" : "obj-32",
					"fontname" : "Arial",
					"numinlets" : 1
				}

			}
, 			{
				"box" : 				{
					"maxclass" : "message",
					"text" : "choose",
					"fontface" : 1,
					"fontsize" : 10.0,
					"numoutlets" : 1,
					"outlettype" : [ "" ],
					"patching_rect" : [ 139.0, 138.0, 47.0, 16.0 ],
					"id" : "obj-12",
					"fontname" : "Arial",
					"textcolor" : [ 1.0, 1.0, 1.0, 1.0 ],
					"bgcolor" : [ 0.360784, 0.360784, 0.360784, 1.0 ],
					"numinlets" : 2
				}

			}
, 			{
				"box" : 				{
					"maxclass" : "message",
					"text" : "rota",
					"fontface" : 1,
					"fontsize" : 10.0,
					"numoutlets" : 1,
					"outlettype" : [ "" ],
					"patching_rect" : [ 102.0, 138.0, 30.0, 16.0 ],
					"id" : "obj-26",
					"fontname" : "Arial",
					"textcolor" : [ 1.0, 1.0, 1.0, 1.0 ],
					"bgcolor" : [ 0.360784, 0.360784, 0.360784, 1.0 ],
					"numinlets" : 2
				}

			}
, 			{
				"box" : 				{
					"maxclass" : "message",
					"text" : "sel-princ",
					"fontface" : 1,
					"fontsize" : 10.0,
					"numoutlets" : 1,
					"outlettype" : [ "" ],
					"patching_rect" : [ 271.0, 116.0, 53.0, 16.0 ],
					"id" : "obj-27",
					"fontname" : "Arial",
					"textcolor" : [ 1.0, 1.0, 1.0, 1.0 ],
					"bgcolor" : [ 0.360784, 0.360784, 0.360784, 1.0 ],
					"numinlets" : 2
				}

			}
, 			{
				"box" : 				{
					"maxclass" : "message",
					"text" : "ratio",
					"fontface" : 1,
					"fontsize" : 10.0,
					"numoutlets" : 1,
					"outlettype" : [ "" ],
					"patching_rect" : [ 62.0, 138.0, 33.0, 16.0 ],
					"id" : "obj-11",
					"fontname" : "Arial",
					"textcolor" : [ 1.0, 1.0, 1.0, 1.0 ],
					"bgcolor" : [ 0.360784, 0.360784, 0.360784, 1.0 ],
					"numinlets" : 2
				}

			}
, 			{
				"box" : 				{
					"maxclass" : "message",
					"text" : "sneak",
					"fontface" : 1,
					"fontsize" : 10.0,
					"numoutlets" : 1,
					"outlettype" : [ "" ],
					"patching_rect" : [ 335.0, 116.0, 40.0, 16.0 ],
					"id" : "obj-10",
					"fontname" : "Arial",
					"textcolor" : [ 1.0, 1.0, 1.0, 1.0 ],
					"bgcolor" : [ 0.360784, 0.360784, 0.360784, 1.0 ],
					"numinlets" : 2
				}

			}
, 			{
				"box" : 				{
					"maxclass" : "message",
					"text" : "sequence",
					"fontface" : 1,
					"fontsize" : 10.0,
					"numoutlets" : 1,
					"outlettype" : [ "" ],
					"patching_rect" : [ 148.0, 116.0, 58.0, 16.0 ],
					"id" : "obj-30",
					"fontname" : "Arial",
					"textcolor" : [ 1.0, 1.0, 1.0, 1.0 ],
					"bgcolor" : [ 0.360784, 0.360784, 0.360784, 1.0 ],
					"numinlets" : 2
				}

			}
, 			{
				"box" : 				{
					"maxclass" : "message",
					"text" : "groups",
					"fontface" : 1,
					"fontsize" : 10.0,
					"numoutlets" : 1,
					"outlettype" : [ "" ],
					"patching_rect" : [ 217.0, 116.0, 45.0, 16.0 ],
					"id" : "obj-29",
					"fontname" : "Arial",
					"textcolor" : [ 1.0, 1.0, 1.0, 1.0 ],
					"bgcolor" : [ 0.360784, 0.360784, 0.360784, 1.0 ],
					"numinlets" : 2
				}

			}
, 			{
				"box" : 				{
					"maxclass" : "message",
					"text" : "series",
					"fontface" : 1,
					"fontsize" : 10.0,
					"numoutlets" : 1,
					"outlettype" : [ "" ],
					"patching_rect" : [ 100.0, 116.0, 40.0, 16.0 ],
					"id" : "obj-13",
					"fontname" : "Arial",
					"textcolor" : [ 1.0, 1.0, 1.0, 1.0 ],
					"bgcolor" : [ 0.360784, 0.360784, 0.360784, 1.0 ],
					"numinlets" : 2
				}

			}
, 			{
				"box" : 				{
					"maxclass" : "message",
					"text" : "alea",
					"fontface" : 1,
					"fontsize" : 10.0,
					"numoutlets" : 1,
					"outlettype" : [ "" ],
					"patching_rect" : [ 63.0, 116.0, 31.0, 16.0 ],
					"id" : "obj-24",
					"fontname" : "Arial",
					"textcolor" : [ 1.0, 1.0, 1.0, 1.0 ],
					"bgcolor" : [ 0.360784, 0.360784, 0.360784, 1.0 ],
					"numinlets" : 2
				}

			}
, 			{
				"box" : 				{
					"maxclass" : "comment",
					"text" : "see also:",
					"fontsize" : 12.0,
					"numoutlets" : 0,
					"patching_rect" : [ 0.0, 115.0, 61.0, 20.0 ],
					"id" : "obj-8",
					"fontname" : "Arial",
					"numinlets" : 1
				}

			}
, 			{
				"box" : 				{
					"maxclass" : "comment",
					"text" : "1993-98 by Karlheinz Essl, vs. 1.1",
					"fontsize" : 10.0,
					"numoutlets" : 0,
					"patching_rect" : [ 0.0, 389.0, 173.0, 18.0 ],
					"id" : "obj-9",
					"fontname" : "Arial",
					"numinlets" : 1
				}

			}
, 			{
				"box" : 				{
					"maxclass" : "comment",
					"varname" : "autohelp_top_digest",
					"text" : "Random selection",
					"fontsize" : 12.754705,
					"numoutlets" : 0,
					"frgb" : [ 0.93, 0.93, 0.97, 1.0 ],
					"patching_rect" : [ 0.0, 24.0, 113.0, 21.0 ],
					"id" : "obj-25",
					"fontname" : "Arial",
					"textcolor" : [ 0.93, 0.93, 0.97, 1.0 ],
					"numinlets" : 1
				}

			}
, 			{
				"box" : 				{
					"maxclass" : "message",
					"text" : "RTC-Overview",
					"fontface" : 1,
					"fontsize" : 12.0,
					"numoutlets" : 1,
					"outlettype" : [ "" ],
					"patching_rect" : [ 314.0, 27.0, 93.0, 18.0 ],
					"id" : "obj-23",
					"fontname" : "Arial",
					"textcolor" : [ 1.0, 1.0, 1.0, 1.0 ],
					"bgcolor" : [ 0.360784, 0.360784, 0.360784, 1.0 ],
					"numinlets" : 2
				}

			}
, 			{
				"box" : 				{
					"maxclass" : "message",
					"text" : "Chance",
					"fontface" : 1,
					"fontsize" : 12.0,
					"numoutlets" : 1,
					"outlettype" : [ "" ],
					"patching_rect" : [ 352.0, 4.0, 54.0, 18.0 ],
					"id" : "obj-38",
					"fontname" : "Arial",
					"textcolor" : [ 1.0, 1.0, 1.0, 1.0 ],
					"bgcolor" : [ 0.360784, 0.360784, 0.360784, 1.0 ],
					"numinlets" : 2
				}

			}
, 			{
				"box" : 				{
					"maxclass" : "newobj",
					"text" : "open-help",
					"fontsize" : 9.0,
					"hidden" : 1,
					"numoutlets" : 0,
					"patching_rect" : [ 280.0, 4.0, 52.0, 17.0 ],
					"id" : "obj-2",
					"fontname" : "Arial",
					"numinlets" : 1
				}

			}
, 			{
				"box" : 				{
					"maxclass" : "comment",
					"text" : "permutate",
					"fontface" : 3,
					"fontsize" : 14.0,
					"numoutlets" : 0,
					"frgb" : [ 1.0, 1.0, 1.0, 1.0 ],
					"patching_rect" : [ 0.0, 1.0, 78.0, 23.0 ],
					"id" : "obj-15",
					"fontname" : "Arial",
					"textcolor" : [ 1.0, 1.0, 1.0, 1.0 ],
					"numinlets" : 1
				}

			}
, 			{
				"box" : 				{
					"maxclass" : "comment",
					"text" : "A supply (any material list of int, float and symbols) in right inlet is permutated irregularily without immediate repetition of an element. Whenever a bang is sent to the left inlet, one element of the supply is sent to the outlet.",
					"linecount" : 4,
					"fontsize" : 12.0,
					"numoutlets" : 0,
					"patching_rect" : [ 0.0, 51.0, 413.0, 62.0 ],
					"id" : "obj-16",
					"fontname" : "Arial",
					"numinlets" : 1
				}

			}
, 			{
				"box" : 				{
					"maxclass" : "panel",
					"varname" : "autohelp_top_panel",
					"numoutlets" : 0,
					"mode" : 1,
					"grad1" : [ 0.0, 0.0, 0.0, 1.0 ],
					"grad2" : [ 0.85, 0.85, 0.85, 1.0 ],
					"patching_rect" : [ 0.0, 0.0, 416.0, 51.0 ],
					"id" : "obj-55",
					"background" : 1,
					"rounded" : 0,
					"numinlets" : 1
				}

			}
 ],
		"lines" : [ 			{
				"patchline" : 				{
					"source" : [ "obj-7", 0 ],
					"destination" : [ "obj-21", 1 ],
					"hidden" : 0,
					"midpoints" : [  ]
				}

			}
, 			{
				"patchline" : 				{
					"source" : [ "obj-14", 0 ],
					"destination" : [ "obj-21", 1 ],
					"hidden" : 0,
					"midpoints" : [ 169.5, 262.5, 126.5, 262.5 ]
				}

			}
, 			{
				"patchline" : 				{
					"source" : [ "obj-17", 0 ],
					"destination" : [ "obj-21", 1 ],
					"hidden" : 0,
					"midpoints" : [ 230.5, 262.5, 126.5, 262.5 ]
				}

			}
, 			{
				"patchline" : 				{
					"source" : [ "obj-32", 0 ],
					"destination" : [ "obj-7", 0 ],
					"hidden" : 1,
					"midpoints" : [  ]
				}

			}
, 			{
				"patchline" : 				{
					"source" : [ "obj-32", 0 ],
					"destination" : [ "obj-18", 0 ],
					"hidden" : 1,
					"midpoints" : [  ]
				}

			}
, 			{
				"patchline" : 				{
					"source" : [ "obj-18", 0 ],
					"destination" : [ "obj-20", 1 ],
					"hidden" : 1,
					"midpoints" : [  ]
				}

			}
, 			{
				"patchline" : 				{
					"source" : [ "obj-20", 0 ],
					"destination" : [ "obj-19", 0 ],
					"hidden" : 0,
					"midpoints" : [  ]
				}

			}
, 			{
				"patchline" : 				{
					"source" : [ "obj-21", 0 ],
					"destination" : [ "obj-20", 0 ],
					"hidden" : 0,
					"midpoints" : [  ]
				}

			}
, 			{
				"patchline" : 				{
					"source" : [ "obj-22", 0 ],
					"destination" : [ "obj-21", 0 ],
					"hidden" : 0,
					"midpoints" : [  ]
				}

			}
, 			{
				"patchline" : 				{
					"source" : [ "obj-5", 0 ],
					"destination" : [ "obj-22", 0 ],
					"hidden" : 0,
					"midpoints" : [  ]
				}

			}
, 			{
				"patchline" : 				{
					"source" : [ "obj-1", 0 ],
					"destination" : [ "obj-18", 0 ],
					"hidden" : 1,
					"midpoints" : [  ]
				}

			}
, 			{
				"patchline" : 				{
					"source" : [ "obj-38", 0 ],
					"destination" : [ "obj-2", 0 ],
					"hidden" : 1,
					"midpoints" : [  ]
				}

			}
, 			{
				"patchline" : 				{
					"source" : [ "obj-23", 0 ],
					"destination" : [ "obj-2", 0 ],
					"hidden" : 1,
					"midpoints" : [  ]
				}

			}
, 			{
				"patchline" : 				{
					"source" : [ "obj-24", 0 ],
					"destination" : [ "obj-2", 0 ],
					"hidden" : 1,
					"midpoints" : [  ]
				}

			}
, 			{
				"patchline" : 				{
					"source" : [ "obj-13", 0 ],
					"destination" : [ "obj-2", 0 ],
					"hidden" : 1,
					"midpoints" : [  ]
				}

			}
, 			{
				"patchline" : 				{
					"source" : [ "obj-29", 0 ],
					"destination" : [ "obj-2", 0 ],
					"hidden" : 1,
					"midpoints" : [  ]
				}

			}
, 			{
				"patchline" : 				{
					"source" : [ "obj-30", 0 ],
					"destination" : [ "obj-2", 0 ],
					"hidden" : 1,
					"midpoints" : [  ]
				}

			}
, 			{
				"patchline" : 				{
					"source" : [ "obj-10", 0 ],
					"destination" : [ "obj-2", 0 ],
					"hidden" : 1,
					"midpoints" : [  ]
				}

			}
, 			{
				"patchline" : 				{
					"source" : [ "obj-11", 0 ],
					"destination" : [ "obj-2", 0 ],
					"hidden" : 1,
					"midpoints" : [  ]
				}

			}
, 			{
				"patchline" : 				{
					"source" : [ "obj-27", 0 ],
					"destination" : [ "obj-2", 0 ],
					"hidden" : 1,
					"midpoints" : [  ]
				}

			}
, 			{
				"patchline" : 				{
					"source" : [ "obj-26", 0 ],
					"destination" : [ "obj-2", 0 ],
					"hidden" : 1,
					"midpoints" : [  ]
				}

			}
, 			{
				"patchline" : 				{
					"source" : [ "obj-12", 0 ],
					"destination" : [ "obj-2", 0 ],
					"hidden" : 1,
					"midpoints" : [  ]
				}

			}
 ]
	}

}
