{
	"patcher" : 	{
		"fileversion" : 1,
		"rect" : [ 0.0, 44.0, 416.0, 359.0 ],
		"bglocked" : 0,
		"defrect" : [ 0.0, 44.0, 416.0, 359.0 ],
		"openrect" : [ 0.0, 0.0, 0.0, 0.0 ],
		"openinpresentation" : 0,
		"default_fontsize" : 12.0,
		"default_fontface" : 0,
		"default_fontname" : "Arial",
		"gridonopen" : 0,
		"gridsize" : [ 15.0, 15.0 ],
		"gridsnaponopen" : 0,
		"toolbarvisible" : 1,
		"boxanimatetime" : 200,
		"imprint" : 0,
		"enablehscroll" : 1,
		"enablevscroll" : 1,
		"devicewidth" : 0.0,
		"boxes" : [ 			{
				"box" : 				{
					"maxclass" : "comment",
					"text" : "sends a bang when all numbers have been generated",
					"fontsize" : 12.0,
					"numoutlets" : 0,
					"patching_rect" : [ 111.0, 264.0, 297.0, 20.0 ],
					"id" : "obj-17",
					"fontname" : "Arial",
					"numinlets" : 1
				}

			}
, 			{
				"box" : 				{
					"maxclass" : "button",
					"numoutlets" : 1,
					"outlettype" : [ "bang" ],
					"patching_rect" : [ 92.0, 264.0, 20.0, 20.0 ],
					"id" : "obj-21",
					"numinlets" : 1
				}

			}
, 			{
				"box" : 				{
					"maxclass" : "newobj",
					"text" : "lb 4",
					"fontsize" : 12.0,
					"hidden" : 1,
					"numoutlets" : 1,
					"outlettype" : [ "" ],
					"patching_rect" : [ 121.0, 181.0, 30.0, 20.0 ],
					"id" : "obj-14",
					"fontname" : "Arial",
					"numinlets" : 0
				}

			}
, 			{
				"box" : 				{
					"maxclass" : "newobj",
					"text" : "key-bang 32",
					"fontsize" : 12.0,
					"hidden" : 1,
					"numoutlets" : 1,
					"outlettype" : [ "bang" ],
					"patching_rect" : [ 44.0, 181.0, 77.0, 20.0 ],
					"id" : "obj-12",
					"fontname" : "Arial",
					"numinlets" : 1
				}

			}
, 			{
				"box" : 				{
					"maxclass" : "message",
					"text" : "between-lin-urn",
					"fontface" : 1,
					"fontsize" : 10.0,
					"numoutlets" : 1,
					"outlettype" : [ "" ],
					"patching_rect" : [ 63.0, 160.0, 85.0, 16.0 ],
					"id" : "obj-27",
					"fontname" : "Arial",
					"textcolor" : [ 1.0, 1.0, 1.0, 1.0 ],
					"bgcolor" : [ 0.360784, 0.360784, 0.360784, 1.0 ],
					"numinlets" : 2
				}

			}
, 			{
				"box" : 				{
					"maxclass" : "message",
					"text" : "markov",
					"fontface" : 1,
					"fontsize" : 10.0,
					"numoutlets" : 1,
					"outlettype" : [ "" ],
					"patching_rect" : [ 275.0, 160.0, 46.0, 16.0 ],
					"id" : "obj-28",
					"fontname" : "Arial",
					"textcolor" : [ 1.0, 1.0, 1.0, 1.0 ],
					"bgcolor" : [ 0.360784, 0.360784, 0.360784, 1.0 ],
					"numinlets" : 2
				}

			}
, 			{
				"box" : 				{
					"maxclass" : "message",
					"text" : "between-log-urn",
					"fontface" : 1,
					"fontsize" : 10.0,
					"numoutlets" : 1,
					"outlettype" : [ "" ],
					"patching_rect" : [ 167.0, 160.0, 88.0, 16.0 ],
					"id" : "obj-31",
					"fontname" : "Arial",
					"textcolor" : [ 1.0, 1.0, 1.0, 1.0 ],
					"bgcolor" : [ 0.360784, 0.360784, 0.360784, 1.0 ],
					"numinlets" : 2
				}

			}
, 			{
				"box" : 				{
					"maxclass" : "message",
					"text" : "brownian",
					"fontface" : 1,
					"fontsize" : 10.0,
					"numoutlets" : 1,
					"outlettype" : [ "" ],
					"patching_rect" : [ 63.0, 138.0, 55.0, 16.0 ],
					"id" : "obj-4",
					"fontname" : "Arial",
					"textcolor" : [ 1.0, 1.0, 1.0, 1.0 ],
					"bgcolor" : [ 0.360784, 0.360784, 0.360784, 1.0 ],
					"numinlets" : 2
				}

			}
, 			{
				"box" : 				{
					"maxclass" : "message",
					"text" : "between-log",
					"fontface" : 1,
					"fontsize" : 10.0,
					"numoutlets" : 1,
					"outlettype" : [ "" ],
					"patching_rect" : [ 275.0, 138.0, 69.0, 16.0 ],
					"id" : "obj-5",
					"fontname" : "Arial",
					"textcolor" : [ 1.0, 1.0, 1.0, 1.0 ],
					"bgcolor" : [ 0.360784, 0.360784, 0.360784, 1.0 ],
					"numinlets" : 2
				}

			}
, 			{
				"box" : 				{
					"maxclass" : "message",
					"text" : "between-lin",
					"fontface" : 1,
					"fontsize" : 10.0,
					"numoutlets" : 1,
					"outlettype" : [ "" ],
					"patching_rect" : [ 194.0, 138.0, 66.0, 16.0 ],
					"id" : "obj-6",
					"fontname" : "Arial",
					"textcolor" : [ 1.0, 1.0, 1.0, 1.0 ],
					"bgcolor" : [ 0.360784, 0.360784, 0.360784, 1.0 ],
					"numinlets" : 2
				}

			}
, 			{
				"box" : 				{
					"maxclass" : "message",
					"text" : "between",
					"fontface" : 1,
					"fontsize" : 10.0,
					"numoutlets" : 1,
					"outlettype" : [ "" ],
					"patching_rect" : [ 131.0, 138.0, 51.0, 16.0 ],
					"id" : "obj-11",
					"fontname" : "Arial",
					"textcolor" : [ 1.0, 1.0, 1.0, 1.0 ],
					"bgcolor" : [ 0.360784, 0.360784, 0.360784, 1.0 ],
					"numinlets" : 2
				}

			}
, 			{
				"box" : 				{
					"maxclass" : "number",
					"fontface" : 1,
					"fontsize" : 12.0,
					"numoutlets" : 2,
					"outlettype" : [ "int", "bang" ],
					"triscale" : 0.9,
					"patching_rect" : [ 44.0, 290.0, 30.0, 20.0 ],
					"id" : "obj-7",
					"fontname" : "Arial",
					"cantchange" : 1,
					"htextcolor" : [ 0.870588, 0.870588, 0.870588, 1.0 ],
					"bgcolor" : [ 0.866667, 0.866667, 0.866667, 1.0 ],
					"numinlets" : 1,
					"triangle" : 0
				}

			}
, 			{
				"box" : 				{
					"maxclass" : "button",
					"numoutlets" : 1,
					"outlettype" : [ "bang" ],
					"patching_rect" : [ 44.0, 210.0, 20.0, 20.0 ],
					"id" : "obj-1",
					"numinlets" : 1
				}

			}
, 			{
				"box" : 				{
					"maxclass" : "newobj",
					"text" : "xrandom 4",
					"fontsize" : 12.0,
					"numoutlets" : 2,
					"outlettype" : [ "int", "bang" ],
					"patching_rect" : [ 44.0, 238.0, 67.0, 20.0 ],
					"id" : "obj-3",
					"fontname" : "Arial",
					"numinlets" : 2
				}

			}
, 			{
				"box" : 				{
					"maxclass" : "number",
					"fontsize" : 12.0,
					"numoutlets" : 2,
					"outlettype" : [ "int", "bang" ],
					"triscale" : 0.9,
					"patching_rect" : [ 92.0, 210.0, 32.0, 20.0 ],
					"id" : "obj-18",
					"fontname" : "Arial",
					"htextcolor" : [ 0.870588, 0.870588, 0.870588, 1.0 ],
					"bgcolor" : [ 0.866667, 0.866667, 0.866667, 1.0 ],
					"minimum" : 2,
					"numinlets" : 1
				}

			}
, 			{
				"box" : 				{
					"maxclass" : "comment",
					"text" : "maximum range of random numbers (must be larger than 1)",
					"linecount" : 2,
					"fontsize" : 12.0,
					"numoutlets" : 0,
					"patching_rect" : [ 127.0, 208.0, 208.0, 34.0 ],
					"id" : "obj-19",
					"fontname" : "Arial",
					"numinlets" : 1
				}

			}
, 			{
				"box" : 				{
					"maxclass" : "comment",
					"text" : "chosen number",
					"fontsize" : 12.0,
					"numoutlets" : 0,
					"patching_rect" : [ 75.0, 291.0, 93.0, 20.0 ],
					"id" : "obj-20",
					"fontname" : "Arial",
					"numinlets" : 1
				}

			}
, 			{
				"box" : 				{
					"maxclass" : "message",
					"text" : "sneak-random",
					"fontface" : 1,
					"fontsize" : 10.0,
					"numoutlets" : 1,
					"outlettype" : [ "" ],
					"patching_rect" : [ 280.0, 115.0, 79.0, 16.0 ],
					"id" : "obj-10",
					"fontname" : "Arial",
					"textcolor" : [ 1.0, 1.0, 1.0, 1.0 ],
					"bgcolor" : [ 0.360784, 0.360784, 0.360784, 1.0 ],
					"numinlets" : 2
				}

			}
, 			{
				"box" : 				{
					"maxclass" : "message",
					"text" : "periodic",
					"fontface" : 1,
					"fontsize" : 10.0,
					"numoutlets" : 1,
					"outlettype" : [ "" ],
					"patching_rect" : [ 218.0, 115.0, 49.0, 16.0 ],
					"id" : "obj-29",
					"fontname" : "Arial",
					"textcolor" : [ 1.0, 1.0, 1.0, 1.0 ],
					"bgcolor" : [ 0.360784, 0.360784, 0.360784, 1.0 ],
					"numinlets" : 2
				}

			}
, 			{
				"box" : 				{
					"maxclass" : "message",
					"text" : "random-norep",
					"fontface" : 1,
					"fontsize" : 10.0,
					"numoutlets" : 1,
					"outlettype" : [ "" ],
					"patching_rect" : [ 122.0, 115.0, 78.0, 16.0 ],
					"id" : "obj-13",
					"fontname" : "Arial",
					"textcolor" : [ 1.0, 1.0, 1.0, 1.0 ],
					"bgcolor" : [ 0.360784, 0.360784, 0.360784, 1.0 ],
					"numinlets" : 2
				}

			}
, 			{
				"box" : 				{
					"maxclass" : "message",
					"text" : "random",
					"fontface" : 1,
					"fontsize" : 10.0,
					"numoutlets" : 1,
					"outlettype" : [ "" ],
					"patching_rect" : [ 63.0, 115.0, 47.0, 16.0 ],
					"id" : "obj-24",
					"fontname" : "Arial",
					"textcolor" : [ 1.0, 1.0, 1.0, 1.0 ],
					"bgcolor" : [ 0.360784, 0.360784, 0.360784, 1.0 ],
					"numinlets" : 2
				}

			}
, 			{
				"box" : 				{
					"maxclass" : "comment",
					"text" : "see also:",
					"fontsize" : 12.0,
					"numoutlets" : 0,
					"patching_rect" : [ 0.0, 114.0, 61.0, 20.0 ],
					"id" : "obj-8",
					"fontname" : "Arial",
					"numinlets" : 1
				}

			}
, 			{
				"box" : 				{
					"maxclass" : "comment",
					"text" : "1994-98 by Karlheinz Essl, vs. 2.2",
					"fontsize" : 10.0,
					"numoutlets" : 0,
					"patching_rect" : [ 0.0, 324.0, 162.0, 18.0 ],
					"id" : "obj-9",
					"fontname" : "Arial",
					"numinlets" : 1
				}

			}
, 			{
				"box" : 				{
					"maxclass" : "comment",
					"varname" : "autohelp_top_digest",
					"text" : "Random generator",
					"fontsize" : 12.754705,
					"numoutlets" : 0,
					"frgb" : [ 0.93, 0.93, 0.97, 1.0 ],
					"patching_rect" : [ 0.0, 24.0, 117.0, 21.0 ],
					"id" : "obj-25",
					"fontname" : "Arial",
					"textcolor" : [ 0.93, 0.93, 0.97, 1.0 ],
					"numinlets" : 1
				}

			}
, 			{
				"box" : 				{
					"maxclass" : "message",
					"text" : "RTC-Overview",
					"fontface" : 1,
					"fontsize" : 12.0,
					"numoutlets" : 1,
					"outlettype" : [ "" ],
					"patching_rect" : [ 314.0, 27.0, 93.0, 18.0 ],
					"id" : "obj-23",
					"fontname" : "Arial",
					"textcolor" : [ 1.0, 1.0, 1.0, 1.0 ],
					"bgcolor" : [ 0.360784, 0.360784, 0.360784, 1.0 ],
					"numinlets" : 2
				}

			}
, 			{
				"box" : 				{
					"maxclass" : "message",
					"text" : "Chance",
					"fontface" : 1,
					"fontsize" : 12.0,
					"numoutlets" : 1,
					"outlettype" : [ "" ],
					"patching_rect" : [ 352.0, 4.0, 54.0, 18.0 ],
					"id" : "obj-38",
					"fontname" : "Arial",
					"textcolor" : [ 1.0, 1.0, 1.0, 1.0 ],
					"bgcolor" : [ 0.360784, 0.360784, 0.360784, 1.0 ],
					"numinlets" : 2
				}

			}
, 			{
				"box" : 				{
					"maxclass" : "newobj",
					"text" : "open-help",
					"fontsize" : 9.0,
					"hidden" : 1,
					"numoutlets" : 0,
					"patching_rect" : [ 280.0, 4.0, 52.0, 17.0 ],
					"id" : "obj-2",
					"fontname" : "Arial",
					"numinlets" : 1
				}

			}
, 			{
				"box" : 				{
					"maxclass" : "comment",
					"text" : "xrandom",
					"fontface" : 3,
					"fontsize" : 14.0,
					"numoutlets" : 0,
					"frgb" : [ 1.0, 1.0, 1.0, 1.0 ],
					"patching_rect" : [ 0.0, 1.0, 70.0, 23.0 ],
					"id" : "obj-15",
					"fontname" : "Arial",
					"textcolor" : [ 1.0, 1.0, 1.0, 1.0 ],
					"numinlets" : 1
				}

			}
, 			{
				"box" : 				{
					"maxclass" : "comment",
					"text" : "Outputs random numbers <int> that are never repeated unless all numbers have been generated (series-principle). The random numbers are produced within an interval between 0 and a given maximum (minus one) which can be the argument of the function or being sent to the right inlet.",
					"linecount" : 4,
					"fontsize" : 12.0,
					"numoutlets" : 0,
					"patching_rect" : [ 0.0, 51.0, 414.0, 62.0 ],
					"id" : "obj-16",
					"fontname" : "Arial",
					"numinlets" : 1
				}

			}
, 			{
				"box" : 				{
					"maxclass" : "panel",
					"varname" : "autohelp_top_panel",
					"numoutlets" : 0,
					"mode" : 1,
					"grad1" : [ 0.0, 0.0, 0.0, 1.0 ],
					"grad2" : [ 0.85, 0.85, 0.85, 1.0 ],
					"patching_rect" : [ 0.0, 0.0, 416.0, 51.0 ],
					"id" : "obj-55",
					"background" : 1,
					"rounded" : 0,
					"numinlets" : 1
				}

			}
 ],
		"lines" : [ 			{
				"patchline" : 				{
					"source" : [ "obj-3", 1 ],
					"destination" : [ "obj-21", 0 ],
					"hidden" : 0,
					"midpoints" : [  ]
				}

			}
, 			{
				"patchline" : 				{
					"source" : [ "obj-28", 0 ],
					"destination" : [ "obj-2", 0 ],
					"hidden" : 1,
					"midpoints" : [  ]
				}

			}
, 			{
				"patchline" : 				{
					"source" : [ "obj-31", 0 ],
					"destination" : [ "obj-2", 0 ],
					"hidden" : 1,
					"midpoints" : [  ]
				}

			}
, 			{
				"patchline" : 				{
					"source" : [ "obj-27", 0 ],
					"destination" : [ "obj-2", 0 ],
					"hidden" : 1,
					"midpoints" : [  ]
				}

			}
, 			{
				"patchline" : 				{
					"source" : [ "obj-5", 0 ],
					"destination" : [ "obj-2", 0 ],
					"hidden" : 1,
					"midpoints" : [  ]
				}

			}
, 			{
				"patchline" : 				{
					"source" : [ "obj-6", 0 ],
					"destination" : [ "obj-2", 0 ],
					"hidden" : 1,
					"midpoints" : [  ]
				}

			}
, 			{
				"patchline" : 				{
					"source" : [ "obj-11", 0 ],
					"destination" : [ "obj-2", 0 ],
					"hidden" : 1,
					"midpoints" : [  ]
				}

			}
, 			{
				"patchline" : 				{
					"source" : [ "obj-4", 0 ],
					"destination" : [ "obj-2", 0 ],
					"hidden" : 1,
					"midpoints" : [  ]
				}

			}
, 			{
				"patchline" : 				{
					"source" : [ "obj-38", 0 ],
					"destination" : [ "obj-2", 0 ],
					"hidden" : 1,
					"midpoints" : [  ]
				}

			}
, 			{
				"patchline" : 				{
					"source" : [ "obj-23", 0 ],
					"destination" : [ "obj-2", 0 ],
					"hidden" : 1,
					"midpoints" : [  ]
				}

			}
, 			{
				"patchline" : 				{
					"source" : [ "obj-24", 0 ],
					"destination" : [ "obj-2", 0 ],
					"hidden" : 1,
					"midpoints" : [  ]
				}

			}
, 			{
				"patchline" : 				{
					"source" : [ "obj-13", 0 ],
					"destination" : [ "obj-2", 0 ],
					"hidden" : 1,
					"midpoints" : [  ]
				}

			}
, 			{
				"patchline" : 				{
					"source" : [ "obj-29", 0 ],
					"destination" : [ "obj-2", 0 ],
					"hidden" : 1,
					"midpoints" : [  ]
				}

			}
, 			{
				"patchline" : 				{
					"source" : [ "obj-10", 0 ],
					"destination" : [ "obj-2", 0 ],
					"hidden" : 1,
					"midpoints" : [  ]
				}

			}
, 			{
				"patchline" : 				{
					"source" : [ "obj-1", 0 ],
					"destination" : [ "obj-3", 0 ],
					"hidden" : 0,
					"midpoints" : [  ]
				}

			}
, 			{
				"patchline" : 				{
					"source" : [ "obj-3", 0 ],
					"destination" : [ "obj-7", 0 ],
					"hidden" : 0,
					"midpoints" : [  ]
				}

			}
, 			{
				"patchline" : 				{
					"source" : [ "obj-18", 0 ],
					"destination" : [ "obj-3", 1 ],
					"hidden" : 0,
					"midpoints" : [  ]
				}

			}
, 			{
				"patchline" : 				{
					"source" : [ "obj-12", 0 ],
					"destination" : [ "obj-1", 0 ],
					"hidden" : 1,
					"midpoints" : [  ]
				}

			}
, 			{
				"patchline" : 				{
					"source" : [ "obj-14", 0 ],
					"destination" : [ "obj-18", 0 ],
					"hidden" : 1,
					"midpoints" : [  ]
				}

			}
 ]
	}

}
