{
	"patcher" : 	{
		"fileversion" : 1,
		"rect" : [ 0.0, 44.0, 357.0, 372.0 ],
		"bglocked" : 0,
		"defrect" : [ 0.0, 44.0, 357.0, 372.0 ],
		"openrect" : [ 0.0, 0.0, 0.0, 0.0 ],
		"openinpresentation" : 0,
		"default_fontsize" : 12.0,
		"default_fontface" : 0,
		"default_fontname" : "Arial",
		"gridonopen" : 0,
		"gridsize" : [ 15.0, 15.0 ],
		"gridsnaponopen" : 0,
		"toolbarvisible" : 1,
		"boxanimatetime" : 200,
		"imprint" : 0,
		"enablehscroll" : 1,
		"enablevscroll" : 1,
		"devicewidth" : 0.0,
		"boxes" : [ 			{
				"box" : 				{
					"maxclass" : "newobj",
					"text" : "prepend set",
					"numinlets" : 1,
					"id" : "obj-1",
					"fontname" : "Geneva",
					"patching_rect" : [ 144.0, 237.0, 63.0, 19.0 ],
					"numoutlets" : 1,
					"outlettype" : [ "" ],
					"fontsize" : 9.0
				}

			}
, 			{
				"box" : 				{
					"maxclass" : "message",
					"numinlets" : 2,
					"id" : "obj-2",
					"fontname" : "Geneva",
					"patching_rect" : [ 144.0, 270.0, 101.0, 17.0 ],
					"numoutlets" : 1,
					"outlettype" : [ "" ],
					"fontsize" : 9.0
				}

			}
, 			{
				"box" : 				{
					"maxclass" : "flonum",
					"numinlets" : 1,
					"htextcolor" : [ 0.870588, 0.870588, 0.870588, 1.0 ],
					"id" : "obj-3",
					"fontname" : "Geneva",
					"patching_rect" : [ 73.0, 175.0, 35.0, 19.0 ],
					"numoutlets" : 2,
					"triscale" : 0.9,
					"outlettype" : [ "float", "bang" ],
					"fontsize" : 9.0,
					"mouseup" : 1,
					"bgcolor" : [ 0.866667, 0.866667, 0.866667, 1.0 ]
				}

			}
, 			{
				"box" : 				{
					"maxclass" : "number",
					"numinlets" : 1,
					"htextcolor" : [ 0.870588, 0.870588, 0.870588, 1.0 ],
					"id" : "obj-4",
					"fontname" : "Geneva",
					"patching_rect" : [ 73.0, 154.0, 35.0, 19.0 ],
					"numoutlets" : 2,
					"triscale" : 0.9,
					"outlettype" : [ "int", "bang" ],
					"fontsize" : 9.0,
					"mouseup" : 1,
					"bgcolor" : [ 0.866667, 0.866667, 0.866667, 1.0 ]
				}

			}
, 			{
				"box" : 				{
					"maxclass" : "message",
					"text" : "1.1 2.2 3.3",
					"numinlets" : 2,
					"id" : "obj-5",
					"fontname" : "Geneva",
					"patching_rect" : [ 73.0, 130.0, 59.0, 17.0 ],
					"numoutlets" : 1,
					"outlettype" : [ "" ],
					"fontsize" : 9.0
				}

			}
, 			{
				"box" : 				{
					"maxclass" : "button",
					"numinlets" : 1,
					"id" : "obj-6",
					"patching_rect" : [ 73.0, 197.0, 15.0, 15.0 ],
					"numoutlets" : 1,
					"outlettype" : [ "bang" ]
				}

			}
, 			{
				"box" : 				{
					"maxclass" : "message",
					"text" : "clear",
					"numinlets" : 2,
					"id" : "obj-7",
					"fontname" : "Geneva",
					"patching_rect" : [ 72.0, 223.0, 31.0, 17.0 ],
					"numoutlets" : 1,
					"outlettype" : [ "" ],
					"fontsize" : 9.0
				}

			}
, 			{
				"box" : 				{
					"maxclass" : "newobj",
					"text" : "Lrem",
					"numinlets" : 2,
					"id" : "obj-8",
					"fontname" : "Geneva",
					"patching_rect" : [ 144.0, 209.0, 43.0, 19.0 ],
					"numoutlets" : 1,
					"outlettype" : [ "" ],
					"fontsize" : 9.0
				}

			}
, 			{
				"box" : 				{
					"maxclass" : "flonum",
					"numinlets" : 1,
					"htextcolor" : [ 0.870588, 0.870588, 0.870588, 1.0 ],
					"id" : "obj-9",
					"fontname" : "Geneva",
					"patching_rect" : [ 182.0, 176.0, 35.0, 19.0 ],
					"numoutlets" : 2,
					"triscale" : 0.9,
					"outlettype" : [ "float", "bang" ],
					"fontsize" : 9.0,
					"mouseup" : 1,
					"bgcolor" : [ 0.866667, 0.866667, 0.866667, 1.0 ]
				}

			}
, 			{
				"box" : 				{
					"maxclass" : "number",
					"numinlets" : 1,
					"htextcolor" : [ 0.870588, 0.870588, 0.870588, 1.0 ],
					"id" : "obj-10",
					"fontname" : "Geneva",
					"patching_rect" : [ 182.0, 155.0, 35.0, 19.0 ],
					"numoutlets" : 2,
					"triscale" : 0.9,
					"outlettype" : [ "int", "bang" ],
					"fontsize" : 9.0,
					"mouseup" : 1,
					"bgcolor" : [ 0.866667, 0.866667, 0.866667, 1.0 ]
				}

			}
, 			{
				"box" : 				{
					"maxclass" : "message",
					"text" : "2 3 4 5 6",
					"numinlets" : 2,
					"id" : "obj-11",
					"fontname" : "Geneva",
					"patching_rect" : [ 182.0, 131.0, 50.0, 17.0 ],
					"numoutlets" : 1,
					"outlettype" : [ "" ],
					"fontsize" : 9.0
				}

			}
, 			{
				"box" : 				{
					"maxclass" : "message",
					"text" : "1 2 3 4",
					"numinlets" : 2,
					"id" : "obj-12",
					"fontname" : "Geneva",
					"patching_rect" : [ 182.0, 109.0, 41.0, 17.0 ],
					"numoutlets" : 1,
					"outlettype" : [ "" ],
					"fontsize" : 9.0
				}

			}
, 			{
				"box" : 				{
					"maxclass" : "comment",
					"text" : "Bang repeats output.",
					"numinlets" : 1,
					"id" : "obj-13",
					"fontname" : "Geneva",
					"patching_rect" : [ 13.0, 249.0, 103.0, 19.0 ],
					"numoutlets" : 0,
					"fontsize" : 9.0
				}

			}
, 			{
				"box" : 				{
					"maxclass" : "comment",
					"text" : "clear sets stored list to return 0s.",
					"linecount" : 2,
					"numinlets" : 1,
					"id" : "obj-14",
					"fontname" : "Geneva",
					"patching_rect" : [ 10.0, 270.0, 100.0, 31.0 ],
					"numoutlets" : 0,
					"fontsize" : 9.0
				}

			}
, 			{
				"box" : 				{
					"maxclass" : "comment",
					"text" : "Output is always int",
					"linecount" : 2,
					"numinlets" : 1,
					"id" : "obj-15",
					"fontname" : "Geneva",
					"patching_rect" : [ 249.0, 264.0, 71.0, 31.0 ],
					"numoutlets" : 0,
					"fontsize" : 9.0
				}

			}
, 			{
				"box" : 				{
					"maxclass" : "comment",
					"text" : "Lrem",
					"numinlets" : 1,
					"id" : "obj-16",
					"fontname" : "Geneva",
					"patching_rect" : [ 13.0, 6.0, 58.0, 33.0 ],
					"numoutlets" : 0,
					"fontsize" : 20.0
				}

			}
, 			{
				"box" : 				{
					"maxclass" : "comment",
					"text" : "List in right inlet is stored. Int or Float in right replaces all members of stored list. 0s in right will always return 0.",
					"linecount" : 6,
					"numinlets" : 1,
					"id" : "obj-17",
					"fontname" : "Geneva",
					"patching_rect" : [ 182.0, 33.0, 100.0, 79.0 ],
					"numoutlets" : 0,
					"fontsize" : 9.0
				}

			}
, 			{
				"box" : 				{
					"maxclass" : "message",
					"text" : "11 22 33 44",
					"numinlets" : 2,
					"id" : "obj-18",
					"fontname" : "Geneva",
					"patching_rect" : [ 72.0, 107.0, 81.0, 17.0 ],
					"numoutlets" : 1,
					"outlettype" : [ "" ],
					"fontsize" : 9.0
				}

			}
, 			{
				"box" : 				{
					"maxclass" : "comment",
					"text" : "Peter Elsea 1995",
					"numinlets" : 1,
					"id" : "obj-19",
					"fontname" : "Geneva",
					"patching_rect" : [ 4.0, 315.0, 100.0, 19.0 ],
					"numoutlets" : 0,
					"fontsize" : 9.0
				}

			}
, 			{
				"box" : 				{
					"maxclass" : "comment",
					"text" : "List or constant in left inlet is divided by stored list or constant and list of remainders is output",
					"linecount" : 5,
					"numinlets" : 1,
					"id" : "obj-20",
					"fontname" : "Geneva",
					"patching_rect" : [ 13.0, 45.0, 122.0, 73.0 ],
					"numoutlets" : 0,
					"fontsize" : 10.0
				}

			}
, 			{
				"box" : 				{
					"maxclass" : "comment",
					"text" : "University of California, Santa Cruz",
					"numinlets" : 1,
					"id" : "obj-21",
					"fontname" : "Geneva",
					"patching_rect" : [ 169.0, 314.0, 171.0, 19.0 ],
					"numoutlets" : 0,
					"fontsize" : 9.0
				}

			}
 ],
		"lines" : [ 			{
				"patchline" : 				{
					"source" : [ "obj-12", 0 ],
					"destination" : [ "obj-8", 1 ],
					"hidden" : 0,
					"midpoints" : [ 191.5, 127.0, 177.5, 127.0 ]
				}

			}
, 			{
				"patchline" : 				{
					"source" : [ "obj-9", 0 ],
					"destination" : [ "obj-8", 1 ],
					"hidden" : 0,
					"midpoints" : [ 191.5, 196.0, 177.5, 196.0 ]
				}

			}
, 			{
				"patchline" : 				{
					"source" : [ "obj-11", 0 ],
					"destination" : [ "obj-8", 1 ],
					"hidden" : 0,
					"midpoints" : [ 191.5, 150.0, 177.5, 150.0 ]
				}

			}
, 			{
				"patchline" : 				{
					"source" : [ "obj-10", 0 ],
					"destination" : [ "obj-8", 1 ],
					"hidden" : 0,
					"midpoints" : [ 191.5, 172.0, 177.5, 172.0 ]
				}

			}
, 			{
				"patchline" : 				{
					"source" : [ "obj-1", 0 ],
					"destination" : [ "obj-2", 0 ],
					"hidden" : 0,
					"midpoints" : [  ]
				}

			}
, 			{
				"patchline" : 				{
					"source" : [ "obj-8", 0 ],
					"destination" : [ "obj-1", 0 ],
					"hidden" : 0,
					"midpoints" : [  ]
				}

			}
, 			{
				"patchline" : 				{
					"source" : [ "obj-3", 0 ],
					"destination" : [ "obj-8", 0 ],
					"hidden" : 0,
					"midpoints" : [ 82.5, 193.0, 153.5, 193.0 ]
				}

			}
, 			{
				"patchline" : 				{
					"source" : [ "obj-18", 0 ],
					"destination" : [ "obj-8", 0 ],
					"hidden" : 0,
					"midpoints" : [ 81.5, 125.0, 153.5, 125.0 ]
				}

			}
, 			{
				"patchline" : 				{
					"source" : [ "obj-4", 0 ],
					"destination" : [ "obj-8", 0 ],
					"hidden" : 0,
					"midpoints" : [ 82.5, 171.0, 153.5, 171.0 ]
				}

			}
, 			{
				"patchline" : 				{
					"source" : [ "obj-6", 0 ],
					"destination" : [ "obj-8", 0 ],
					"hidden" : 0,
					"midpoints" : [ 82.0, 216.0, 129.0, 216.0, 129.0, 202.0, 153.5, 202.0 ]
				}

			}
, 			{
				"patchline" : 				{
					"source" : [ "obj-5", 0 ],
					"destination" : [ "obj-8", 0 ],
					"hidden" : 0,
					"midpoints" : [ 82.5, 149.0, 153.5, 149.0 ]
				}

			}
, 			{
				"patchline" : 				{
					"source" : [ "obj-7", 0 ],
					"destination" : [ "obj-8", 0 ],
					"hidden" : 0,
					"midpoints" : [ 81.5, 245.0, 136.0, 245.0, 136.0, 207.0, 153.5, 207.0 ]
				}

			}
 ]
	}

}
