{
	"patcher" : 	{
		"fileversion" : 1,
		"rect" : [ -1.0, 44.0, 422.0, 356.0 ],
		"bglocked" : 0,
		"defrect" : [ -1.0, 44.0, 422.0, 356.0 ],
		"openrect" : [ 0.0, 0.0, 0.0, 0.0 ],
		"openinpresentation" : 0,
		"default_fontsize" : 12.0,
		"default_fontface" : 0,
		"default_fontname" : "Arial",
		"gridonopen" : 0,
		"gridsize" : [ 15.0, 15.0 ],
		"gridsnaponopen" : 0,
		"toolbarvisible" : 1,
		"boxanimatetime" : 200,
		"imprint" : 0,
		"enablehscroll" : 1,
		"enablevscroll" : 1,
		"devicewidth" : 0.0,
		"boxes" : [ 			{
				"box" : 				{
					"maxclass" : "newobj",
					"text" : "Lsub",
					"numinlets" : 2,
					"id" : "obj-1",
					"fontname" : "Geneva",
					"patching_rect" : [ 180.0, 151.0, 32.5, 19.0 ],
					"numoutlets" : 1,
					"outlettype" : [ "" ],
					"fontsize" : 9.0
				}

			}
, 			{
				"box" : 				{
					"maxclass" : "message",
					"text" : "1 2 3 4 5 6",
					"numinlets" : 2,
					"id" : "obj-2",
					"fontname" : "Geneva",
					"patching_rect" : [ 98.0, 51.0, 59.0, 17.0 ],
					"numoutlets" : 1,
					"outlettype" : [ "" ],
					"fontsize" : 9.0
				}

			}
, 			{
				"box" : 				{
					"maxclass" : "message",
					"text" : "1.1 2.2 3.3 4 5 6",
					"numinlets" : 2,
					"id" : "obj-3",
					"fontname" : "Geneva",
					"patching_rect" : [ 97.0, 78.0, 86.0, 17.0 ],
					"numoutlets" : 1,
					"outlettype" : [ "" ],
					"fontsize" : 9.0
				}

			}
, 			{
				"box" : 				{
					"maxclass" : "number",
					"numinlets" : 1,
					"htextcolor" : [ 0.870588, 0.870588, 0.870588, 1.0 ],
					"id" : "obj-4",
					"fontname" : "Geneva",
					"patching_rect" : [ 97.0, 104.0, 35.0, 19.0 ],
					"numoutlets" : 2,
					"triscale" : 0.9,
					"outlettype" : [ "int", "bang" ],
					"fontsize" : 9.0,
					"mouseup" : 1,
					"bgcolor" : [ 0.866667, 0.866667, 0.866667, 1.0 ]
				}

			}
, 			{
				"box" : 				{
					"maxclass" : "comment",
					"text" : "Stored list or constant is subtracted from list or constant in left inlet.",
					"linecount" : 5,
					"numinlets" : 1,
					"id" : "obj-5",
					"fontname" : "Geneva",
					"patching_rect" : [ 2.0, 48.0, 81.0, 67.0 ],
					"numoutlets" : 0,
					"fontsize" : 9.0
				}

			}
, 			{
				"box" : 				{
					"maxclass" : "comment",
					"text" : "Bang recalculates output. clear sets stored list to a single 0.",
					"linecount" : 4,
					"numinlets" : 1,
					"id" : "obj-6",
					"fontname" : "Geneva",
					"patching_rect" : [ 11.0, 154.0, 100.0, 55.0 ],
					"numoutlets" : 0,
					"fontsize" : 9.0
				}

			}
, 			{
				"box" : 				{
					"maxclass" : "comment",
					"text" : "Lsub",
					"numinlets" : 1,
					"id" : "obj-7",
					"fontname" : "Geneva",
					"patching_rect" : [ 4.0, 4.0, 64.0, 33.0 ],
					"numoutlets" : 0,
					"fontsize" : 20.0
				}

			}
, 			{
				"box" : 				{
					"maxclass" : "message",
					"numinlets" : 2,
					"id" : "obj-8",
					"fontname" : "Geneva",
					"patching_rect" : [ 180.0, 213.0, 109.0, 17.0 ],
					"numoutlets" : 1,
					"outlettype" : [ "" ],
					"fontsize" : 9.0
				}

			}
, 			{
				"box" : 				{
					"maxclass" : "newobj",
					"text" : "prepend set",
					"numinlets" : 1,
					"id" : "obj-9",
					"fontname" : "Geneva",
					"patching_rect" : [ 180.0, 181.0, 63.0, 19.0 ],
					"numoutlets" : 1,
					"outlettype" : [ "" ],
					"fontsize" : 9.0
				}

			}
, 			{
				"box" : 				{
					"maxclass" : "message",
					"text" : "1 2 3 4 5 6",
					"numinlets" : 2,
					"id" : "obj-10",
					"fontname" : "Geneva",
					"patching_rect" : [ 204.0, 52.0, 59.0, 17.0 ],
					"numoutlets" : 1,
					"outlettype" : [ "" ],
					"fontsize" : 9.0
				}

			}
, 			{
				"box" : 				{
					"maxclass" : "message",
					"text" : "1.1 2.2 3.3 4 5 6",
					"numinlets" : 2,
					"id" : "obj-11",
					"fontname" : "Geneva",
					"patching_rect" : [ 210.0, 77.0, 86.0, 17.0 ],
					"numoutlets" : 1,
					"outlettype" : [ "" ],
					"fontsize" : 9.0
				}

			}
, 			{
				"box" : 				{
					"maxclass" : "number",
					"numinlets" : 1,
					"htextcolor" : [ 0.870588, 0.870588, 0.870588, 1.0 ],
					"id" : "obj-12",
					"fontname" : "Geneva",
					"patching_rect" : [ 223.0, 104.0, 35.0, 19.0 ],
					"numoutlets" : 2,
					"triscale" : 0.9,
					"outlettype" : [ "int", "bang" ],
					"fontsize" : 9.0,
					"mouseup" : 1,
					"bgcolor" : [ 0.866667, 0.866667, 0.866667, 1.0 ]
				}

			}
, 			{
				"box" : 				{
					"maxclass" : "flonum",
					"numinlets" : 1,
					"htextcolor" : [ 0.870588, 0.870588, 0.870588, 1.0 ],
					"id" : "obj-13",
					"fontname" : "Geneva",
					"patching_rect" : [ 244.0, 125.0, 35.0, 19.0 ],
					"numoutlets" : 2,
					"triscale" : 0.9,
					"outlettype" : [ "float", "bang" ],
					"fontsize" : 9.0,
					"mouseup" : 1,
					"bgcolor" : [ 0.866667, 0.866667, 0.866667, 1.0 ]
				}

			}
, 			{
				"box" : 				{
					"maxclass" : "flonum",
					"numinlets" : 1,
					"htextcolor" : [ 0.870588, 0.870588, 0.870588, 1.0 ],
					"id" : "obj-14",
					"fontname" : "Geneva",
					"patching_rect" : [ 122.0, 125.0, 35.0, 19.0 ],
					"numoutlets" : 2,
					"triscale" : 0.9,
					"outlettype" : [ "float", "bang" ],
					"fontsize" : 9.0,
					"mouseup" : 1,
					"bgcolor" : [ 0.866667, 0.866667, 0.866667, 1.0 ]
				}

			}
, 			{
				"box" : 				{
					"maxclass" : "message",
					"text" : "clear",
					"numinlets" : 2,
					"id" : "obj-15",
					"fontname" : "Geneva",
					"patching_rect" : [ 79.0, 125.0, 31.0, 17.0 ],
					"numoutlets" : 1,
					"outlettype" : [ "" ],
					"fontsize" : 9.0
				}

			}
, 			{
				"box" : 				{
					"maxclass" : "button",
					"numinlets" : 1,
					"id" : "obj-16",
					"patching_rect" : [ 49.0, 125.0, 15.0, 15.0 ],
					"numoutlets" : 1,
					"outlettype" : [ "bang" ]
				}

			}
, 			{
				"box" : 				{
					"maxclass" : "comment",
					"text" : "List in right is stored. Int or float in right replaces all members of stored list",
					"linecount" : 6,
					"numinlets" : 1,
					"id" : "obj-17",
					"fontname" : "Geneva",
					"patching_rect" : [ 300.0, 51.0, 71.0, 79.0 ],
					"numoutlets" : 0,
					"fontsize" : 9.0
				}

			}
, 			{
				"box" : 				{
					"maxclass" : "comment",
					"text" : "Length of output follows length of left input.",
					"numinlets" : 1,
					"id" : "obj-18",
					"fontname" : "Geneva",
					"patching_rect" : [ 130.0, 238.0, 206.0, 19.0 ],
					"numoutlets" : 0,
					"fontsize" : 9.0
				}

			}
, 			{
				"box" : 				{
					"maxclass" : "comment",
					"text" : "Output types are float if either member is float.",
					"numinlets" : 1,
					"id" : "obj-19",
					"fontname" : "Geneva",
					"patching_rect" : [ 130.0, 257.0, 224.0, 19.0 ],
					"numoutlets" : 0,
					"fontsize" : 9.0
				}

			}
, 			{
				"box" : 				{
					"maxclass" : "comment",
					"text" : "Peter Elsea 1995",
					"numinlets" : 1,
					"id" : "obj-20",
					"fontname" : "Geneva",
					"patching_rect" : [ 10.0, 279.0, 100.0, 19.0 ],
					"numoutlets" : 0,
					"fontsize" : 9.0
				}

			}
, 			{
				"box" : 				{
					"maxclass" : "comment",
					"text" : "University of California, Santa Cruz",
					"numinlets" : 1,
					"id" : "obj-21",
					"fontname" : "Geneva",
					"patching_rect" : [ 9.0, 293.0, 171.0, 19.0 ],
					"numoutlets" : 0,
					"fontsize" : 9.0
				}

			}
 ],
		"lines" : [ 			{
				"patchline" : 				{
					"source" : [ "obj-13", 0 ],
					"destination" : [ "obj-1", 1 ],
					"hidden" : 0,
					"midpoints" : [ 253.5, 147.0, 203.0, 147.0 ]
				}

			}
, 			{
				"patchline" : 				{
					"source" : [ "obj-12", 0 ],
					"destination" : [ "obj-1", 1 ],
					"hidden" : 0,
					"midpoints" : [ 232.5, 124.0, 203.0, 124.0 ]
				}

			}
, 			{
				"patchline" : 				{
					"source" : [ "obj-10", 0 ],
					"destination" : [ "obj-1", 1 ],
					"hidden" : 0,
					"midpoints" : [ 213.5, 72.0, 203.0, 72.0 ]
				}

			}
, 			{
				"patchline" : 				{
					"source" : [ "obj-11", 0 ],
					"destination" : [ "obj-1", 1 ],
					"hidden" : 0,
					"midpoints" : [ 219.5, 96.0, 203.0, 96.0 ]
				}

			}
, 			{
				"patchline" : 				{
					"source" : [ "obj-9", 0 ],
					"destination" : [ "obj-8", 0 ],
					"hidden" : 0,
					"midpoints" : [  ]
				}

			}
, 			{
				"patchline" : 				{
					"source" : [ "obj-1", 0 ],
					"destination" : [ "obj-9", 0 ],
					"hidden" : 0,
					"midpoints" : [  ]
				}

			}
, 			{
				"patchline" : 				{
					"source" : [ "obj-14", 0 ],
					"destination" : [ "obj-1", 0 ],
					"hidden" : 0,
					"midpoints" : [ 131.5, 146.0, 189.5, 146.0 ]
				}

			}
, 			{
				"patchline" : 				{
					"source" : [ "obj-16", 0 ],
					"destination" : [ "obj-1", 0 ],
					"hidden" : 0,
					"midpoints" : [ 58.0, 146.0, 189.5, 146.0 ]
				}

			}
, 			{
				"patchline" : 				{
					"source" : [ "obj-15", 0 ],
					"destination" : [ "obj-1", 0 ],
					"hidden" : 0,
					"midpoints" : [ 88.5, 146.0, 189.5, 146.0 ]
				}

			}
, 			{
				"patchline" : 				{
					"source" : [ "obj-2", 0 ],
					"destination" : [ "obj-1", 0 ],
					"hidden" : 0,
					"midpoints" : [ 107.5, 72.0, 189.5, 72.0 ]
				}

			}
, 			{
				"patchline" : 				{
					"source" : [ "obj-3", 0 ],
					"destination" : [ "obj-1", 0 ],
					"hidden" : 0,
					"midpoints" : [ 106.5, 98.0, 189.5, 98.0 ]
				}

			}
, 			{
				"patchline" : 				{
					"source" : [ "obj-4", 0 ],
					"destination" : [ "obj-1", 0 ],
					"hidden" : 0,
					"midpoints" : [ 106.5, 123.0, 189.5, 123.0 ]
				}

			}
 ]
	}

}
