{
	"patcher" : 	{
		"fileversion" : 1,
		"rect" : [ 1.0, 44.0, 416.0, 303.0 ],
		"bglocked" : 0,
		"defrect" : [ 1.0, 44.0, 416.0, 303.0 ],
		"openrect" : [ 0.0, 0.0, 0.0, 0.0 ],
		"openinpresentation" : 0,
		"default_fontsize" : 12.0,
		"default_fontface" : 0,
		"default_fontname" : "Arial",
		"gridonopen" : 0,
		"gridsize" : [ 15.0, 15.0 ],
		"gridsnaponopen" : 0,
		"toolbarvisible" : 1,
		"boxanimatetime" : 200,
		"imprint" : 0,
		"enablehscroll" : 1,
		"enablevscroll" : 1,
		"devicewidth" : 0.0,
		"boxes" : [ 			{
				"box" : 				{
					"maxclass" : "message",
					"text" : "inc-dec",
					"textcolor" : [ 1.0, 1.0, 1.0, 1.0 ],
					"bgcolor" : [ 0.360784, 0.360784, 0.360784, 1.0 ],
					"fontface" : 1,
					"fontsize" : 10.0,
					"numinlets" : 2,
					"bgcolor2" : [ 0.858824, 0.858824, 0.858824, 1.0 ],
					"numoutlets" : 1,
					"outlettype" : [ "" ],
					"patching_rect" : [ 276.0, 102.0, 46.0, 16.0 ],
					"id" : "obj-13",
					"fontname" : "Arial"
				}

			}
, 			{
				"box" : 				{
					"maxclass" : "message",
					"text" : "roundto",
					"textcolor" : [ 1.0, 1.0, 1.0, 1.0 ],
					"bgcolor" : [ 0.360784, 0.360784, 0.360784, 1.0 ],
					"fontface" : 1,
					"fontsize" : 10.0,
					"numinlets" : 2,
					"bgcolor2" : [ 0.858824, 0.858824, 0.858824, 1.0 ],
					"numoutlets" : 1,
					"outlettype" : [ "" ],
					"patching_rect" : [ 103.0, 102.0, 48.0, 16.0 ],
					"id" : "obj-1",
					"fontname" : "Arial"
				}

			}
, 			{
				"box" : 				{
					"maxclass" : "message",
					"text" : "divmod",
					"textcolor" : [ 1.0, 1.0, 1.0, 1.0 ],
					"bgcolor" : [ 0.360784, 0.360784, 0.360784, 1.0 ],
					"fontface" : 1,
					"fontsize" : 10.0,
					"numinlets" : 2,
					"bgcolor2" : [ 0.858824, 0.858824, 0.858824, 1.0 ],
					"numoutlets" : 1,
					"outlettype" : [ "" ],
					"patching_rect" : [ 192.0, 102.0, 46.0, 16.0 ],
					"id" : "obj-14",
					"fontname" : "Arial"
				}

			}
, 			{
				"box" : 				{
					"maxclass" : "message",
					"text" : "add%",
					"textcolor" : [ 1.0, 1.0, 1.0, 1.0 ],
					"bgcolor" : [ 0.360784, 0.360784, 0.360784, 1.0 ],
					"fontface" : 1,
					"fontsize" : 10.0,
					"numinlets" : 2,
					"bgcolor2" : [ 0.858824, 0.858824, 0.858824, 1.0 ],
					"numoutlets" : 1,
					"outlettype" : [ "" ],
					"patching_rect" : [ 62.0, 102.0, 37.0, 16.0 ],
					"id" : "obj-2",
					"fontname" : "Arial"
				}

			}
, 			{
				"box" : 				{
					"maxclass" : "message",
					"text" : "integ",
					"textcolor" : [ 1.0, 1.0, 1.0, 1.0 ],
					"bgcolor" : [ 0.360784, 0.360784, 0.360784, 1.0 ],
					"fontface" : 1,
					"fontsize" : 10.0,
					"numinlets" : 2,
					"bgcolor2" : [ 0.858824, 0.858824, 0.858824, 1.0 ],
					"numoutlets" : 1,
					"outlettype" : [ "" ],
					"patching_rect" : [ 154.0, 102.0, 34.0, 16.0 ],
					"id" : "obj-30",
					"fontname" : "Arial"
				}

			}
, 			{
				"box" : 				{
					"maxclass" : "message",
					"text" : "inv",
					"textcolor" : [ 1.0, 1.0, 1.0, 1.0 ],
					"bgcolor" : [ 0.360784, 0.360784, 0.360784, 1.0 ],
					"fontface" : 1,
					"fontsize" : 10.0,
					"numinlets" : 2,
					"bgcolor2" : [ 0.858824, 0.858824, 0.858824, 1.0 ],
					"numoutlets" : 1,
					"outlettype" : [ "" ],
					"patching_rect" : [ 242.0, 102.0, 29.0, 16.0 ],
					"id" : "obj-34",
					"fontname" : "Arial"
				}

			}
, 			{
				"box" : 				{
					"maxclass" : "comment",
					"text" : "see also:",
					"fontsize" : 12.0,
					"numinlets" : 1,
					"numoutlets" : 0,
					"patching_rect" : [ 0.0, 100.0, 59.0, 20.0 ],
					"id" : "obj-10",
					"fontname" : "Arial"
				}

			}
, 			{
				"box" : 				{
					"maxclass" : "comment",
					"varname" : "autohelp_top_digest",
					"text" : "Math",
					"textcolor" : [ 0.93, 0.93, 0.97, 1.0 ],
					"frgb" : [ 0.93, 0.93, 0.97, 1.0 ],
					"fontsize" : 12.754705,
					"numinlets" : 1,
					"numoutlets" : 0,
					"patching_rect" : [ 0.0, 24.0, 52.0, 21.0 ],
					"id" : "obj-25",
					"fontname" : "Arial"
				}

			}
, 			{
				"box" : 				{
					"maxclass" : "message",
					"text" : "RTC-Overview",
					"textcolor" : [ 1.0, 1.0, 1.0, 1.0 ],
					"bgcolor" : [ 0.360784, 0.360784, 0.360784, 1.0 ],
					"fontface" : 1,
					"fontsize" : 12.0,
					"numinlets" : 2,
					"numoutlets" : 1,
					"outlettype" : [ "" ],
					"patching_rect" : [ 314.0, 27.0, 93.0, 18.0 ],
					"id" : "obj-23",
					"fontname" : "Arial"
				}

			}
, 			{
				"box" : 				{
					"maxclass" : "message",
					"text" : "Toolbox",
					"textcolor" : [ 1.0, 1.0, 1.0, 1.0 ],
					"bgcolor" : [ 0.360784, 0.360784, 0.360784, 1.0 ],
					"fontface" : 1,
					"fontsize" : 12.0,
					"numinlets" : 2,
					"numoutlets" : 1,
					"outlettype" : [ "" ],
					"patching_rect" : [ 349.0, 4.0, 57.0, 18.0 ],
					"id" : "obj-38",
					"fontname" : "Arial"
				}

			}
, 			{
				"box" : 				{
					"maxclass" : "newobj",
					"text" : "open-help",
					"hidden" : 1,
					"fontsize" : 9.0,
					"numinlets" : 1,
					"numoutlets" : 0,
					"patching_rect" : [ 280.0, 4.0, 52.0, 17.0 ],
					"id" : "obj-16",
					"fontname" : "Arial"
				}

			}
, 			{
				"box" : 				{
					"maxclass" : "comment",
					"text" : "contrario",
					"textcolor" : [ 1.0, 1.0, 1.0, 1.0 ],
					"frgb" : [ 1.0, 1.0, 1.0, 1.0 ],
					"fontface" : 3,
					"fontsize" : 14.0,
					"numinlets" : 1,
					"numoutlets" : 0,
					"patching_rect" : [ 0.0, 1.0, 71.0, 23.0 ],
					"id" : "obj-17",
					"fontname" : "Arial"
				}

			}
, 			{
				"box" : 				{
					"maxclass" : "comment",
					"text" : "A number <int, float> in left inlet outputs a complimentary number. The axis number <float, int> has to be sent to the right inlet or given as an argument to the function.",
					"linecount" : 3,
					"fontsize" : 12.0,
					"numinlets" : 1,
					"numoutlets" : 0,
					"patching_rect" : [ 0.0, 51.0, 413.0, 48.0 ],
					"id" : "obj-18",
					"fontname" : "Arial"
				}

			}
, 			{
				"box" : 				{
					"maxclass" : "comment",
					"text" : "result",
					"fontsize" : 12.0,
					"numinlets" : 1,
					"numoutlets" : 0,
					"patching_rect" : [ 105.0, 233.0, 43.0, 20.0 ],
					"id" : "obj-3",
					"fontname" : "Arial"
				}

			}
, 			{
				"box" : 				{
					"maxclass" : "comment",
					"text" : "axis",
					"fontsize" : 12.0,
					"numinlets" : 1,
					"numoutlets" : 0,
					"patching_rect" : [ 106.0, 150.0, 36.0, 20.0 ],
					"id" : "obj-4",
					"fontname" : "Arial"
				}

			}
, 			{
				"box" : 				{
					"maxclass" : "flonum",
					"bgcolor" : [ 0.866667, 0.866667, 0.866667, 1.0 ],
					"fontsize" : 12.0,
					"numinlets" : 1,
					"numoutlets" : 2,
					"triscale" : 0.9,
					"htextcolor" : [ 0.870588, 0.870588, 0.870588, 1.0 ],
					"outlettype" : [ "float", "bang" ],
					"patching_rect" : [ 106.0, 170.0, 40.0, 20.0 ],
					"id" : "obj-5",
					"fontname" : "Arial"
				}

			}
, 			{
				"box" : 				{
					"maxclass" : "comment",
					"text" : "input",
					"fontsize" : 12.0,
					"numinlets" : 1,
					"numoutlets" : 0,
					"patching_rect" : [ 48.0, 150.0, 38.0, 20.0 ],
					"id" : "obj-6",
					"fontname" : "Arial"
				}

			}
, 			{
				"box" : 				{
					"maxclass" : "flonum",
					"bgcolor" : [ 0.866667, 0.866667, 0.866667, 1.0 ],
					"fontsize" : 12.0,
					"numinlets" : 1,
					"numoutlets" : 2,
					"triscale" : 0.9,
					"htextcolor" : [ 0.870588, 0.870588, 0.870588, 1.0 ],
					"outlettype" : [ "float", "bang" ],
					"patching_rect" : [ 48.0, 170.0, 40.0, 20.0 ],
					"id" : "obj-7",
					"fontname" : "Arial"
				}

			}
, 			{
				"box" : 				{
					"maxclass" : "flonum",
					"bgcolor" : [ 0.866667, 0.866667, 0.866667, 1.0 ],
					"triangle" : 0,
					"fontface" : 1,
					"fontsize" : 12.0,
					"numinlets" : 1,
					"numoutlets" : 2,
					"triscale" : 0.9,
					"htextcolor" : [ 0.870588, 0.870588, 0.870588, 1.0 ],
					"outlettype" : [ "float", "bang" ],
					"patching_rect" : [ 48.0, 232.0, 56.0, 20.0 ],
					"cantchange" : 1,
					"id" : "obj-8",
					"fontname" : "Arial"
				}

			}
, 			{
				"box" : 				{
					"maxclass" : "newobj",
					"text" : "contrario 5",
					"fontsize" : 12.0,
					"numinlets" : 2,
					"numoutlets" : 1,
					"outlettype" : [ "float" ],
					"patching_rect" : [ 48.0, 200.0, 77.0, 20.0 ],
					"id" : "obj-9",
					"fontname" : "Arial"
				}

			}
, 			{
				"box" : 				{
					"maxclass" : "comment",
					"text" : "1993-2004 by Karlheinz Essl, vs. 3.0",
					"fontsize" : 10.0,
					"numinlets" : 1,
					"numoutlets" : 0,
					"patching_rect" : [ 0.0, 277.0, 173.0, 18.0 ],
					"id" : "obj-11",
					"fontname" : "Arial"
				}

			}
, 			{
				"box" : 				{
					"maxclass" : "panel",
					"varname" : "autohelp_top_panel",
					"rounded" : 0,
					"mode" : 1,
					"numinlets" : 1,
					"grad1" : [ 0.0, 0.0, 0.0, 1.0 ],
					"numoutlets" : 0,
					"grad2" : [ 0.85, 0.85, 0.85, 1.0 ],
					"background" : 1,
					"patching_rect" : [ 0.0, 0.0, 416.0, 51.0 ],
					"id" : "obj-55"
				}

			}
 ],
		"lines" : [ 			{
				"patchline" : 				{
					"source" : [ "obj-13", 0 ],
					"destination" : [ "obj-16", 0 ],
					"hidden" : 1,
					"midpoints" : [  ]
				}

			}
, 			{
				"patchline" : 				{
					"source" : [ "obj-38", 0 ],
					"destination" : [ "obj-16", 0 ],
					"hidden" : 1,
					"midpoints" : [  ]
				}

			}
, 			{
				"patchline" : 				{
					"source" : [ "obj-23", 0 ],
					"destination" : [ "obj-16", 0 ],
					"hidden" : 1,
					"midpoints" : [  ]
				}

			}
, 			{
				"patchline" : 				{
					"source" : [ "obj-5", 0 ],
					"destination" : [ "obj-9", 1 ],
					"hidden" : 0,
					"midpoints" : [  ]
				}

			}
, 			{
				"patchline" : 				{
					"source" : [ "obj-9", 0 ],
					"destination" : [ "obj-8", 0 ],
					"hidden" : 0,
					"midpoints" : [  ]
				}

			}
, 			{
				"patchline" : 				{
					"source" : [ "obj-7", 0 ],
					"destination" : [ "obj-9", 0 ],
					"hidden" : 0,
					"midpoints" : [  ]
				}

			}
, 			{
				"patchline" : 				{
					"source" : [ "obj-2", 0 ],
					"destination" : [ "obj-16", 0 ],
					"hidden" : 1,
					"midpoints" : [  ]
				}

			}
, 			{
				"patchline" : 				{
					"source" : [ "obj-1", 0 ],
					"destination" : [ "obj-16", 0 ],
					"hidden" : 1,
					"midpoints" : [  ]
				}

			}
, 			{
				"patchline" : 				{
					"source" : [ "obj-30", 0 ],
					"destination" : [ "obj-16", 0 ],
					"hidden" : 1,
					"midpoints" : [  ]
				}

			}
, 			{
				"patchline" : 				{
					"source" : [ "obj-14", 0 ],
					"destination" : [ "obj-16", 0 ],
					"hidden" : 1,
					"midpoints" : [  ]
				}

			}
, 			{
				"patchline" : 				{
					"source" : [ "obj-34", 0 ],
					"destination" : [ "obj-16", 0 ],
					"hidden" : 1,
					"midpoints" : [  ]
				}

			}
 ]
	}

}
