{
	"patcher" : 	{
		"fileversion" : 1,
		"rect" : [ 0.0, 44.0, 416.0, 294.0 ],
		"bglocked" : 0,
		"defrect" : [ 0.0, 44.0, 416.0, 294.0 ],
		"openrect" : [ 0.0, 0.0, 0.0, 0.0 ],
		"openinpresentation" : 0,
		"default_fontsize" : 12.0,
		"default_fontface" : 0,
		"default_fontname" : "Arial",
		"gridonopen" : 0,
		"gridsize" : [ 15.0, 15.0 ],
		"gridsnaponopen" : 0,
		"toolbarvisible" : 1,
		"boxanimatetime" : 200,
		"imprint" : 0,
		"enablehscroll" : 1,
		"enablevscroll" : 1,
		"devicewidth" : 0.0,
		"boxes" : [ 			{
				"box" : 				{
					"maxclass" : "message",
					"text" : "first-shot",
					"fontface" : 1,
					"fontsize" : 10.0,
					"numoutlets" : 1,
					"bgcolor2" : [ 0.858824, 0.858824, 0.858824, 1.0 ],
					"outlettype" : [ "" ],
					"patching_rect" : [ 230.0, 95.0, 54.0, 16.0 ],
					"id" : "obj-1",
					"fontname" : "Arial",
					"textcolor" : [ 1.0, 1.0, 1.0, 1.0 ],
					"bgcolor" : [ 0.360784, 0.360784, 0.360784, 1.0 ],
					"numinlets" : 2
				}

			}
, 			{
				"box" : 				{
					"maxclass" : "message",
					"text" : "key-bang",
					"fontface" : 1,
					"fontsize" : 10.0,
					"numoutlets" : 1,
					"bgcolor2" : [ 0.858824, 0.858824, 0.858824, 1.0 ],
					"outlettype" : [ "" ],
					"patching_rect" : [ 287.0, 95.0, 54.0, 16.0 ],
					"id" : "obj-3",
					"fontname" : "Arial",
					"textcolor" : [ 1.0, 1.0, 1.0, 1.0 ],
					"bgcolor" : [ 0.360784, 0.360784, 0.360784, 1.0 ],
					"numinlets" : 2
				}

			}
, 			{
				"box" : 				{
					"maxclass" : "message",
					"text" : "first-bang",
					"fontface" : 1,
					"fontsize" : 10.0,
					"numoutlets" : 1,
					"bgcolor2" : [ 0.858824, 0.858824, 0.858824, 1.0 ],
					"outlettype" : [ "" ],
					"patching_rect" : [ 63.0, 74.0, 57.0, 16.0 ],
					"id" : "obj-18",
					"fontname" : "Arial",
					"textcolor" : [ 1.0, 1.0, 1.0, 1.0 ],
					"bgcolor" : [ 0.360784, 0.360784, 0.360784, 1.0 ],
					"numinlets" : 2
				}

			}
, 			{
				"box" : 				{
					"maxclass" : "message",
					"text" : "pass",
					"fontface" : 1,
					"fontsize" : 10.0,
					"numoutlets" : 1,
					"bgcolor2" : [ 0.858824, 0.858824, 0.858824, 1.0 ],
					"outlettype" : [ "" ],
					"patching_rect" : [ 190.0, 74.0, 33.0, 16.0 ],
					"id" : "obj-24",
					"fontname" : "Arial",
					"textcolor" : [ 1.0, 1.0, 1.0, 1.0 ],
					"bgcolor" : [ 0.360784, 0.360784, 0.360784, 1.0 ],
					"numinlets" : 2
				}

			}
, 			{
				"box" : 				{
					"maxclass" : "message",
					"text" : "block-bang",
					"fontface" : 1,
					"fontsize" : 10.0,
					"numoutlets" : 1,
					"bgcolor2" : [ 0.858824, 0.858824, 0.858824, 1.0 ],
					"outlettype" : [ "" ],
					"patching_rect" : [ 123.0, 74.0, 64.0, 16.0 ],
					"id" : "obj-48",
					"fontname" : "Arial",
					"textcolor" : [ 1.0, 1.0, 1.0, 1.0 ],
					"bgcolor" : [ 0.360784, 0.360784, 0.360784, 1.0 ],
					"numinlets" : 2
				}

			}
, 			{
				"box" : 				{
					"maxclass" : "message",
					"text" : "DblBang",
					"fontface" : 1,
					"fontsize" : 10.0,
					"numoutlets" : 1,
					"bgcolor2" : [ 0.858824, 0.858824, 0.858824, 1.0 ],
					"outlettype" : [ "" ],
					"patching_rect" : [ 64.0, 95.0, 52.0, 16.0 ],
					"id" : "obj-49",
					"fontname" : "Arial",
					"textcolor" : [ 1.0, 1.0, 1.0, 1.0 ],
					"bgcolor" : [ 0.360784, 0.360784, 0.360784, 1.0 ],
					"numinlets" : 2
				}

			}
, 			{
				"box" : 				{
					"maxclass" : "message",
					"text" : "per2pass",
					"fontface" : 1,
					"fontsize" : 10.0,
					"numoutlets" : 1,
					"bgcolor2" : [ 0.858824, 0.858824, 0.858824, 1.0 ],
					"outlettype" : [ "" ],
					"patching_rect" : [ 227.0, 74.0, 54.0, 16.0 ],
					"id" : "obj-50",
					"fontname" : "Arial",
					"textcolor" : [ 1.0, 1.0, 1.0, 1.0 ],
					"bgcolor" : [ 0.360784, 0.360784, 0.360784, 1.0 ],
					"numinlets" : 2
				}

			}
, 			{
				"box" : 				{
					"maxclass" : "message",
					"text" : "banger",
					"fontface" : 1,
					"fontsize" : 10.0,
					"numoutlets" : 1,
					"bgcolor2" : [ 0.858824, 0.858824, 0.858824, 1.0 ],
					"outlettype" : [ "" ],
					"patching_rect" : [ 120.0, 95.0, 44.0, 16.0 ],
					"id" : "obj-51",
					"fontname" : "Arial",
					"textcolor" : [ 1.0, 1.0, 1.0, 1.0 ],
					"bgcolor" : [ 0.082353, 0.25098, 0.431373, 1.0 ],
					"numinlets" : 2
				}

			}
, 			{
				"box" : 				{
					"maxclass" : "message",
					"text" : "pass-bang",
					"fontface" : 1,
					"fontsize" : 10.0,
					"numoutlets" : 1,
					"bgcolor2" : [ 0.858824, 0.858824, 0.858824, 1.0 ],
					"outlettype" : [ "" ],
					"patching_rect" : [ 284.0, 74.0, 61.0, 16.0 ],
					"id" : "obj-52",
					"fontname" : "Arial",
					"textcolor" : [ 1.0, 1.0, 1.0, 1.0 ],
					"bgcolor" : [ 0.360784, 0.360784, 0.360784, 1.0 ],
					"numinlets" : 2
				}

			}
, 			{
				"box" : 				{
					"maxclass" : "message",
					"text" : "reanimate",
					"fontface" : 1,
					"fontsize" : 10.0,
					"numoutlets" : 1,
					"bgcolor2" : [ 0.858824, 0.858824, 0.858824, 1.0 ],
					"outlettype" : [ "" ],
					"patching_rect" : [ 168.0, 95.0, 58.0, 16.0 ],
					"id" : "obj-53",
					"fontname" : "Arial",
					"textcolor" : [ 1.0, 1.0, 1.0, 1.0 ],
					"bgcolor" : [ 0.360784, 0.360784, 0.360784, 1.0 ],
					"numinlets" : 2
				}

			}
, 			{
				"box" : 				{
					"maxclass" : "comment",
					"text" : "see also:",
					"fontsize" : 12.0,
					"numoutlets" : 0,
					"patching_rect" : [ 0.0, 73.0, 59.0, 20.0 ],
					"id" : "obj-4",
					"fontname" : "Arial",
					"numinlets" : 1
				}

			}
, 			{
				"box" : 				{
					"maxclass" : "newobj",
					"text" : "open-help",
					"fontsize" : 9.0,
					"hidden" : 1,
					"numoutlets" : 0,
					"patching_rect" : [ 225.0, 11.0, 52.0, 17.0 ],
					"id" : "obj-13",
					"fontname" : "Arial",
					"numinlets" : 1
				}

			}
, 			{
				"box" : 				{
					"maxclass" : "button",
					"numoutlets" : 1,
					"outlettype" : [ "bang" ],
					"patching_rect" : [ 134.0, 150.0, 20.0, 20.0 ],
					"id" : "obj-10",
					"numinlets" : 1
				}

			}
, 			{
				"box" : 				{
					"maxclass" : "button",
					"numoutlets" : 1,
					"outlettype" : [ "bang" ],
					"patching_rect" : [ 75.0, 150.0, 20.0, 20.0 ],
					"id" : "obj-11",
					"numinlets" : 1
				}

			}
, 			{
				"box" : 				{
					"maxclass" : "comment",
					"text" : "bangs to count",
					"fontsize" : 12.0,
					"numoutlets" : 0,
					"patching_rect" : [ 49.0, 129.0, 94.0, 20.0 ],
					"id" : "obj-5",
					"fontname" : "Arial",
					"numinlets" : 1
				}

			}
, 			{
				"box" : 				{
					"maxclass" : "comment",
					"text" : "reset",
					"fontsize" : 12.0,
					"numoutlets" : 0,
					"patching_rect" : [ 154.0, 151.0, 50.0, 20.0 ],
					"id" : "obj-6",
					"fontname" : "Arial",
					"numinlets" : 1
				}

			}
, 			{
				"box" : 				{
					"maxclass" : "number",
					"fontface" : 1,
					"fontsize" : 12.0,
					"numoutlets" : 2,
					"outlettype" : [ "int", "bang" ],
					"triscale" : 0.9,
					"patching_rect" : [ 75.0, 212.0, 33.0, 20.0 ],
					"id" : "obj-7",
					"fontname" : "Arial",
					"cantchange" : 1,
					"htextcolor" : [ 0.870588, 0.870588, 0.870588, 1.0 ],
					"bgcolor" : [ 0.866667, 0.866667, 0.866667, 1.0 ],
					"numinlets" : 1,
					"triangle" : 0
				}

			}
, 			{
				"box" : 				{
					"maxclass" : "newobj",
					"text" : "count-bang",
					"fontsize" : 12.0,
					"numoutlets" : 1,
					"outlettype" : [ "int" ],
					"patching_rect" : [ 75.0, 180.0, 78.0, 20.0 ],
					"id" : "obj-8",
					"fontname" : "Arial",
					"numinlets" : 2
				}

			}
, 			{
				"box" : 				{
					"maxclass" : "comment",
					"text" : "number of received bangs",
					"fontsize" : 12.0,
					"numoutlets" : 0,
					"patching_rect" : [ 110.0, 212.0, 149.0, 20.0 ],
					"id" : "obj-12",
					"fontname" : "Arial",
					"numinlets" : 1
				}

			}
, 			{
				"box" : 				{
					"maxclass" : "comment",
					"text" : "1993 by Karlheinz Essl",
					"fontsize" : 10.0,
					"numoutlets" : 0,
					"patching_rect" : [ 0.0, 267.0, 147.0, 18.0 ],
					"id" : "obj-9",
					"fontname" : "Arial",
					"numinlets" : 1
				}

			}
, 			{
				"box" : 				{
					"maxclass" : "comment",
					"varname" : "autohelp_top_digest",
					"text" : "Bang operation",
					"fontsize" : 12.754705,
					"numoutlets" : 0,
					"frgb" : [ 0.93, 0.93, 0.97, 1.0 ],
					"patching_rect" : [ 0.0, 24.0, 97.0, 21.0 ],
					"id" : "obj-25",
					"fontname" : "Arial",
					"textcolor" : [ 0.93, 0.93, 0.97, 1.0 ],
					"numinlets" : 1
				}

			}
, 			{
				"box" : 				{
					"maxclass" : "message",
					"text" : "RTC-Overview",
					"fontface" : 1,
					"fontsize" : 12.0,
					"numoutlets" : 1,
					"outlettype" : [ "" ],
					"patching_rect" : [ 314.0, 27.0, 93.0, 18.0 ],
					"id" : "obj-23",
					"fontname" : "Arial",
					"textcolor" : [ 1.0, 1.0, 1.0, 1.0 ],
					"bgcolor" : [ 0.360784, 0.360784, 0.360784, 1.0 ],
					"numinlets" : 2
				}

			}
, 			{
				"box" : 				{
					"maxclass" : "message",
					"text" : "Toolbox",
					"fontface" : 1,
					"fontsize" : 12.0,
					"numoutlets" : 1,
					"outlettype" : [ "" ],
					"patching_rect" : [ 349.0, 4.0, 57.0, 18.0 ],
					"id" : "obj-38",
					"fontname" : "Arial",
					"textcolor" : [ 1.0, 1.0, 1.0, 1.0 ],
					"bgcolor" : [ 0.360784, 0.360784, 0.360784, 1.0 ],
					"numinlets" : 2
				}

			}
, 			{
				"box" : 				{
					"maxclass" : "comment",
					"text" : "count-bang",
					"fontface" : 3,
					"fontsize" : 14.0,
					"numoutlets" : 0,
					"frgb" : [ 1.0, 1.0, 1.0, 1.0 ],
					"patching_rect" : [ 1.0, 1.0, 87.0, 23.0 ],
					"id" : "obj-15",
					"fontname" : "Arial",
					"textcolor" : [ 1.0, 1.0, 1.0, 1.0 ],
					"numinlets" : 1
				}

			}
, 			{
				"box" : 				{
					"maxclass" : "comment",
					"text" : "Counts the number of received bangs.",
					"fontsize" : 12.0,
					"numoutlets" : 0,
					"patching_rect" : [ 0.0, 51.0, 395.0, 20.0 ],
					"id" : "obj-16",
					"fontname" : "Arial",
					"numinlets" : 1
				}

			}
, 			{
				"box" : 				{
					"maxclass" : "panel",
					"varname" : "autohelp_top_panel",
					"numoutlets" : 0,
					"mode" : 1,
					"grad1" : [ 0.0, 0.0, 0.0, 1.0 ],
					"grad2" : [ 0.85, 0.85, 0.85, 1.0 ],
					"patching_rect" : [ 0.0, 0.0, 416.0, 51.0 ],
					"id" : "obj-55",
					"background" : 1,
					"rounded" : 0,
					"numinlets" : 1
				}

			}
 ],
		"lines" : [ 			{
				"patchline" : 				{
					"source" : [ "obj-23", 0 ],
					"destination" : [ "obj-13", 0 ],
					"hidden" : 1,
					"midpoints" : [  ]
				}

			}
, 			{
				"patchline" : 				{
					"source" : [ "obj-38", 0 ],
					"destination" : [ "obj-13", 0 ],
					"hidden" : 1,
					"midpoints" : [  ]
				}

			}
, 			{
				"patchline" : 				{
					"source" : [ "obj-18", 0 ],
					"destination" : [ "obj-13", 0 ],
					"hidden" : 1,
					"midpoints" : [  ]
				}

			}
, 			{
				"patchline" : 				{
					"source" : [ "obj-48", 0 ],
					"destination" : [ "obj-13", 0 ],
					"hidden" : 1,
					"midpoints" : [  ]
				}

			}
, 			{
				"patchline" : 				{
					"source" : [ "obj-24", 0 ],
					"destination" : [ "obj-13", 0 ],
					"hidden" : 1,
					"midpoints" : [  ]
				}

			}
, 			{
				"patchline" : 				{
					"source" : [ "obj-52", 0 ],
					"destination" : [ "obj-13", 0 ],
					"hidden" : 1,
					"midpoints" : [  ]
				}

			}
, 			{
				"patchline" : 				{
					"source" : [ "obj-3", 0 ],
					"destination" : [ "obj-13", 0 ],
					"hidden" : 1,
					"midpoints" : [  ]
				}

			}
, 			{
				"patchline" : 				{
					"source" : [ "obj-50", 0 ],
					"destination" : [ "obj-13", 0 ],
					"hidden" : 1,
					"midpoints" : [  ]
				}

			}
, 			{
				"patchline" : 				{
					"source" : [ "obj-49", 0 ],
					"destination" : [ "obj-13", 0 ],
					"hidden" : 1,
					"midpoints" : [  ]
				}

			}
, 			{
				"patchline" : 				{
					"source" : [ "obj-51", 0 ],
					"destination" : [ "obj-13", 0 ],
					"hidden" : 1,
					"midpoints" : [  ]
				}

			}
, 			{
				"patchline" : 				{
					"source" : [ "obj-53", 0 ],
					"destination" : [ "obj-13", 0 ],
					"hidden" : 1,
					"midpoints" : [  ]
				}

			}
, 			{
				"patchline" : 				{
					"source" : [ "obj-1", 0 ],
					"destination" : [ "obj-13", 0 ],
					"hidden" : 1,
					"midpoints" : [  ]
				}

			}
, 			{
				"patchline" : 				{
					"source" : [ "obj-8", 0 ],
					"destination" : [ "obj-7", 0 ],
					"hidden" : 0,
					"midpoints" : [  ]
				}

			}
, 			{
				"patchline" : 				{
					"source" : [ "obj-11", 0 ],
					"destination" : [ "obj-8", 0 ],
					"hidden" : 0,
					"midpoints" : [  ]
				}

			}
, 			{
				"patchline" : 				{
					"source" : [ "obj-10", 0 ],
					"destination" : [ "obj-8", 1 ],
					"hidden" : 0,
					"midpoints" : [  ]
				}

			}
 ]
	}

}
