{
	"patcher" : 	{
		"fileversion" : 1,
		"rect" : [ 0.0, 44.0, 417.0, 382.0 ],
		"bglocked" : 0,
		"defrect" : [ 0.0, 44.0, 417.0, 382.0 ],
		"openrect" : [ 0.0, 0.0, 0.0, 0.0 ],
		"openinpresentation" : 0,
		"default_fontsize" : 12.0,
		"default_fontface" : 0,
		"default_fontname" : "Arial",
		"gridonopen" : 0,
		"gridsize" : [ 15.0, 15.0 ],
		"gridsnaponopen" : 0,
		"toolbarvisible" : 1,
		"boxanimatetime" : 200,
		"imprint" : 0,
		"enablehscroll" : 1,
		"enablevscroll" : 1,
		"devicewidth" : 0.0,
		"boxes" : [ 			{
				"box" : 				{
					"maxclass" : "comment",
					"text" : "Max' onebang object shows the same behaviour!",
					"linecount" : 3,
					"id" : "obj-7",
					"fontname" : "Arial",
					"presentation_rect" : [ 286.0, 178.0, 0.0, 0.0 ],
					"numinlets" : 1,
					"patching_rect" : [ 286.0, 178.0, 125.0, 48.0 ],
					"numoutlets" : 0,
					"fontsize" : 12.0
				}

			}
, 			{
				"box" : 				{
					"maxclass" : "button",
					"id" : "obj-2",
					"numinlets" : 1,
					"patching_rect" : [ 271.0, 298.0, 20.0, 20.0 ],
					"numoutlets" : 1,
					"outlettype" : [ "bang" ]
				}

			}
, 			{
				"box" : 				{
					"maxclass" : "button",
					"id" : "obj-3",
					"numinlets" : 1,
					"patching_rect" : [ 328.0, 270.0, 20.0, 20.0 ],
					"numoutlets" : 1,
					"outlettype" : [ "bang" ]
				}

			}
, 			{
				"box" : 				{
					"maxclass" : "newobj",
					"text" : "onebang",
					"id" : "obj-6",
					"fontname" : "Arial",
					"numinlets" : 2,
					"patching_rect" : [ 271.0, 236.0, 76.0, 20.0 ],
					"numoutlets" : 2,
					"fontsize" : 12.0,
					"outlettype" : [ "bang", "bang" ]
				}

			}
, 			{
				"box" : 				{
					"maxclass" : "message",
					"text" : "first-shot",
					"bgcolor2" : [ 0.858824, 0.858824, 0.858824, 1.0 ],
					"id" : "obj-1",
					"fontname" : "Arial",
					"numinlets" : 2,
					"bgcolor" : [ 0.360784, 0.360784, 0.360784, 1.0 ],
					"patching_rect" : [ 245.0, 108.0, 54.0, 16.0 ],
					"fontface" : 1,
					"numoutlets" : 1,
					"fontsize" : 10.0,
					"textcolor" : [ 1.0, 1.0, 1.0, 1.0 ],
					"outlettype" : [ "" ]
				}

			}
, 			{
				"box" : 				{
					"maxclass" : "message",
					"text" : "key-bang",
					"bgcolor2" : [ 0.858824, 0.858824, 0.858824, 1.0 ],
					"id" : "obj-10",
					"fontname" : "Arial",
					"numinlets" : 2,
					"bgcolor" : [ 0.360784, 0.360784, 0.360784, 1.0 ],
					"patching_rect" : [ 302.0, 108.0, 54.0, 16.0 ],
					"fontface" : 1,
					"numoutlets" : 1,
					"fontsize" : 10.0,
					"textcolor" : [ 1.0, 1.0, 1.0, 1.0 ],
					"outlettype" : [ "" ]
				}

			}
, 			{
				"box" : 				{
					"maxclass" : "message",
					"text" : "count-bang",
					"bgcolor2" : [ 0.858824, 0.858824, 0.858824, 1.0 ],
					"id" : "obj-18",
					"fontname" : "Arial",
					"numinlets" : 2,
					"bgcolor" : [ 0.360784, 0.360784, 0.360784, 1.0 ],
					"patching_rect" : [ 78.0, 87.0, 65.0, 16.0 ],
					"fontface" : 1,
					"numoutlets" : 1,
					"fontsize" : 10.0,
					"textcolor" : [ 1.0, 1.0, 1.0, 1.0 ],
					"outlettype" : [ "" ]
				}

			}
, 			{
				"box" : 				{
					"maxclass" : "message",
					"text" : "pass",
					"bgcolor2" : [ 0.858824, 0.858824, 0.858824, 1.0 ],
					"id" : "obj-24",
					"fontname" : "Arial",
					"numinlets" : 2,
					"bgcolor" : [ 0.360784, 0.360784, 0.360784, 1.0 ],
					"patching_rect" : [ 214.0, 87.0, 33.0, 16.0 ],
					"fontface" : 1,
					"numoutlets" : 1,
					"fontsize" : 10.0,
					"textcolor" : [ 1.0, 1.0, 1.0, 1.0 ],
					"outlettype" : [ "" ]
				}

			}
, 			{
				"box" : 				{
					"maxclass" : "message",
					"text" : "block-bang",
					"bgcolor2" : [ 0.858824, 0.858824, 0.858824, 1.0 ],
					"id" : "obj-48",
					"fontname" : "Arial",
					"numinlets" : 2,
					"bgcolor" : [ 0.360784, 0.360784, 0.360784, 1.0 ],
					"patching_rect" : [ 146.0, 87.0, 64.0, 16.0 ],
					"fontface" : 1,
					"numoutlets" : 1,
					"fontsize" : 10.0,
					"textcolor" : [ 1.0, 1.0, 1.0, 1.0 ],
					"outlettype" : [ "" ]
				}

			}
, 			{
				"box" : 				{
					"maxclass" : "message",
					"text" : "DblBang",
					"bgcolor2" : [ 0.858824, 0.858824, 0.858824, 1.0 ],
					"id" : "obj-49",
					"fontname" : "Arial",
					"numinlets" : 2,
					"bgcolor" : [ 0.360784, 0.360784, 0.360784, 1.0 ],
					"patching_rect" : [ 79.0, 108.0, 52.0, 16.0 ],
					"fontface" : 1,
					"numoutlets" : 1,
					"fontsize" : 10.0,
					"textcolor" : [ 1.0, 1.0, 1.0, 1.0 ],
					"outlettype" : [ "" ]
				}

			}
, 			{
				"box" : 				{
					"maxclass" : "message",
					"text" : "per2pass",
					"bgcolor2" : [ 0.858824, 0.858824, 0.858824, 1.0 ],
					"id" : "obj-50",
					"fontname" : "Arial",
					"numinlets" : 2,
					"bgcolor" : [ 0.360784, 0.360784, 0.360784, 1.0 ],
					"patching_rect" : [ 251.0, 87.0, 54.0, 16.0 ],
					"fontface" : 1,
					"numoutlets" : 1,
					"fontsize" : 10.0,
					"textcolor" : [ 1.0, 1.0, 1.0, 1.0 ],
					"outlettype" : [ "" ]
				}

			}
, 			{
				"box" : 				{
					"maxclass" : "message",
					"text" : "banger",
					"bgcolor2" : [ 0.858824, 0.858824, 0.858824, 1.0 ],
					"id" : "obj-51",
					"fontname" : "Arial",
					"numinlets" : 2,
					"bgcolor" : [ 0.082353, 0.25098, 0.431373, 1.0 ],
					"patching_rect" : [ 135.0, 108.0, 44.0, 16.0 ],
					"fontface" : 1,
					"numoutlets" : 1,
					"fontsize" : 10.0,
					"textcolor" : [ 1.0, 1.0, 1.0, 1.0 ],
					"outlettype" : [ "" ]
				}

			}
, 			{
				"box" : 				{
					"maxclass" : "message",
					"text" : "pass-bang",
					"bgcolor2" : [ 0.858824, 0.858824, 0.858824, 1.0 ],
					"id" : "obj-52",
					"fontname" : "Arial",
					"numinlets" : 2,
					"bgcolor" : [ 0.360784, 0.360784, 0.360784, 1.0 ],
					"patching_rect" : [ 308.0, 87.0, 61.0, 16.0 ],
					"fontface" : 1,
					"numoutlets" : 1,
					"fontsize" : 10.0,
					"textcolor" : [ 1.0, 1.0, 1.0, 1.0 ],
					"outlettype" : [ "" ]
				}

			}
, 			{
				"box" : 				{
					"maxclass" : "message",
					"text" : "reanimate",
					"bgcolor2" : [ 0.858824, 0.858824, 0.858824, 1.0 ],
					"id" : "obj-53",
					"fontname" : "Arial",
					"numinlets" : 2,
					"bgcolor" : [ 0.360784, 0.360784, 0.360784, 1.0 ],
					"patching_rect" : [ 183.0, 108.0, 58.0, 16.0 ],
					"fontface" : 1,
					"numoutlets" : 1,
					"fontsize" : 10.0,
					"textcolor" : [ 1.0, 1.0, 1.0, 1.0 ],
					"outlettype" : [ "" ]
				}

			}
, 			{
				"box" : 				{
					"maxclass" : "comment",
					"text" : "see also:",
					"id" : "obj-5",
					"fontname" : "Arial",
					"numinlets" : 1,
					"patching_rect" : [ 15.0, 86.0, 59.0, 20.0 ],
					"numoutlets" : 0,
					"fontsize" : 12.0
				}

			}
, 			{
				"box" : 				{
					"maxclass" : "newobj",
					"text" : "open-help",
					"hidden" : 1,
					"id" : "obj-4",
					"fontname" : "Arial",
					"numinlets" : 1,
					"patching_rect" : [ 232.0, 25.0, 52.0, 17.0 ],
					"numoutlets" : 0,
					"fontsize" : 9.0
				}

			}
, 			{
				"box" : 				{
					"maxclass" : "button",
					"id" : "obj-40",
					"numinlets" : 1,
					"patching_rect" : [ 54.0, 298.0, 20.0, 20.0 ],
					"numoutlets" : 1,
					"outlettype" : [ "bang" ]
				}

			}
, 			{
				"box" : 				{
					"maxclass" : "button",
					"id" : "obj-37",
					"numinlets" : 1,
					"patching_rect" : [ 111.0, 269.0, 20.0, 20.0 ],
					"numoutlets" : 1,
					"outlettype" : [ "bang" ]
				}

			}
, 			{
				"box" : 				{
					"maxclass" : "button",
					"id" : "obj-35",
					"numinlets" : 1,
					"patching_rect" : [ 111.0, 204.0, 20.0, 20.0 ],
					"numoutlets" : 1,
					"outlettype" : [ "bang" ]
				}

			}
, 			{
				"box" : 				{
					"maxclass" : "button",
					"id" : "obj-34",
					"numinlets" : 1,
					"patching_rect" : [ 54.0, 204.0, 20.0, 20.0 ],
					"numoutlets" : 1,
					"outlettype" : [ "bang" ]
				}

			}
, 			{
				"box" : 				{
					"maxclass" : "comment",
					"text" : "sends out all bangs except the first",
					"id" : "obj-30",
					"fontname" : "Arial",
					"numinlets" : 1,
					"patching_rect" : [ 133.0, 269.0, 195.0, 20.0 ],
					"numoutlets" : 0,
					"fontsize" : 12.0
				}

			}
, 			{
				"box" : 				{
					"maxclass" : "comment",
					"text" : "sends out the first bang",
					"id" : "obj-31",
					"fontname" : "Arial",
					"numinlets" : 1,
					"patching_rect" : [ 75.0, 299.0, 135.0, 20.0 ],
					"numoutlets" : 0,
					"fontsize" : 12.0
				}

			}
, 			{
				"box" : 				{
					"maxclass" : "comment",
					"text" : "reset",
					"id" : "obj-32",
					"fontname" : "Arial",
					"numinlets" : 1,
					"patching_rect" : [ 133.0, 205.0, 37.0, 20.0 ],
					"numoutlets" : 0,
					"fontsize" : 12.0
				}

			}
, 			{
				"box" : 				{
					"maxclass" : "newobj",
					"text" : "metro 500",
					"id" : "obj-11",
					"fontname" : "Arial",
					"numinlets" : 2,
					"patching_rect" : [ 54.0, 174.0, 72.0, 20.0 ],
					"numoutlets" : 1,
					"fontsize" : 12.0,
					"outlettype" : [ "bang" ]
				}

			}
, 			{
				"box" : 				{
					"maxclass" : "newobj",
					"text" : "first-bang",
					"id" : "obj-12",
					"fontname" : "Arial",
					"numinlets" : 2,
					"patching_rect" : [ 54.0, 236.0, 76.0, 20.0 ],
					"numoutlets" : 2,
					"fontsize" : 12.0,
					"outlettype" : [ "bang", "bang" ]
				}

			}
, 			{
				"box" : 				{
					"maxclass" : "toggle",
					"id" : "obj-19",
					"numinlets" : 1,
					"patching_rect" : [ 54.0, 141.0, 21.0, 21.0 ],
					"numoutlets" : 1,
					"outlettype" : [ "int" ]
				}

			}
, 			{
				"box" : 				{
					"maxclass" : "comment",
					"text" : "1993-2000 by Karlheinz Essl, vs. 2.0 ",
					"id" : "obj-9",
					"fontname" : "Arial",
					"numinlets" : 1,
					"patching_rect" : [ 0.0, 346.0, 176.0, 18.0 ],
					"numoutlets" : 0,
					"fontsize" : 10.0
				}

			}
, 			{
				"box" : 				{
					"maxclass" : "comment",
					"varname" : "autohelp_top_digest",
					"text" : "Bang operation",
					"frgb" : [ 0.93, 0.93, 0.97, 1.0 ],
					"id" : "obj-25",
					"fontname" : "Arial",
					"numinlets" : 1,
					"patching_rect" : [ 0.0, 24.0, 97.0, 21.0 ],
					"numoutlets" : 0,
					"fontsize" : 12.754705,
					"textcolor" : [ 0.93, 0.93, 0.97, 1.0 ]
				}

			}
, 			{
				"box" : 				{
					"maxclass" : "message",
					"text" : "RTC-Overview",
					"id" : "obj-23",
					"fontname" : "Arial",
					"numinlets" : 2,
					"bgcolor" : [ 0.360784, 0.360784, 0.360784, 1.0 ],
					"patching_rect" : [ 314.0, 27.0, 93.0, 18.0 ],
					"fontface" : 1,
					"numoutlets" : 1,
					"fontsize" : 12.0,
					"textcolor" : [ 1.0, 1.0, 1.0, 1.0 ],
					"outlettype" : [ "" ]
				}

			}
, 			{
				"box" : 				{
					"maxclass" : "message",
					"text" : "Toolbox",
					"id" : "obj-38",
					"fontname" : "Arial",
					"numinlets" : 2,
					"bgcolor" : [ 0.360784, 0.360784, 0.360784, 1.0 ],
					"patching_rect" : [ 349.0, 4.0, 57.0, 18.0 ],
					"fontface" : 1,
					"numoutlets" : 1,
					"fontsize" : 12.0,
					"textcolor" : [ 1.0, 1.0, 1.0, 1.0 ],
					"outlettype" : [ "" ]
				}

			}
, 			{
				"box" : 				{
					"maxclass" : "comment",
					"text" : "first-bang",
					"frgb" : [ 1.0, 1.0, 1.0, 1.0 ],
					"id" : "obj-15",
					"fontname" : "Arial",
					"numinlets" : 1,
					"patching_rect" : [ 1.0, 1.0, 75.0, 23.0 ],
					"fontface" : 3,
					"numoutlets" : 0,
					"fontsize" : 14.0,
					"textcolor" : [ 1.0, 1.0, 1.0, 1.0 ]
				}

			}
, 			{
				"box" : 				{
					"maxclass" : "comment",
					"text" : "Outputs only the first bang of a stream of bangs (e.g. rhythm) until the right inlet receives a (reset) bang.",
					"linecount" : 2,
					"id" : "obj-16",
					"fontname" : "Arial",
					"numinlets" : 1,
					"patching_rect" : [ 0.0, 51.0, 408.0, 34.0 ],
					"numoutlets" : 0,
					"fontsize" : 12.0
				}

			}
, 			{
				"box" : 				{
					"maxclass" : "panel",
					"varname" : "autohelp_top_panel",
					"id" : "obj-55",
					"mode" : 1,
					"grad1" : [ 0.0, 0.0, 0.0, 1.0 ],
					"numinlets" : 1,
					"grad2" : [ 0.85, 0.85, 0.85, 1.0 ],
					"patching_rect" : [ 0.0, 0.0, 416.0, 51.0 ],
					"numoutlets" : 0,
					"background" : 1,
					"rounded" : 0
				}

			}
 ],
		"lines" : [ 			{
				"patchline" : 				{
					"source" : [ "obj-35", 0 ],
					"destination" : [ "obj-6", 1 ],
					"hidden" : 0,
					"midpoints" : [ 120.5, 229.0, 337.5, 229.0 ]
				}

			}
, 			{
				"patchline" : 				{
					"source" : [ "obj-34", 0 ],
					"destination" : [ "obj-6", 0 ],
					"hidden" : 0,
					"midpoints" : [ 63.5, 229.0, 84.0, 229.0, 84.0, 199.0, 280.5, 199.0 ]
				}

			}
, 			{
				"patchline" : 				{
					"source" : [ "obj-6", 1 ],
					"destination" : [ "obj-3", 0 ],
					"hidden" : 0,
					"midpoints" : [  ]
				}

			}
, 			{
				"patchline" : 				{
					"source" : [ "obj-6", 0 ],
					"destination" : [ "obj-2", 0 ],
					"hidden" : 0,
					"midpoints" : [  ]
				}

			}
, 			{
				"patchline" : 				{
					"source" : [ "obj-19", 0 ],
					"destination" : [ "obj-11", 0 ],
					"hidden" : 0,
					"midpoints" : [  ]
				}

			}
, 			{
				"patchline" : 				{
					"source" : [ "obj-11", 0 ],
					"destination" : [ "obj-34", 0 ],
					"hidden" : 0,
					"midpoints" : [  ]
				}

			}
, 			{
				"patchline" : 				{
					"source" : [ "obj-34", 0 ],
					"destination" : [ "obj-12", 0 ],
					"hidden" : 0,
					"midpoints" : [  ]
				}

			}
, 			{
				"patchline" : 				{
					"source" : [ "obj-35", 0 ],
					"destination" : [ "obj-12", 1 ],
					"hidden" : 0,
					"midpoints" : [  ]
				}

			}
, 			{
				"patchline" : 				{
					"source" : [ "obj-12", 1 ],
					"destination" : [ "obj-37", 0 ],
					"hidden" : 0,
					"midpoints" : [  ]
				}

			}
, 			{
				"patchline" : 				{
					"source" : [ "obj-12", 0 ],
					"destination" : [ "obj-40", 0 ],
					"hidden" : 0,
					"midpoints" : [  ]
				}

			}
, 			{
				"patchline" : 				{
					"source" : [ "obj-1", 0 ],
					"destination" : [ "obj-4", 0 ],
					"hidden" : 1,
					"midpoints" : [  ]
				}

			}
, 			{
				"patchline" : 				{
					"source" : [ "obj-53", 0 ],
					"destination" : [ "obj-4", 0 ],
					"hidden" : 1,
					"midpoints" : [  ]
				}

			}
, 			{
				"patchline" : 				{
					"source" : [ "obj-51", 0 ],
					"destination" : [ "obj-4", 0 ],
					"hidden" : 1,
					"midpoints" : [  ]
				}

			}
, 			{
				"patchline" : 				{
					"source" : [ "obj-49", 0 ],
					"destination" : [ "obj-4", 0 ],
					"hidden" : 1,
					"midpoints" : [  ]
				}

			}
, 			{
				"patchline" : 				{
					"source" : [ "obj-50", 0 ],
					"destination" : [ "obj-4", 0 ],
					"hidden" : 1,
					"midpoints" : [  ]
				}

			}
, 			{
				"patchline" : 				{
					"source" : [ "obj-10", 0 ],
					"destination" : [ "obj-4", 0 ],
					"hidden" : 1,
					"midpoints" : [  ]
				}

			}
, 			{
				"patchline" : 				{
					"source" : [ "obj-52", 0 ],
					"destination" : [ "obj-4", 0 ],
					"hidden" : 1,
					"midpoints" : [  ]
				}

			}
, 			{
				"patchline" : 				{
					"source" : [ "obj-24", 0 ],
					"destination" : [ "obj-4", 0 ],
					"hidden" : 1,
					"midpoints" : [  ]
				}

			}
, 			{
				"patchline" : 				{
					"source" : [ "obj-48", 0 ],
					"destination" : [ "obj-4", 0 ],
					"hidden" : 1,
					"midpoints" : [  ]
				}

			}
, 			{
				"patchline" : 				{
					"source" : [ "obj-18", 0 ],
					"destination" : [ "obj-4", 0 ],
					"hidden" : 1,
					"midpoints" : [  ]
				}

			}
, 			{
				"patchline" : 				{
					"source" : [ "obj-23", 0 ],
					"destination" : [ "obj-4", 0 ],
					"hidden" : 1,
					"midpoints" : [  ]
				}

			}
, 			{
				"patchline" : 				{
					"source" : [ "obj-38", 0 ],
					"destination" : [ "obj-4", 0 ],
					"hidden" : 1,
					"midpoints" : [  ]
				}

			}
 ]
	}

}
