{
	"patcher" : 	{
		"fileversion" : 1,
		"rect" : [ 0.0, 44.0, 417.0, 326.0 ],
		"bglocked" : 0,
		"defrect" : [ 0.0, 44.0, 417.0, 326.0 ],
		"openrect" : [ 0.0, 0.0, 0.0, 0.0 ],
		"openinpresentation" : 0,
		"default_fontsize" : 12.0,
		"default_fontface" : 0,
		"default_fontname" : "Arial",
		"gridonopen" : 0,
		"gridsize" : [ 15.0, 15.0 ],
		"gridsnaponopen" : 0,
		"toolbarvisible" : 1,
		"boxanimatetime" : 200,
		"imprint" : 0,
		"enablehscroll" : 1,
		"enablevscroll" : 1,
		"devicewidth" : 0.0,
		"boxes" : [ 			{
				"box" : 				{
					"maxclass" : "message",
					"text" : "trans-exp2",
					"numoutlets" : 1,
					"bgcolor" : [ 0.360784, 0.360784, 0.360784, 1.0 ],
					"patching_rect" : [ 233.0, 100.0, 61.0, 16.0 ],
					"outlettype" : [ "" ],
					"textcolor" : [ 1.0, 1.0, 1.0, 1.0 ],
					"id" : "obj-14",
					"fontname" : "Arial",
					"presentation_rect" : [ 271.0, 102.0, 0.0, 0.0 ],
					"fontface" : 1,
					"fontsize" : 10.0,
					"numinlets" : 2
				}

			}
, 			{
				"box" : 				{
					"maxclass" : "message",
					"text" : "trans",
					"numoutlets" : 1,
					"bgcolor" : [ 0.360784, 0.360784, 0.360784, 1.0 ],
					"patching_rect" : [ 298.0, 100.0, 35.0, 16.0 ],
					"outlettype" : [ "" ],
					"textcolor" : [ 1.0, 1.0, 1.0, 1.0 ],
					"id" : "obj-30",
					"fontname" : "Arial",
					"fontface" : 1,
					"fontsize" : 10.0,
					"numinlets" : 2
				}

			}
, 			{
				"box" : 				{
					"maxclass" : "message",
					"text" : "trans-exp",
					"numoutlets" : 1,
					"bgcolor" : [ 0.360784, 0.360784, 0.360784, 1.0 ],
					"patching_rect" : [ 174.0, 100.0, 56.0, 16.0 ],
					"outlettype" : [ "" ],
					"textcolor" : [ 1.0, 1.0, 1.0, 1.0 ],
					"id" : "obj-29",
					"fontname" : "Arial",
					"fontface" : 1,
					"fontsize" : 10.0,
					"numinlets" : 2
				}

			}
, 			{
				"box" : 				{
					"maxclass" : "message",
					"text" : "trans-log",
					"numoutlets" : 1,
					"bgcolor" : [ 0.360784, 0.360784, 0.360784, 1.0 ],
					"patching_rect" : [ 117.0, 100.0, 53.0, 16.0 ],
					"outlettype" : [ "" ],
					"textcolor" : [ 1.0, 1.0, 1.0, 1.0 ],
					"id" : "obj-4",
					"fontname" : "Arial",
					"fontface" : 1,
					"fontsize" : 10.0,
					"numinlets" : 2
				}

			}
, 			{
				"box" : 				{
					"maxclass" : "message",
					"text" : "trans-lin",
					"numoutlets" : 1,
					"bgcolor" : [ 0.360784, 0.360784, 0.360784, 1.0 ],
					"patching_rect" : [ 63.0, 100.0, 50.0, 16.0 ],
					"outlettype" : [ "" ],
					"textcolor" : [ 1.0, 1.0, 1.0, 1.0 ],
					"id" : "obj-24",
					"fontname" : "Arial",
					"fontface" : 1,
					"fontsize" : 10.0,
					"numinlets" : 2
				}

			}
, 			{
				"box" : 				{
					"maxclass" : "comment",
					"text" : "see also:",
					"numoutlets" : 0,
					"patching_rect" : [ 0.0, 99.0, 61.0, 20.0 ],
					"id" : "obj-5",
					"fontname" : "Arial",
					"fontsize" : 12.0,
					"numinlets" : 1
				}

			}
, 			{
				"box" : 				{
					"maxclass" : "flonum",
					"numoutlets" : 2,
					"bgcolor" : [ 0.866667, 0.866667, 0.866667, 1.0 ],
					"patching_rect" : [ 161.0, 161.0, 40.0, 20.0 ],
					"outlettype" : [ "float", "bang" ],
					"htextcolor" : [ 0.870588, 0.870588, 0.870588, 1.0 ],
					"id" : "obj-1",
					"fontname" : "Arial",
					"triscale" : 0.9,
					"fontsize" : 12.0,
					"numinlets" : 1
				}

			}
, 			{
				"box" : 				{
					"maxclass" : "flonum",
					"numoutlets" : 2,
					"bgcolor" : [ 0.866667, 0.866667, 0.866667, 1.0 ],
					"patching_rect" : [ 21.0, 223.0, 61.0, 20.0 ],
					"outlettype" : [ "float", "bang" ],
					"htextcolor" : [ 0.870588, 0.870588, 0.870588, 1.0 ],
					"id" : "obj-6",
					"fontname" : "Arial",
					"triangle" : 0,
					"cantchange" : 1,
					"triscale" : 0.9,
					"fontface" : 1,
					"fontsize" : 12.0,
					"numinlets" : 1
				}

			}
, 			{
				"box" : 				{
					"maxclass" : "comment",
					"text" : "nth element of the geometrical row",
					"numoutlets" : 0,
					"patching_rect" : [ 84.0, 223.0, 195.0, 20.0 ],
					"id" : "obj-7",
					"fontname" : "Arial",
					"fontsize" : 12.0,
					"numinlets" : 1
				}

			}
, 			{
				"box" : 				{
					"maxclass" : "comment",
					"text" : "row index",
					"numoutlets" : 0,
					"patching_rect" : [ 21.0, 142.0, 62.0, 20.0 ],
					"id" : "obj-8",
					"fontname" : "Arial",
					"fontsize" : 12.0,
					"numinlets" : 1
				}

			}
, 			{
				"box" : 				{
					"maxclass" : "comment",
					"text" : "value",
					"numoutlets" : 0,
					"patching_rect" : [ 91.0, 142.0, 39.0, 20.0 ],
					"id" : "obj-3",
					"fontname" : "Arial",
					"fontsize" : 12.0,
					"numinlets" : 1
				}

			}
, 			{
				"box" : 				{
					"maxclass" : "comment",
					"text" : "proportional factor q",
					"numoutlets" : 0,
					"patching_rect" : [ 162.0, 142.0, 117.0, 20.0 ],
					"id" : "obj-10",
					"fontname" : "Arial",
					"fontsize" : 12.0,
					"numinlets" : 1
				}

			}
, 			{
				"box" : 				{
					"maxclass" : "number",
					"numoutlets" : 2,
					"bgcolor" : [ 0.866667, 0.866667, 0.866667, 1.0 ],
					"patching_rect" : [ 21.0, 161.0, 37.0, 20.0 ],
					"outlettype" : [ "int", "bang" ],
					"htextcolor" : [ 0.870588, 0.870588, 0.870588, 1.0 ],
					"id" : "obj-11",
					"fontname" : "Arial",
					"triscale" : 0.9,
					"fontsize" : 12.0,
					"numinlets" : 1
				}

			}
, 			{
				"box" : 				{
					"maxclass" : "flonum",
					"numoutlets" : 2,
					"bgcolor" : [ 0.866667, 0.866667, 0.866667, 1.0 ],
					"patching_rect" : [ 91.0, 161.0, 46.0, 20.0 ],
					"outlettype" : [ "float", "bang" ],
					"htextcolor" : [ 0.870588, 0.870588, 0.870588, 1.0 ],
					"id" : "obj-12",
					"fontname" : "Arial",
					"triscale" : 0.9,
					"fontsize" : 12.0,
					"numinlets" : 1
				}

			}
, 			{
				"box" : 				{
					"maxclass" : "newobj",
					"text" : "geom 20 1.25",
					"numoutlets" : 1,
					"patching_rect" : [ 21.0, 192.0, 159.0, 20.0 ],
					"outlettype" : [ "" ],
					"id" : "obj-13",
					"fontname" : "Arial",
					"fontsize" : 12.0,
					"numinlets" : 3
				}

			}
, 			{
				"box" : 				{
					"maxclass" : "comment",
					"text" : "1993 by Karlheinz Essl, vs. 1.1",
					"numoutlets" : 0,
					"patching_rect" : [ 1.0, 286.0, 147.0, 18.0 ],
					"id" : "obj-9",
					"fontname" : "Arial",
					"fontsize" : 10.0,
					"numinlets" : 1
				}

			}
, 			{
				"box" : 				{
					"maxclass" : "comment",
					"varname" : "autohelp_top_digest",
					"text" : "Transitions",
					"numoutlets" : 0,
					"patching_rect" : [ 1.0, 24.0, 73.0, 21.0 ],
					"textcolor" : [ 0.93, 0.93, 0.97, 1.0 ],
					"id" : "obj-25",
					"fontname" : "Arial",
					"frgb" : [ 0.93, 0.93, 0.97, 1.0 ],
					"fontsize" : 12.754705,
					"numinlets" : 1
				}

			}
, 			{
				"box" : 				{
					"maxclass" : "message",
					"text" : "RTC-Overview",
					"numoutlets" : 1,
					"bgcolor" : [ 0.360784, 0.360784, 0.360784, 1.0 ],
					"patching_rect" : [ 315.0, 27.0, 93.0, 18.0 ],
					"outlettype" : [ "" ],
					"textcolor" : [ 1.0, 1.0, 1.0, 1.0 ],
					"id" : "obj-23",
					"fontname" : "Arial",
					"fontface" : 1,
					"fontsize" : 12.0,
					"numinlets" : 2
				}

			}
, 			{
				"box" : 				{
					"maxclass" : "message",
					"text" : "Toolbox",
					"numoutlets" : 1,
					"bgcolor" : [ 0.360784, 0.360784, 0.360784, 1.0 ],
					"patching_rect" : [ 350.0, 4.0, 57.0, 18.0 ],
					"outlettype" : [ "" ],
					"textcolor" : [ 1.0, 1.0, 1.0, 1.0 ],
					"id" : "obj-38",
					"fontname" : "Arial",
					"fontface" : 1,
					"fontsize" : 12.0,
					"numinlets" : 2
				}

			}
, 			{
				"box" : 				{
					"maxclass" : "newobj",
					"text" : "open-help",
					"numoutlets" : 0,
					"patching_rect" : [ 281.0, 4.0, 52.0, 17.0 ],
					"id" : "obj-2",
					"fontname" : "Arial",
					"hidden" : 1,
					"fontsize" : 9.0,
					"numinlets" : 1
				}

			}
, 			{
				"box" : 				{
					"maxclass" : "comment",
					"text" : "geom",
					"numoutlets" : 0,
					"patching_rect" : [ 2.0, 1.0, 48.0, 23.0 ],
					"textcolor" : [ 1.0, 1.0, 1.0, 1.0 ],
					"id" : "obj-15",
					"fontname" : "Arial",
					"frgb" : [ 1.0, 1.0, 1.0, 1.0 ],
					"fontface" : 3,
					"fontsize" : 14.0,
					"numinlets" : 1
				}

			}
, 			{
				"box" : 				{
					"maxclass" : "comment",
					"text" : "Int in right inlet outputs the nth member of a geometrical row. The other parameters are reference value <int, float> and the proportional factor q <float>.",
					"linecount" : 3,
					"numoutlets" : 0,
					"patching_rect" : [ 1.0, 51.0, 395.0, 48.0 ],
					"id" : "obj-16",
					"fontname" : "Arial",
					"fontsize" : 12.0,
					"numinlets" : 1
				}

			}
, 			{
				"box" : 				{
					"maxclass" : "panel",
					"varname" : "autohelp_top_panel",
					"numoutlets" : 0,
					"background" : 1,
					"patching_rect" : [ 1.0, 0.0, 416.0, 51.0 ],
					"grad1" : [ 0.0, 0.0, 0.0, 1.0 ],
					"rounded" : 0,
					"grad2" : [ 0.85, 0.85, 0.85, 1.0 ],
					"id" : "obj-55",
					"mode" : 1,
					"numinlets" : 1
				}

			}
 ],
		"lines" : [ 			{
				"patchline" : 				{
					"source" : [ "obj-14", 0 ],
					"destination" : [ "obj-2", 0 ],
					"hidden" : 1,
					"midpoints" : [  ]
				}

			}
, 			{
				"patchline" : 				{
					"source" : [ "obj-11", 0 ],
					"destination" : [ "obj-13", 0 ],
					"hidden" : 0,
					"midpoints" : [  ]
				}

			}
, 			{
				"patchline" : 				{
					"source" : [ "obj-13", 0 ],
					"destination" : [ "obj-6", 0 ],
					"hidden" : 0,
					"midpoints" : [  ]
				}

			}
, 			{
				"patchline" : 				{
					"source" : [ "obj-12", 0 ],
					"destination" : [ "obj-13", 1 ],
					"hidden" : 0,
					"midpoints" : [  ]
				}

			}
, 			{
				"patchline" : 				{
					"source" : [ "obj-1", 0 ],
					"destination" : [ "obj-13", 2 ],
					"hidden" : 0,
					"midpoints" : [  ]
				}

			}
, 			{
				"patchline" : 				{
					"source" : [ "obj-38", 0 ],
					"destination" : [ "obj-2", 0 ],
					"hidden" : 1,
					"midpoints" : [  ]
				}

			}
, 			{
				"patchline" : 				{
					"source" : [ "obj-23", 0 ],
					"destination" : [ "obj-2", 0 ],
					"hidden" : 1,
					"midpoints" : [  ]
				}

			}
, 			{
				"patchline" : 				{
					"source" : [ "obj-30", 0 ],
					"destination" : [ "obj-2", 0 ],
					"hidden" : 1,
					"midpoints" : [  ]
				}

			}
, 			{
				"patchline" : 				{
					"source" : [ "obj-29", 0 ],
					"destination" : [ "obj-2", 0 ],
					"hidden" : 1,
					"midpoints" : [  ]
				}

			}
, 			{
				"patchline" : 				{
					"source" : [ "obj-4", 0 ],
					"destination" : [ "obj-2", 0 ],
					"hidden" : 1,
					"midpoints" : [  ]
				}

			}
, 			{
				"patchline" : 				{
					"source" : [ "obj-24", 0 ],
					"destination" : [ "obj-2", 0 ],
					"hidden" : 1,
					"midpoints" : [  ]
				}

			}
 ]
	}

}
