{
	"patcher" : 	{
		"fileversion" : 1,
		"rect" : [ 0.0, 44.0, 416.0, 397.0 ],
		"bglocked" : 0,
		"defrect" : [ 0.0, 44.0, 416.0, 397.0 ],
		"openrect" : [ 0.0, 0.0, 0.0, 0.0 ],
		"openinpresentation" : 0,
		"default_fontsize" : 12.0,
		"default_fontface" : 0,
		"default_fontname" : "Arial",
		"gridonopen" : 0,
		"gridsize" : [ 15.0, 15.0 ],
		"gridsnaponopen" : 0,
		"toolbarvisible" : 1,
		"boxanimatetime" : 200,
		"imprint" : 0,
		"enablehscroll" : 1,
		"enablevscroll" : 1,
		"devicewidth" : 0.0,
		"boxes" : [ 			{
				"box" : 				{
					"maxclass" : "slider",
					"orientation" : 2,
					"numinlets" : 1,
					"numoutlets" : 1,
					"size" : 12.0,
					"patching_rect" : [ 331.0, 229.0, 16.0, 108.0 ],
					"outlettype" : [ "" ],
					"id" : "obj-41"
				}

			}
, 			{
				"box" : 				{
					"maxclass" : "comment",
					"text" : "display",
					"fontsize" : 12.0,
					"numinlets" : 1,
					"numoutlets" : 0,
					"patching_rect" : [ 316.0, 341.0, 50.0, 20.0 ],
					"fontname" : "Arial",
					"id" : "obj-44"
				}

			}
, 			{
				"box" : 				{
					"maxclass" : "comment",
					"text" : "max. ED",
					"fontsize" : 12.0,
					"numinlets" : 1,
					"numoutlets" : 0,
					"patching_rect" : [ 352.0, 230.0, 59.0, 20.0 ],
					"fontname" : "Arial",
					"id" : "obj-47"
				}

			}
, 			{
				"box" : 				{
					"maxclass" : "comment",
					"text" : "min. ED",
					"fontsize" : 12.0,
					"numinlets" : 1,
					"numoutlets" : 0,
					"patching_rect" : [ 352.0, 320.0, 58.0, 20.0 ],
					"fontname" : "Arial",
					"id" : "obj-48"
				}

			}
, 			{
				"box" : 				{
					"maxclass" : "message",
					"text" : "size $1",
					"hidden" : 1,
					"fontsize" : 12.0,
					"numinlets" : 2,
					"numoutlets" : 1,
					"patching_rect" : [ 331.0, 202.0, 53.0, 18.0 ],
					"outlettype" : [ "" ],
					"fontname" : "Arial",
					"id" : "obj-49"
				}

			}
, 			{
				"box" : 				{
					"maxclass" : "newobj",
					"text" : "lb 0.2",
					"hidden" : 1,
					"fontsize" : 12.0,
					"numinlets" : 0,
					"numoutlets" : 1,
					"patching_rect" : [ 244.0, 183.0, 40.0, 20.0 ],
					"outlettype" : [ "" ],
					"fontname" : "Arial",
					"id" : "obj-46"
				}

			}
, 			{
				"box" : 				{
					"maxclass" : "comment",
					"text" : "brown factor",
					"fontsize" : 12.0,
					"numinlets" : 1,
					"numoutlets" : 0,
					"patching_rect" : [ 243.0, 208.0, 77.0, 20.0 ],
					"fontname" : "Arial",
					"id" : "obj-43"
				}

			}
, 			{
				"box" : 				{
					"maxclass" : "flonum",
					"maximum" : 1.0,
					"fontsize" : 12.0,
					"numinlets" : 1,
					"numoutlets" : 2,
					"patching_rect" : [ 244.0, 230.0, 44.0, 20.0 ],
					"outlettype" : [ "float", "bang" ],
					"fontname" : "Arial",
					"id" : "obj-42",
					"minimum" : 0.0
				}

			}
, 			{
				"box" : 				{
					"maxclass" : "newobj",
					"text" : "lb 12",
					"hidden" : 1,
					"fontsize" : 12.0,
					"numinlets" : 0,
					"numoutlets" : 1,
					"patching_rect" : [ 188.0, 183.0, 37.0, 20.0 ],
					"outlettype" : [ "" ],
					"fontname" : "Arial",
					"id" : "obj-40"
				}

			}
, 			{
				"box" : 				{
					"maxclass" : "newobj",
					"text" : "lb 127",
					"hidden" : 1,
					"fontsize" : 12.0,
					"numinlets" : 0,
					"numoutlets" : 1,
					"patching_rect" : [ 55.0, 284.0, 43.0, 20.0 ],
					"outlettype" : [ "" ],
					"fontname" : "Arial",
					"id" : "obj-39"
				}

			}
, 			{
				"box" : 				{
					"maxclass" : "newobj",
					"text" : "lb 1000",
					"hidden" : 1,
					"fontsize" : 12.0,
					"numinlets" : 0,
					"numoutlets" : 1,
					"patching_rect" : [ 132.0, 183.0, 50.0, 20.0 ],
					"outlettype" : [ "" ],
					"fontname" : "Arial",
					"id" : "obj-37"
				}

			}
, 			{
				"box" : 				{
					"maxclass" : "newobj",
					"text" : "lb 100",
					"hidden" : 1,
					"fontsize" : 12.0,
					"numinlets" : 0,
					"numoutlets" : 1,
					"patching_rect" : [ 75.0, 183.0, 43.0, 20.0 ],
					"outlettype" : [ "" ],
					"fontname" : "Arial",
					"id" : "obj-36"
				}

			}
, 			{
				"box" : 				{
					"maxclass" : "newobj",
					"text" : "brown-rhythm 100 1000 12 0.2",
					"fontsize" : 12.0,
					"numinlets" : 5,
					"numoutlets" : 3,
					"patching_rect" : [ 19.0, 257.0, 244.0, 20.0 ],
					"outlettype" : [ "bang", "int", "int" ],
					"fontname" : "Arial",
					"id" : "obj-10"
				}

			}
, 			{
				"box" : 				{
					"maxclass" : "message",
					"text" : "37",
					"fontsize" : 12.0,
					"numinlets" : 2,
					"numoutlets" : 1,
					"patching_rect" : [ 19.0, 284.0, 32.5, 18.0 ],
					"outlettype" : [ "" ],
					"fontname" : "Arial",
					"id" : "obj-11"
				}

			}
, 			{
				"box" : 				{
					"maxclass" : "number",
					"fontsize" : 12.0,
					"numinlets" : 1,
					"numoutlets" : 2,
					"bgcolor" : [ 0.866667, 0.866667, 0.866667, 1.0 ],
					"patching_rect" : [ 75.0, 230.0, 42.0, 20.0 ],
					"outlettype" : [ "int", "bang" ],
					"triscale" : 0.9,
					"fontname" : "Arial",
					"id" : "obj-13",
					"htextcolor" : [ 0.870588, 0.870588, 0.870588, 1.0 ],
					"minimum" : 50
				}

			}
, 			{
				"box" : 				{
					"maxclass" : "comment",
					"text" : "min. ED",
					"fontsize" : 12.0,
					"numinlets" : 1,
					"numoutlets" : 0,
					"patching_rect" : [ 74.0, 208.0, 53.0, 20.0 ],
					"fontname" : "Arial",
					"id" : "obj-14"
				}

			}
, 			{
				"box" : 				{
					"maxclass" : "number",
					"fontsize" : 12.0,
					"numinlets" : 1,
					"numoutlets" : 2,
					"bgcolor" : [ 0.866667, 0.866667, 0.866667, 1.0 ],
					"patching_rect" : [ 132.0, 230.0, 48.0, 20.0 ],
					"outlettype" : [ "int", "bang" ],
					"triscale" : 0.9,
					"fontname" : "Arial",
					"id" : "obj-17",
					"htextcolor" : [ 0.870588, 0.870588, 0.870588, 1.0 ],
					"minimum" : 50
				}

			}
, 			{
				"box" : 				{
					"maxclass" : "comment",
					"text" : "ED-val.",
					"fontsize" : 12.0,
					"numinlets" : 1,
					"numoutlets" : 0,
					"patching_rect" : [ 187.0, 208.0, 50.0, 20.0 ],
					"fontname" : "Arial",
					"id" : "obj-24"
				}

			}
, 			{
				"box" : 				{
					"maxclass" : "number",
					"fontsize" : 12.0,
					"numinlets" : 1,
					"numoutlets" : 2,
					"bgcolor" : [ 0.866667, 0.866667, 0.866667, 1.0 ],
					"patching_rect" : [ 188.0, 230.0, 31.0, 20.0 ],
					"outlettype" : [ "int", "bang" ],
					"triscale" : 0.9,
					"fontname" : "Arial",
					"id" : "obj-26",
					"htextcolor" : [ 0.870588, 0.870588, 0.870588, 1.0 ],
					"minimum" : 2
				}

			}
, 			{
				"box" : 				{
					"maxclass" : "number",
					"triangle" : 0,
					"fontface" : 1,
					"fontsize" : 12.0,
					"numinlets" : 1,
					"numoutlets" : 2,
					"bgcolor" : [ 0.866667, 0.866667, 0.866667, 1.0 ],
					"cantchange" : 1,
					"patching_rect" : [ 244.0, 284.0, 43.0, 20.0 ],
					"outlettype" : [ "int", "bang" ],
					"triscale" : 0.9,
					"fontname" : "Arial",
					"id" : "obj-27",
					"htextcolor" : [ 0.870588, 0.870588, 0.870588, 1.0 ]
				}

			}
, 			{
				"box" : 				{
					"maxclass" : "toggle",
					"numinlets" : 1,
					"numoutlets" : 1,
					"patching_rect" : [ 19.0, 223.0, 22.0, 22.0 ],
					"outlettype" : [ "int" ],
					"id" : "obj-28"
				}

			}
, 			{
				"box" : 				{
					"maxclass" : "number",
					"triangle" : 0,
					"fontface" : 1,
					"fontsize" : 12.0,
					"numinlets" : 1,
					"numoutlets" : 2,
					"bgcolor" : [ 0.866667, 0.866667, 0.866667, 1.0 ],
					"cantchange" : 1,
					"patching_rect" : [ 132.0, 284.0, 24.0, 20.0 ],
					"outlettype" : [ "int", "bang" ],
					"triscale" : 0.9,
					"fontname" : "Arial",
					"id" : "obj-29",
					"htextcolor" : [ 0.870588, 0.870588, 0.870588, 1.0 ],
					"minimum" : 0
				}

			}
, 			{
				"box" : 				{
					"maxclass" : "comment",
					"text" : "ED",
					"fontsize" : 12.0,
					"numinlets" : 1,
					"numoutlets" : 0,
					"patching_rect" : [ 288.0, 285.0, 27.0, 20.0 ],
					"fontname" : "Arial",
					"id" : "obj-30"
				}

			}
, 			{
				"box" : 				{
					"maxclass" : "comment",
					"text" : "row index",
					"fontsize" : 12.0,
					"numinlets" : 1,
					"numoutlets" : 0,
					"patching_rect" : [ 157.0, 285.0, 62.0, 20.0 ],
					"fontname" : "Arial",
					"id" : "obj-31"
				}

			}
, 			{
				"box" : 				{
					"maxclass" : "newobj",
					"text" : "QT-PercPlayer",
					"fontsize" : 12.0,
					"numinlets" : 3,
					"numoutlets" : 0,
					"patching_rect" : [ 19.0, 309.0, 90.0, 20.0 ],
					"fontname" : "Arial",
					"id" : "obj-33"
				}

			}
, 			{
				"box" : 				{
					"maxclass" : "comment",
					"text" : "start/stop",
					"fontsize" : 12.0,
					"numinlets" : 1,
					"numoutlets" : 0,
					"patching_rect" : [ 6.0, 200.0, 58.0, 20.0 ],
					"fontname" : "Arial",
					"id" : "obj-34"
				}

			}
, 			{
				"box" : 				{
					"maxclass" : "comment",
					"text" : "max. ED",
					"fontsize" : 12.0,
					"numinlets" : 1,
					"numoutlets" : 0,
					"patching_rect" : [ 130.0, 208.0, 57.0, 20.0 ],
					"fontname" : "Arial",
					"id" : "obj-35"
				}

			}
, 			{
				"box" : 				{
					"maxclass" : "message",
					"text" : "16step-seq",
					"textcolor" : [ 1.0, 1.0, 1.0, 1.0 ],
					"fontface" : 1,
					"fontsize" : 10.0,
					"numinlets" : 2,
					"numoutlets" : 1,
					"bgcolor" : [ 0.360784, 0.360784, 0.360784, 1.0 ],
					"patching_rect" : [ 272.0, 145.0, 63.0, 16.0 ],
					"outlettype" : [ "" ],
					"fontname" : "Arial",
					"id" : "obj-3"
				}

			}
, 			{
				"box" : 				{
					"maxclass" : "message",
					"text" : "metro-dev%",
					"textcolor" : [ 1.0, 1.0, 1.0, 1.0 ],
					"fontface" : 1,
					"fontsize" : 10.0,
					"numinlets" : 2,
					"numoutlets" : 1,
					"bgcolor" : [ 0.360784, 0.360784, 0.360784, 1.0 ],
					"patching_rect" : [ 317.0, 124.0, 68.0, 16.0 ],
					"outlettype" : [ "" ],
					"fontname" : "Arial",
					"id" : "obj-1"
				}

			}
, 			{
				"box" : 				{
					"maxclass" : "message",
					"text" : "group-rhythm",
					"textcolor" : [ 1.0, 1.0, 1.0, 1.0 ],
					"fontface" : 1,
					"fontsize" : 10.0,
					"numinlets" : 2,
					"numoutlets" : 1,
					"bgcolor" : [ 0.360784, 0.360784, 0.360784, 1.0 ],
					"patching_rect" : [ 13.0, 124.0, 76.0, 16.0 ],
					"outlettype" : [ "" ],
					"fontname" : "Arial",
					"id" : "obj-2"
				}

			}
, 			{
				"box" : 				{
					"maxclass" : "message",
					"text" : "sneak-rhythm",
					"textcolor" : [ 1.0, 1.0, 1.0, 1.0 ],
					"fontface" : 1,
					"fontsize" : 10.0,
					"numinlets" : 2,
					"numoutlets" : 1,
					"bgcolor" : [ 0.360784, 0.360784, 0.360784, 1.0 ],
					"patching_rect" : [ 298.0, 103.0, 76.0, 16.0 ],
					"outlettype" : [ "" ],
					"fontname" : "Arial",
					"id" : "obj-12"
				}

			}
, 			{
				"box" : 				{
					"maxclass" : "message",
					"text" : "serial-rhythm",
					"textcolor" : [ 1.0, 1.0, 1.0, 1.0 ],
					"fontface" : 1,
					"fontsize" : 10.0,
					"numinlets" : 2,
					"numoutlets" : 1,
					"bgcolor" : [ 0.360784, 0.360784, 0.360784, 1.0 ],
					"patching_rect" : [ 136.0, 103.0, 74.0, 16.0 ],
					"outlettype" : [ "" ],
					"fontname" : "Arial",
					"id" : "obj-4"
				}

			}
, 			{
				"box" : 				{
					"maxclass" : "message",
					"text" : "alea-rhythm",
					"textcolor" : [ 1.0, 1.0, 1.0, 1.0 ],
					"fontface" : 1,
					"fontsize" : 10.0,
					"numinlets" : 2,
					"numoutlets" : 1,
					"bgcolor" : [ 0.360784, 0.360784, 0.360784, 1.0 ],
					"patching_rect" : [ 65.0, 103.0, 67.0, 16.0 ],
					"outlettype" : [ "" ],
					"fontname" : "Arial",
					"id" : "obj-6"
				}

			}
, 			{
				"box" : 				{
					"maxclass" : "message",
					"text" : "super-rhythm",
					"textcolor" : [ 1.0, 1.0, 1.0, 1.0 ],
					"fontface" : 1,
					"fontsize" : 10.0,
					"numinlets" : 2,
					"numoutlets" : 1,
					"bgcolor" : [ 0.360784, 0.360784, 0.360784, 1.0 ],
					"patching_rect" : [ 107.0, 145.0, 75.0, 16.0 ],
					"outlettype" : [ "" ],
					"fontname" : "Arial",
					"id" : "obj-7"
				}

			}
, 			{
				"box" : 				{
					"maxclass" : "message",
					"text" : "repchord-rhythm",
					"textcolor" : [ 1.0, 1.0, 1.0, 1.0 ],
					"fontface" : 1,
					"fontsize" : 10.0,
					"numinlets" : 2,
					"numoutlets" : 1,
					"bgcolor" : [ 0.360784, 0.360784, 0.360784, 1.0 ],
					"patching_rect" : [ 13.0, 145.0, 91.0, 16.0 ],
					"outlettype" : [ "" ],
					"fontname" : "Arial",
					"id" : "obj-5"
				}

			}
, 			{
				"box" : 				{
					"maxclass" : "message",
					"text" : "grid-rhythm",
					"textcolor" : [ 1.0, 1.0, 1.0, 1.0 ],
					"fontface" : 1,
					"fontsize" : 10.0,
					"numinlets" : 2,
					"numoutlets" : 1,
					"bgcolor" : [ 0.360784, 0.360784, 0.360784, 1.0 ],
					"patching_rect" : [ 180.0, 124.0, 67.0, 16.0 ],
					"outlettype" : [ "" ],
					"fontname" : "Arial",
					"id" : "obj-18"
				}

			}
, 			{
				"box" : 				{
					"maxclass" : "message",
					"text" : "choice-rhythm",
					"textcolor" : [ 1.0, 1.0, 1.0, 1.0 ],
					"fontface" : 1,
					"fontsize" : 10.0,
					"numinlets" : 2,
					"numoutlets" : 1,
					"bgcolor" : [ 0.360784, 0.360784, 0.360784, 1.0 ],
					"patching_rect" : [ 215.0, 103.0, 79.0, 16.0 ],
					"outlettype" : [ "" ],
					"fontname" : "Arial",
					"id" : "obj-19"
				}

			}
, 			{
				"box" : 				{
					"maxclass" : "message",
					"text" : "ED-rhythm",
					"textcolor" : [ 1.0, 1.0, 1.0, 1.0 ],
					"fontface" : 1,
					"fontsize" : 10.0,
					"numinlets" : 2,
					"numoutlets" : 1,
					"bgcolor" : [ 0.360784, 0.360784, 0.360784, 1.0 ],
					"patching_rect" : [ 251.0, 124.0, 62.0, 16.0 ],
					"outlettype" : [ "" ],
					"fontname" : "Arial",
					"id" : "obj-20"
				}

			}
, 			{
				"box" : 				{
					"maxclass" : "message",
					"text" : "group-rhythm2",
					"textcolor" : [ 1.0, 1.0, 1.0, 1.0 ],
					"fontface" : 1,
					"fontsize" : 10.0,
					"numinlets" : 2,
					"numoutlets" : 1,
					"bgcolor" : [ 0.360784, 0.360784, 0.360784, 1.0 ],
					"patching_rect" : [ 93.0, 124.0, 82.0, 16.0 ],
					"outlettype" : [ "" ],
					"fontname" : "Arial",
					"id" : "obj-21"
				}

			}
, 			{
				"box" : 				{
					"maxclass" : "message",
					"text" : "markov-rhythm",
					"textcolor" : [ 1.0, 1.0, 1.0, 1.0 ],
					"fontface" : 1,
					"fontsize" : 10.0,
					"numinlets" : 2,
					"numoutlets" : 1,
					"bgcolor" : [ 0.360784, 0.360784, 0.360784, 1.0 ],
					"patching_rect" : [ 185.0, 145.0, 83.0, 16.0 ],
					"outlettype" : [ "" ],
					"fontname" : "Arial",
					"id" : "obj-22"
				}

			}
, 			{
				"box" : 				{
					"maxclass" : "newobj",
					"text" : "open-help",
					"hidden" : 1,
					"fontsize" : 9.0,
					"numinlets" : 1,
					"numoutlets" : 0,
					"patching_rect" : [ 257.0, 4.0, 51.0, 17.0 ],
					"fontname" : "Arial",
					"id" : "obj-32"
				}

			}
, 			{
				"box" : 				{
					"maxclass" : "comment",
					"text" : "see also:",
					"fontsize" : 12.0,
					"numinlets" : 1,
					"numoutlets" : 0,
					"patching_rect" : [ 0.0, 100.0, 61.0, 20.0 ],
					"fontname" : "Arial",
					"id" : "obj-8"
				}

			}
, 			{
				"box" : 				{
					"maxclass" : "comment",
					"text" : "1993-94 by Karlheinz Essl, vs. 2.0",
					"fontsize" : 10.0,
					"numinlets" : 1,
					"numoutlets" : 0,
					"patching_rect" : [ 0.0, 357.0, 162.0, 18.0 ],
					"fontname" : "Arial",
					"id" : "obj-9"
				}

			}
, 			{
				"box" : 				{
					"maxclass" : "comment",
					"varname" : "autohelp_top_digest",
					"text" : "Rhythm generator",
					"textcolor" : [ 0.93, 0.93, 0.97, 1.0 ],
					"frgb" : [ 0.93, 0.93, 0.97, 1.0 ],
					"fontsize" : 12.754705,
					"numinlets" : 1,
					"numoutlets" : 0,
					"patching_rect" : [ 0.0, 24.0, 113.0, 21.0 ],
					"fontname" : "Arial",
					"id" : "obj-25"
				}

			}
, 			{
				"box" : 				{
					"maxclass" : "message",
					"text" : "RTC-Overview",
					"textcolor" : [ 1.0, 1.0, 1.0, 1.0 ],
					"fontface" : 1,
					"fontsize" : 12.0,
					"numinlets" : 2,
					"numoutlets" : 1,
					"bgcolor" : [ 0.360784, 0.360784, 0.360784, 1.0 ],
					"patching_rect" : [ 314.0, 27.0, 93.0, 18.0 ],
					"outlettype" : [ "" ],
					"fontname" : "Arial",
					"id" : "obj-23"
				}

			}
, 			{
				"box" : 				{
					"maxclass" : "message",
					"text" : "Rhythm",
					"textcolor" : [ 1.0, 1.0, 1.0, 1.0 ],
					"fontface" : 1,
					"fontsize" : 12.0,
					"numinlets" : 2,
					"numoutlets" : 1,
					"bgcolor" : [ 0.360784, 0.360784, 0.360784, 1.0 ],
					"patching_rect" : [ 352.0, 4.0, 55.0, 18.0 ],
					"outlettype" : [ "" ],
					"fontname" : "Arial",
					"id" : "obj-38"
				}

			}
, 			{
				"box" : 				{
					"maxclass" : "comment",
					"text" : "brown-rhythm",
					"textcolor" : [ 1.0, 1.0, 1.0, 1.0 ],
					"frgb" : [ 1.0, 1.0, 1.0, 1.0 ],
					"fontface" : 3,
					"fontsize" : 14.0,
					"numinlets" : 1,
					"numoutlets" : 0,
					"patching_rect" : [ 0.0, 1.0, 105.0, 23.0 ],
					"fontname" : "Arial",
					"id" : "obj-15"
				}

			}
, 			{
				"box" : 				{
					"maxclass" : "comment",
					"text" : "Serial permutation (i.e. with repetition check) of entry delays (ED) from a geometrical row defined by a min. ED, a max. ED and a certain number of ED-values.",
					"linecount" : 3,
					"fontsize" : 12.0,
					"numinlets" : 1,
					"numoutlets" : 0,
					"patching_rect" : [ 0.0, 51.0, 388.0, 48.0 ],
					"fontname" : "Arial",
					"id" : "obj-16"
				}

			}
, 			{
				"box" : 				{
					"maxclass" : "panel",
					"varname" : "autohelp_top_panel",
					"rounded" : 0,
					"grad2" : [ 0.85, 0.85, 0.85, 1.0 ],
					"mode" : 1,
					"numinlets" : 1,
					"background" : 1,
					"numoutlets" : 0,
					"patching_rect" : [ 0.0, 0.0, 416.0, 51.0 ],
					"grad1" : [ 0.0, 0.0, 0.0, 1.0 ],
					"id" : "obj-55"
				}

			}
 ],
		"lines" : [ 			{
				"patchline" : 				{
					"source" : [ "obj-29", 0 ],
					"destination" : [ "obj-41", 0 ],
					"hidden" : 1,
					"midpoints" : [  ]
				}

			}
, 			{
				"patchline" : 				{
					"source" : [ "obj-26", 0 ],
					"destination" : [ "obj-49", 0 ],
					"hidden" : 1,
					"midpoints" : [  ]
				}

			}
, 			{
				"patchline" : 				{
					"source" : [ "obj-49", 0 ],
					"destination" : [ "obj-41", 0 ],
					"hidden" : 1,
					"midpoints" : [  ]
				}

			}
, 			{
				"patchline" : 				{
					"source" : [ "obj-11", 0 ],
					"destination" : [ "obj-33", 0 ],
					"hidden" : 0,
					"midpoints" : [  ]
				}

			}
, 			{
				"patchline" : 				{
					"source" : [ "obj-36", 0 ],
					"destination" : [ "obj-13", 0 ],
					"hidden" : 1,
					"midpoints" : [  ]
				}

			}
, 			{
				"patchline" : 				{
					"source" : [ "obj-37", 0 ],
					"destination" : [ "obj-17", 0 ],
					"hidden" : 1,
					"midpoints" : [  ]
				}

			}
, 			{
				"patchline" : 				{
					"source" : [ "obj-3", 0 ],
					"destination" : [ "obj-32", 0 ],
					"hidden" : 1,
					"midpoints" : [  ]
				}

			}
, 			{
				"patchline" : 				{
					"source" : [ "obj-22", 0 ],
					"destination" : [ "obj-32", 0 ],
					"hidden" : 1,
					"midpoints" : [  ]
				}

			}
, 			{
				"patchline" : 				{
					"source" : [ "obj-7", 0 ],
					"destination" : [ "obj-32", 0 ],
					"hidden" : 1,
					"midpoints" : [  ]
				}

			}
, 			{
				"patchline" : 				{
					"source" : [ "obj-5", 0 ],
					"destination" : [ "obj-32", 0 ],
					"hidden" : 1,
					"midpoints" : [  ]
				}

			}
, 			{
				"patchline" : 				{
					"source" : [ "obj-1", 0 ],
					"destination" : [ "obj-32", 0 ],
					"hidden" : 1,
					"midpoints" : [  ]
				}

			}
, 			{
				"patchline" : 				{
					"source" : [ "obj-20", 0 ],
					"destination" : [ "obj-32", 0 ],
					"hidden" : 1,
					"midpoints" : [  ]
				}

			}
, 			{
				"patchline" : 				{
					"source" : [ "obj-18", 0 ],
					"destination" : [ "obj-32", 0 ],
					"hidden" : 1,
					"midpoints" : [  ]
				}

			}
, 			{
				"patchline" : 				{
					"source" : [ "obj-21", 0 ],
					"destination" : [ "obj-32", 0 ],
					"hidden" : 1,
					"midpoints" : [  ]
				}

			}
, 			{
				"patchline" : 				{
					"source" : [ "obj-2", 0 ],
					"destination" : [ "obj-32", 0 ],
					"hidden" : 1,
					"midpoints" : [  ]
				}

			}
, 			{
				"patchline" : 				{
					"source" : [ "obj-12", 0 ],
					"destination" : [ "obj-32", 0 ],
					"hidden" : 1,
					"midpoints" : [  ]
				}

			}
, 			{
				"patchline" : 				{
					"source" : [ "obj-19", 0 ],
					"destination" : [ "obj-32", 0 ],
					"hidden" : 1,
					"midpoints" : [  ]
				}

			}
, 			{
				"patchline" : 				{
					"source" : [ "obj-4", 0 ],
					"destination" : [ "obj-32", 0 ],
					"hidden" : 1,
					"midpoints" : [  ]
				}

			}
, 			{
				"patchline" : 				{
					"source" : [ "obj-6", 0 ],
					"destination" : [ "obj-32", 0 ],
					"hidden" : 1,
					"midpoints" : [  ]
				}

			}
, 			{
				"patchline" : 				{
					"source" : [ "obj-23", 0 ],
					"destination" : [ "obj-32", 0 ],
					"hidden" : 1,
					"midpoints" : [  ]
				}

			}
, 			{
				"patchline" : 				{
					"source" : [ "obj-38", 0 ],
					"destination" : [ "obj-32", 0 ],
					"hidden" : 1,
					"midpoints" : [  ]
				}

			}
, 			{
				"patchline" : 				{
					"source" : [ "obj-39", 0 ],
					"destination" : [ "obj-33", 1 ],
					"hidden" : 1,
					"midpoints" : [  ]
				}

			}
, 			{
				"patchline" : 				{
					"source" : [ "obj-40", 0 ],
					"destination" : [ "obj-26", 0 ],
					"hidden" : 1,
					"midpoints" : [  ]
				}

			}
, 			{
				"patchline" : 				{
					"source" : [ "obj-46", 0 ],
					"destination" : [ "obj-42", 0 ],
					"hidden" : 1,
					"midpoints" : [  ]
				}

			}
, 			{
				"patchline" : 				{
					"source" : [ "obj-42", 0 ],
					"destination" : [ "obj-10", 4 ],
					"hidden" : 0,
					"midpoints" : [  ]
				}

			}
, 			{
				"patchline" : 				{
					"source" : [ "obj-10", 2 ],
					"destination" : [ "obj-27", 0 ],
					"hidden" : 0,
					"midpoints" : [  ]
				}

			}
, 			{
				"patchline" : 				{
					"source" : [ "obj-26", 0 ],
					"destination" : [ "obj-10", 3 ],
					"hidden" : 0,
					"midpoints" : [  ]
				}

			}
, 			{
				"patchline" : 				{
					"source" : [ "obj-17", 0 ],
					"destination" : [ "obj-10", 2 ],
					"hidden" : 0,
					"midpoints" : [  ]
				}

			}
, 			{
				"patchline" : 				{
					"source" : [ "obj-10", 1 ],
					"destination" : [ "obj-29", 0 ],
					"hidden" : 0,
					"midpoints" : [  ]
				}

			}
, 			{
				"patchline" : 				{
					"source" : [ "obj-13", 0 ],
					"destination" : [ "obj-10", 1 ],
					"hidden" : 0,
					"midpoints" : [  ]
				}

			}
, 			{
				"patchline" : 				{
					"source" : [ "obj-10", 0 ],
					"destination" : [ "obj-11", 0 ],
					"hidden" : 0,
					"midpoints" : [  ]
				}

			}
, 			{
				"patchline" : 				{
					"source" : [ "obj-28", 0 ],
					"destination" : [ "obj-10", 0 ],
					"hidden" : 0,
					"midpoints" : [  ]
				}

			}
 ]
	}

}
