{
	"patcher" : 	{
		"fileversion" : 1,
		"rect" : [ 0.0, 44.0, 416.0, 397.0 ],
		"bglocked" : 0,
		"defrect" : [ 0.0, 44.0, 416.0, 397.0 ],
		"openrect" : [ 0.0, 0.0, 0.0, 0.0 ],
		"openinpresentation" : 0,
		"default_fontsize" : 12.0,
		"default_fontface" : 0,
		"default_fontname" : "Arial",
		"gridonopen" : 0,
		"gridsize" : [ 15.0, 15.0 ],
		"gridsnaponopen" : 0,
		"toolbarvisible" : 1,
		"boxanimatetime" : 200,
		"imprint" : 0,
		"enablehscroll" : 1,
		"enablevscroll" : 1,
		"devicewidth" : 0.0,
		"boxes" : [ 			{
				"box" : 				{
					"maxclass" : "message",
					"text" : "countdown",
					"presentation_rect" : [ 110.0, 104.0, 0.0, 0.0 ],
					"fontface" : 1,
					"patching_rect" : [ 110.0, 104.0, 64.0, 16.0 ],
					"fontsize" : 10.0,
					"id" : "obj-22",
					"numinlets" : 2,
					"textcolor" : [ 1.0, 1.0, 1.0, 1.0 ],
					"bgcolor2" : [ 0.858824, 0.858824, 0.858824, 1.0 ],
					"numoutlets" : 1,
					"bgcolor" : [ 0.360784, 0.360784, 0.360784, 1.0 ],
					"outlettype" : [ "" ],
					"fontname" : "Arial"
				}

			}
, 			{
				"box" : 				{
					"maxclass" : "newobj",
					"text" : "lb 300",
					"hidden" : 1,
					"patching_rect" : [ 265.0, 201.0, 43.0, 20.0 ],
					"fontsize" : 12.0,
					"id" : "obj-21",
					"numinlets" : 0,
					"numoutlets" : 1,
					"outlettype" : [ "" ],
					"fontname" : "Arial"
				}

			}
, 			{
				"box" : 				{
					"maxclass" : "newobj",
					"text" : "lb 75",
					"hidden" : 1,
					"patching_rect" : [ 179.0, 201.0, 37.0, 20.0 ],
					"fontsize" : 12.0,
					"id" : "obj-7",
					"numinlets" : 0,
					"numoutlets" : 1,
					"outlettype" : [ "" ],
					"fontname" : "Arial"
				}

			}
, 			{
				"box" : 				{
					"maxclass" : "message",
					"text" : "1237",
					"patching_rect" : [ 97.0, 148.0, 37.0, 18.0 ],
					"fontsize" : 12.0,
					"id" : "obj-6",
					"numinlets" : 2,
					"numoutlets" : 1,
					"outlettype" : [ "" ],
					"fontname" : "Arial"
				}

			}
, 			{
				"box" : 				{
					"maxclass" : "message",
					"text" : "stop",
					"patching_rect" : [ 2.0, 201.0, 33.0, 18.0 ],
					"fontsize" : 12.0,
					"id" : "obj-1",
					"numinlets" : 2,
					"numoutlets" : 1,
					"outlettype" : [ "" ],
					"fontname" : "Arial"
				}

			}
, 			{
				"box" : 				{
					"maxclass" : "message",
					"text" : "37",
					"patching_rect" : [ 54.0, 260.0, 32.5, 18.0 ],
					"fontsize" : 12.0,
					"id" : "obj-2",
					"numinlets" : 2,
					"numoutlets" : 1,
					"outlettype" : [ "" ],
					"fontname" : "Arial"
				}

			}
, 			{
				"box" : 				{
					"maxclass" : "newobj",
					"text" : "ED-trans 75 300",
					"patching_rect" : [ 54.0, 230.0, 186.0, 20.0 ],
					"fontsize" : 12.0,
					"id" : "obj-3",
					"numinlets" : 3,
					"numoutlets" : 2,
					"outlettype" : [ "bang", "int" ],
					"fontname" : "Arial"
				}

			}
, 			{
				"box" : 				{
					"maxclass" : "number",
					"triscale" : 0.9,
					"patching_rect" : [ 54.0, 201.0, 52.0, 20.0 ],
					"fontsize" : 12.0,
					"id" : "obj-11",
					"numinlets" : 1,
					"minimum" : 250,
					"numoutlets" : 2,
					"mouseup" : 1,
					"bgcolor" : [ 0.866667, 0.866667, 0.866667, 1.0 ],
					"outlettype" : [ "int", "bang" ],
					"fontname" : "Arial",
					"htextcolor" : [ 0.870588, 0.870588, 0.870588, 1.0 ]
				}

			}
, 			{
				"box" : 				{
					"maxclass" : "message",
					"text" : "5000",
					"patching_rect" : [ 54.0, 148.0, 37.0, 18.0 ],
					"fontsize" : 12.0,
					"id" : "obj-12",
					"numinlets" : 2,
					"numoutlets" : 1,
					"outlettype" : [ "" ],
					"fontname" : "Arial"
				}

			}
, 			{
				"box" : 				{
					"maxclass" : "comment",
					"text" : "transition time",
					"patching_rect" : [ 137.0, 148.0, 85.0, 20.0 ],
					"fontsize" : 12.0,
					"id" : "obj-13",
					"numinlets" : 1,
					"numoutlets" : 0,
					"fontname" : "Arial"
				}

			}
, 			{
				"box" : 				{
					"maxclass" : "comment",
					"text" : "end ED",
					"patching_rect" : [ 221.0, 180.0, 51.0, 20.0 ],
					"fontsize" : 12.0,
					"id" : "obj-14",
					"numinlets" : 1,
					"numoutlets" : 0,
					"fontname" : "Arial"
				}

			}
, 			{
				"box" : 				{
					"maxclass" : "number",
					"triscale" : 0.9,
					"patching_rect" : [ 221.0, 201.0, 43.0, 20.0 ],
					"fontsize" : 12.0,
					"id" : "obj-4",
					"numinlets" : 1,
					"minimum" : 50,
					"numoutlets" : 2,
					"bgcolor" : [ 0.866667, 0.866667, 0.866667, 1.0 ],
					"outlettype" : [ "int", "bang" ],
					"fontname" : "Arial",
					"htextcolor" : [ 0.870588, 0.870588, 0.870588, 1.0 ]
				}

			}
, 			{
				"box" : 				{
					"maxclass" : "comment",
					"text" : "start ED",
					"patching_rect" : [ 137.0, 180.0, 54.0, 20.0 ],
					"fontsize" : 12.0,
					"id" : "obj-5",
					"numinlets" : 1,
					"numoutlets" : 0,
					"fontname" : "Arial"
				}

			}
, 			{
				"box" : 				{
					"maxclass" : "number",
					"triscale" : 0.9,
					"patching_rect" : [ 138.0, 201.0, 39.0, 20.0 ],
					"fontsize" : 12.0,
					"id" : "obj-17",
					"numinlets" : 1,
					"minimum" : 50,
					"numoutlets" : 2,
					"bgcolor" : [ 0.866667, 0.866667, 0.866667, 1.0 ],
					"outlettype" : [ "int", "bang" ],
					"fontname" : "Arial",
					"htextcolor" : [ 0.870588, 0.870588, 0.870588, 1.0 ]
				}

			}
, 			{
				"box" : 				{
					"maxclass" : "number",
					"cantchange" : 1,
					"triscale" : 0.9,
					"fontface" : 1,
					"patching_rect" : [ 221.0, 260.0, 38.0, 20.0 ],
					"fontsize" : 12.0,
					"id" : "obj-18",
					"numinlets" : 1,
					"triangle" : 0,
					"numoutlets" : 2,
					"bgcolor" : [ 0.866667, 0.866667, 0.866667, 1.0 ],
					"outlettype" : [ "int", "bang" ],
					"fontname" : "Arial",
					"htextcolor" : [ 0.870588, 0.870588, 0.870588, 1.0 ]
				}

			}
, 			{
				"box" : 				{
					"maxclass" : "newobj",
					"text" : "QT-PercPlayer",
					"patching_rect" : [ 54.0, 290.0, 90.0, 20.0 ],
					"fontsize" : 12.0,
					"id" : "obj-19",
					"numinlets" : 3,
					"numoutlets" : 0,
					"fontname" : "Arial"
				}

			}
, 			{
				"box" : 				{
					"maxclass" : "comment",
					"text" : "ED",
					"patching_rect" : [ 258.0, 260.0, 27.0, 20.0 ],
					"fontsize" : 12.0,
					"id" : "obj-20",
					"numinlets" : 1,
					"numoutlets" : 0,
					"fontname" : "Arial"
				}

			}
, 			{
				"box" : 				{
					"maxclass" : "message",
					"text" : "rit-acc",
					"fontface" : 1,
					"patching_rect" : [ 65.0, 104.0, 41.0, 16.0 ],
					"fontsize" : 10.0,
					"id" : "obj-10",
					"numinlets" : 2,
					"textcolor" : [ 1.0, 1.0, 1.0, 1.0 ],
					"bgcolor2" : [ 0.858824, 0.858824, 0.858824, 1.0 ],
					"numoutlets" : 1,
					"bgcolor" : [ 0.360784, 0.360784, 0.360784, 1.0 ],
					"outlettype" : [ "" ],
					"fontname" : "Arial"
				}

			}
, 			{
				"box" : 				{
					"maxclass" : "newobj",
					"text" : "open-help",
					"hidden" : 1,
					"patching_rect" : [ 257.0, 4.0, 51.0, 17.0 ],
					"fontsize" : 9.0,
					"id" : "obj-32",
					"numinlets" : 1,
					"numoutlets" : 0,
					"fontname" : "Arial"
				}

			}
, 			{
				"box" : 				{
					"maxclass" : "comment",
					"text" : "see also:",
					"patching_rect" : [ 0.0, 101.0, 61.0, 20.0 ],
					"fontsize" : 12.0,
					"id" : "obj-8",
					"numinlets" : 1,
					"numoutlets" : 0,
					"fontname" : "Arial"
				}

			}
, 			{
				"box" : 				{
					"maxclass" : "comment",
					"text" : "1993-97 by Karlheinz Essl, vs.1.2",
					"patching_rect" : [ 0.0, 357.0, 159.0, 18.0 ],
					"fontsize" : 10.0,
					"id" : "obj-9",
					"numinlets" : 1,
					"numoutlets" : 0,
					"fontname" : "Arial"
				}

			}
, 			{
				"box" : 				{
					"maxclass" : "comment",
					"varname" : "autohelp_top_digest",
					"text" : "Transition",
					"frgb" : [ 0.93, 0.93, 0.97, 1.0 ],
					"patching_rect" : [ 0.0, 24.0, 67.0, 21.0 ],
					"fontsize" : 12.754705,
					"id" : "obj-25",
					"numinlets" : 1,
					"textcolor" : [ 0.93, 0.93, 0.97, 1.0 ],
					"numoutlets" : 0,
					"fontname" : "Arial"
				}

			}
, 			{
				"box" : 				{
					"maxclass" : "message",
					"text" : "RTC-Overview",
					"fontface" : 1,
					"patching_rect" : [ 314.0, 27.0, 93.0, 18.0 ],
					"fontsize" : 12.0,
					"id" : "obj-23",
					"numinlets" : 2,
					"textcolor" : [ 1.0, 1.0, 1.0, 1.0 ],
					"numoutlets" : 1,
					"bgcolor" : [ 0.360784, 0.360784, 0.360784, 1.0 ],
					"outlettype" : [ "" ],
					"fontname" : "Arial"
				}

			}
, 			{
				"box" : 				{
					"maxclass" : "message",
					"text" : "Rhythm",
					"fontface" : 1,
					"patching_rect" : [ 352.0, 4.0, 55.0, 18.0 ],
					"fontsize" : 12.0,
					"id" : "obj-38",
					"numinlets" : 2,
					"textcolor" : [ 1.0, 1.0, 1.0, 1.0 ],
					"numoutlets" : 1,
					"bgcolor" : [ 0.360784, 0.360784, 0.360784, 1.0 ],
					"outlettype" : [ "" ],
					"fontname" : "Arial"
				}

			}
, 			{
				"box" : 				{
					"maxclass" : "comment",
					"text" : "ED-trans",
					"frgb" : [ 1.0, 1.0, 1.0, 1.0 ],
					"fontface" : 3,
					"patching_rect" : [ 0.0, 1.0, 69.0, 23.0 ],
					"fontsize" : 14.0,
					"id" : "obj-15",
					"numinlets" : 1,
					"textcolor" : [ 1.0, 1.0, 1.0, 1.0 ],
					"numoutlets" : 0,
					"fontname" : "Arial"
				}

			}
, 			{
				"box" : 				{
					"maxclass" : "comment",
					"text" : "Generates a transition between two entry delays (ED) within a certain time span producing either a ritardando or an accelerando. A number (= time in ms) sent to the leftmost inlet starts the process.",
					"linecount" : 3,
					"patching_rect" : [ 0.0, 51.0, 410.0, 48.0 ],
					"fontsize" : 12.0,
					"id" : "obj-16",
					"numinlets" : 1,
					"numoutlets" : 0,
					"fontname" : "Arial"
				}

			}
, 			{
				"box" : 				{
					"maxclass" : "panel",
					"varname" : "autohelp_top_panel",
					"mode" : 1,
					"patching_rect" : [ 0.0, 0.0, 416.0, 51.0 ],
					"id" : "obj-55",
					"rounded" : 0,
					"numinlets" : 1,
					"grad1" : [ 0.0, 0.0, 0.0, 1.0 ],
					"background" : 1,
					"numoutlets" : 0,
					"grad2" : [ 0.85, 0.85, 0.85, 1.0 ]
				}

			}
 ],
		"lines" : [ 			{
				"patchline" : 				{
					"source" : [ "obj-22", 0 ],
					"destination" : [ "obj-32", 0 ],
					"hidden" : 1,
					"midpoints" : [  ]
				}

			}
, 			{
				"patchline" : 				{
					"source" : [ "obj-10", 0 ],
					"destination" : [ "obj-32", 0 ],
					"hidden" : 1,
					"midpoints" : [  ]
				}

			}
, 			{
				"patchline" : 				{
					"source" : [ "obj-38", 0 ],
					"destination" : [ "obj-32", 0 ],
					"hidden" : 1,
					"midpoints" : [  ]
				}

			}
, 			{
				"patchline" : 				{
					"source" : [ "obj-23", 0 ],
					"destination" : [ "obj-32", 0 ],
					"hidden" : 1,
					"midpoints" : [  ]
				}

			}
, 			{
				"patchline" : 				{
					"source" : [ "obj-2", 0 ],
					"destination" : [ "obj-19", 0 ],
					"hidden" : 0,
					"midpoints" : [  ]
				}

			}
, 			{
				"patchline" : 				{
					"source" : [ "obj-12", 0 ],
					"destination" : [ "obj-11", 0 ],
					"hidden" : 0,
					"midpoints" : [  ]
				}

			}
, 			{
				"patchline" : 				{
					"source" : [ "obj-11", 0 ],
					"destination" : [ "obj-3", 0 ],
					"hidden" : 0,
					"midpoints" : [  ]
				}

			}
, 			{
				"patchline" : 				{
					"source" : [ "obj-1", 0 ],
					"destination" : [ "obj-3", 0 ],
					"hidden" : 0,
					"midpoints" : [ 11.5, 225.0, 63.5, 225.0 ]
				}

			}
, 			{
				"patchline" : 				{
					"source" : [ "obj-3", 0 ],
					"destination" : [ "obj-2", 0 ],
					"hidden" : 0,
					"midpoints" : [  ]
				}

			}
, 			{
				"patchline" : 				{
					"source" : [ "obj-17", 0 ],
					"destination" : [ "obj-3", 1 ],
					"hidden" : 0,
					"midpoints" : [  ]
				}

			}
, 			{
				"patchline" : 				{
					"source" : [ "obj-4", 0 ],
					"destination" : [ "obj-3", 2 ],
					"hidden" : 0,
					"midpoints" : [  ]
				}

			}
, 			{
				"patchline" : 				{
					"source" : [ "obj-3", 1 ],
					"destination" : [ "obj-18", 0 ],
					"hidden" : 0,
					"midpoints" : [  ]
				}

			}
, 			{
				"patchline" : 				{
					"source" : [ "obj-6", 0 ],
					"destination" : [ "obj-11", 0 ],
					"hidden" : 0,
					"midpoints" : [ 106.5, 183.0, 63.5, 183.0 ]
				}

			}
, 			{
				"patchline" : 				{
					"source" : [ "obj-7", 0 ],
					"destination" : [ "obj-17", 0 ],
					"hidden" : 1,
					"midpoints" : [  ]
				}

			}
, 			{
				"patchline" : 				{
					"source" : [ "obj-21", 0 ],
					"destination" : [ "obj-4", 0 ],
					"hidden" : 1,
					"midpoints" : [  ]
				}

			}
 ]
	}

}
