{
	"patcher" : 	{
		"fileversion" : 1,
		"rect" : [ 0.0, 44.0, 416.0, 398.0 ],
		"bglocked" : 0,
		"defrect" : [ 0.0, 44.0, 416.0, 398.0 ],
		"openrect" : [ 0.0, 0.0, 0.0, 0.0 ],
		"openinpresentation" : 0,
		"default_fontsize" : 12.0,
		"default_fontface" : 0,
		"default_fontname" : "Arial",
		"gridonopen" : 0,
		"gridsize" : [ 15.0, 15.0 ],
		"gridsnaponopen" : 0,
		"toolbarvisible" : 1,
		"boxanimatetime" : 200,
		"imprint" : 0,
		"enablehscroll" : 1,
		"enablevscroll" : 1,
		"devicewidth" : 0.0,
		"boxes" : [ 			{
				"box" : 				{
					"maxclass" : "comment",
					"text" : "group list",
					"fontsize" : 12.0,
					"numinlets" : 1,
					"numoutlets" : 0,
					"patching_rect" : [ 265.0, 199.0, 59.0, 20.0 ],
					"fontname" : "Arial",
					"id" : "obj-13"
				}

			}
, 			{
				"box" : 				{
					"maxclass" : "message",
					"text" : "100 200 400 800",
					"fontsize" : 12.0,
					"numinlets" : 2,
					"numoutlets" : 1,
					"patching_rect" : [ 154.0, 220.0, 101.0, 18.0 ],
					"outlettype" : [ "" ],
					"fontname" : "Arial",
					"id" : "obj-14"
				}

			}
, 			{
				"box" : 				{
					"maxclass" : "newobj",
					"text" : "loadbang",
					"hidden" : 1,
					"fontsize" : 12.0,
					"numinlets" : 1,
					"numoutlets" : 1,
					"patching_rect" : [ 154.0, 176.0, 60.0, 20.0 ],
					"outlettype" : [ "bang" ],
					"fontname" : "Arial",
					"id" : "obj-17"
				}

			}
, 			{
				"box" : 				{
					"maxclass" : "message",
					"text" : "8 5 3 2",
					"fontsize" : 12.0,
					"numinlets" : 2,
					"numoutlets" : 1,
					"patching_rect" : [ 266.0, 220.0, 47.0, 18.0 ],
					"outlettype" : [ "" ],
					"fontname" : "Arial",
					"id" : "obj-24"
				}

			}
, 			{
				"box" : 				{
					"maxclass" : "comment",
					"text" : "ED list",
					"fontsize" : 12.0,
					"numinlets" : 1,
					"numoutlets" : 0,
					"patching_rect" : [ 152.0, 199.0, 45.0, 20.0 ],
					"fontname" : "Arial",
					"id" : "obj-26"
				}

			}
, 			{
				"box" : 				{
					"maxclass" : "newobj",
					"text" : "lb 127",
					"hidden" : 1,
					"fontsize" : 12.0,
					"numinlets" : 0,
					"numoutlets" : 1,
					"patching_rect" : [ 77.0, 281.0, 43.0, 20.0 ],
					"outlettype" : [ "" ],
					"fontname" : "Arial",
					"id" : "obj-39"
				}

			}
, 			{
				"box" : 				{
					"maxclass" : "newobj",
					"text" : "group-rhythm2",
					"fontsize" : 12.0,
					"numinlets" : 3,
					"numoutlets" : 3,
					"patching_rect" : [ 41.0, 254.0, 244.0, 20.0 ],
					"outlettype" : [ "bang", "int", "" ],
					"fontname" : "Arial",
					"id" : "obj-10"
				}

			}
, 			{
				"box" : 				{
					"maxclass" : "message",
					"text" : "37",
					"fontsize" : 12.0,
					"numinlets" : 2,
					"numoutlets" : 1,
					"patching_rect" : [ 41.0, 281.0, 32.5, 18.0 ],
					"outlettype" : [ "" ],
					"fontname" : "Arial",
					"id" : "obj-11"
				}

			}
, 			{
				"box" : 				{
					"maxclass" : "number",
					"triangle" : 0,
					"fontface" : 1,
					"fontsize" : 12.0,
					"numinlets" : 1,
					"numoutlets" : 2,
					"bgcolor" : [ 0.866667, 0.866667, 0.866667, 1.0 ],
					"cantchange" : 1,
					"patching_rect" : [ 154.0, 281.0, 43.0, 20.0 ],
					"outlettype" : [ "int", "bang" ],
					"triscale" : 0.9,
					"fontname" : "Arial",
					"id" : "obj-27",
					"htextcolor" : [ 0.870588, 0.870588, 0.870588, 1.0 ]
				}

			}
, 			{
				"box" : 				{
					"maxclass" : "toggle",
					"numinlets" : 1,
					"numoutlets" : 1,
					"patching_rect" : [ 41.0, 220.0, 22.0, 22.0 ],
					"outlettype" : [ "int" ],
					"id" : "obj-28"
				}

			}
, 			{
				"box" : 				{
					"maxclass" : "number",
					"triangle" : 0,
					"fontface" : 1,
					"fontsize" : 12.0,
					"numinlets" : 1,
					"numoutlets" : 2,
					"bgcolor" : [ 0.866667, 0.866667, 0.866667, 1.0 ],
					"cantchange" : 1,
					"patching_rect" : [ 266.0, 281.0, 24.0, 20.0 ],
					"outlettype" : [ "int", "bang" ],
					"triscale" : 0.9,
					"fontname" : "Arial",
					"id" : "obj-29",
					"htextcolor" : [ 0.870588, 0.870588, 0.870588, 1.0 ],
					"minimum" : 0
				}

			}
, 			{
				"box" : 				{
					"maxclass" : "comment",
					"text" : "ED",
					"fontsize" : 12.0,
					"numinlets" : 1,
					"numoutlets" : 0,
					"patching_rect" : [ 198.0, 281.0, 27.0, 20.0 ],
					"fontname" : "Arial",
					"id" : "obj-30"
				}

			}
, 			{
				"box" : 				{
					"maxclass" : "comment",
					"text" : "group size",
					"fontsize" : 12.0,
					"numinlets" : 1,
					"numoutlets" : 0,
					"patching_rect" : [ 292.0, 280.0, 66.0, 20.0 ],
					"fontname" : "Arial",
					"id" : "obj-31"
				}

			}
, 			{
				"box" : 				{
					"maxclass" : "newobj",
					"text" : "QT-PercPlayer",
					"fontsize" : 12.0,
					"numinlets" : 3,
					"numoutlets" : 0,
					"patching_rect" : [ 41.0, 306.0, 90.0, 20.0 ],
					"fontname" : "Arial",
					"id" : "obj-33"
				}

			}
, 			{
				"box" : 				{
					"maxclass" : "comment",
					"text" : "start/stop",
					"fontsize" : 12.0,
					"numinlets" : 1,
					"numoutlets" : 0,
					"patching_rect" : [ 28.0, 197.0, 58.0, 20.0 ],
					"fontname" : "Arial",
					"id" : "obj-34"
				}

			}
, 			{
				"box" : 				{
					"maxclass" : "message",
					"text" : "16step-seq",
					"textcolor" : [ 1.0, 1.0, 1.0, 1.0 ],
					"fontface" : 1,
					"fontsize" : 10.0,
					"numinlets" : 2,
					"numoutlets" : 1,
					"bgcolor" : [ 0.360784, 0.360784, 0.360784, 1.0 ],
					"patching_rect" : [ 272.0, 159.0, 63.0, 16.0 ],
					"outlettype" : [ "" ],
					"fontname" : "Arial",
					"id" : "obj-3"
				}

			}
, 			{
				"box" : 				{
					"maxclass" : "message",
					"text" : "metro-dev%",
					"textcolor" : [ 1.0, 1.0, 1.0, 1.0 ],
					"fontface" : 1,
					"fontsize" : 10.0,
					"numinlets" : 2,
					"numoutlets" : 1,
					"bgcolor" : [ 0.360784, 0.360784, 0.360784, 1.0 ],
					"patching_rect" : [ 315.0, 138.0, 68.0, 16.0 ],
					"outlettype" : [ "" ],
					"fontname" : "Arial",
					"id" : "obj-1"
				}

			}
, 			{
				"box" : 				{
					"maxclass" : "message",
					"text" : "brown-rhythm",
					"textcolor" : [ 1.0, 1.0, 1.0, 1.0 ],
					"fontface" : 1,
					"fontsize" : 10.0,
					"numinlets" : 2,
					"numoutlets" : 1,
					"bgcolor" : [ 0.360784, 0.360784, 0.360784, 1.0 ],
					"patching_rect" : [ 13.0, 138.0, 78.0, 16.0 ],
					"outlettype" : [ "" ],
					"fontname" : "Arial",
					"id" : "obj-2"
				}

			}
, 			{
				"box" : 				{
					"maxclass" : "message",
					"text" : "sneak-rhythm",
					"textcolor" : [ 1.0, 1.0, 1.0, 1.0 ],
					"fontface" : 1,
					"fontsize" : 10.0,
					"numinlets" : 2,
					"numoutlets" : 1,
					"bgcolor" : [ 0.360784, 0.360784, 0.360784, 1.0 ],
					"patching_rect" : [ 298.0, 117.0, 76.0, 16.0 ],
					"outlettype" : [ "" ],
					"fontname" : "Arial",
					"id" : "obj-12"
				}

			}
, 			{
				"box" : 				{
					"maxclass" : "message",
					"text" : "serial-rhythm",
					"textcolor" : [ 1.0, 1.0, 1.0, 1.0 ],
					"fontface" : 1,
					"fontsize" : 10.0,
					"numinlets" : 2,
					"numoutlets" : 1,
					"bgcolor" : [ 0.360784, 0.360784, 0.360784, 1.0 ],
					"patching_rect" : [ 136.0, 117.0, 74.0, 16.0 ],
					"outlettype" : [ "" ],
					"fontname" : "Arial",
					"id" : "obj-4"
				}

			}
, 			{
				"box" : 				{
					"maxclass" : "message",
					"text" : "alea-rhythm",
					"textcolor" : [ 1.0, 1.0, 1.0, 1.0 ],
					"fontface" : 1,
					"fontsize" : 10.0,
					"numinlets" : 2,
					"numoutlets" : 1,
					"bgcolor" : [ 0.360784, 0.360784, 0.360784, 1.0 ],
					"patching_rect" : [ 65.0, 117.0, 67.0, 16.0 ],
					"outlettype" : [ "" ],
					"fontname" : "Arial",
					"id" : "obj-6"
				}

			}
, 			{
				"box" : 				{
					"maxclass" : "message",
					"text" : "super-rhythm",
					"textcolor" : [ 1.0, 1.0, 1.0, 1.0 ],
					"fontface" : 1,
					"fontsize" : 10.0,
					"numinlets" : 2,
					"numoutlets" : 1,
					"bgcolor" : [ 0.360784, 0.360784, 0.360784, 1.0 ],
					"patching_rect" : [ 107.0, 159.0, 75.0, 16.0 ],
					"outlettype" : [ "" ],
					"fontname" : "Arial",
					"id" : "obj-7"
				}

			}
, 			{
				"box" : 				{
					"maxclass" : "message",
					"text" : "repchord-rhythm",
					"textcolor" : [ 1.0, 1.0, 1.0, 1.0 ],
					"fontface" : 1,
					"fontsize" : 10.0,
					"numinlets" : 2,
					"numoutlets" : 1,
					"bgcolor" : [ 0.360784, 0.360784, 0.360784, 1.0 ],
					"patching_rect" : [ 13.0, 159.0, 91.0, 16.0 ],
					"outlettype" : [ "" ],
					"fontname" : "Arial",
					"id" : "obj-5"
				}

			}
, 			{
				"box" : 				{
					"maxclass" : "message",
					"text" : "grid-rhythm",
					"textcolor" : [ 1.0, 1.0, 1.0, 1.0 ],
					"fontface" : 1,
					"fontsize" : 10.0,
					"numinlets" : 2,
					"numoutlets" : 1,
					"bgcolor" : [ 0.360784, 0.360784, 0.360784, 1.0 ],
					"patching_rect" : [ 178.0, 138.0, 67.0, 16.0 ],
					"outlettype" : [ "" ],
					"fontname" : "Arial",
					"id" : "obj-18"
				}

			}
, 			{
				"box" : 				{
					"maxclass" : "message",
					"text" : "choice-rhythm",
					"textcolor" : [ 1.0, 1.0, 1.0, 1.0 ],
					"fontface" : 1,
					"fontsize" : 10.0,
					"numinlets" : 2,
					"numoutlets" : 1,
					"bgcolor" : [ 0.360784, 0.360784, 0.360784, 1.0 ],
					"patching_rect" : [ 215.0, 117.0, 79.0, 16.0 ],
					"outlettype" : [ "" ],
					"fontname" : "Arial",
					"id" : "obj-19"
				}

			}
, 			{
				"box" : 				{
					"maxclass" : "message",
					"text" : "ED-rhythm",
					"textcolor" : [ 1.0, 1.0, 1.0, 1.0 ],
					"fontface" : 1,
					"fontsize" : 10.0,
					"numinlets" : 2,
					"numoutlets" : 1,
					"bgcolor" : [ 0.360784, 0.360784, 0.360784, 1.0 ],
					"patching_rect" : [ 249.0, 138.0, 62.0, 16.0 ],
					"outlettype" : [ "" ],
					"fontname" : "Arial",
					"id" : "obj-20"
				}

			}
, 			{
				"box" : 				{
					"maxclass" : "message",
					"text" : "group-rhythm",
					"textcolor" : [ 1.0, 1.0, 1.0, 1.0 ],
					"fontface" : 1,
					"fontsize" : 10.0,
					"numinlets" : 2,
					"numoutlets" : 1,
					"bgcolor" : [ 0.360784, 0.360784, 0.360784, 1.0 ],
					"patching_rect" : [ 97.0, 138.0, 76.0, 16.0 ],
					"outlettype" : [ "" ],
					"fontname" : "Arial",
					"id" : "obj-21"
				}

			}
, 			{
				"box" : 				{
					"maxclass" : "message",
					"text" : "markov-rhythm",
					"textcolor" : [ 1.0, 1.0, 1.0, 1.0 ],
					"fontface" : 1,
					"fontsize" : 10.0,
					"numinlets" : 2,
					"numoutlets" : 1,
					"bgcolor" : [ 0.360784, 0.360784, 0.360784, 1.0 ],
					"patching_rect" : [ 185.0, 159.0, 83.0, 16.0 ],
					"outlettype" : [ "" ],
					"fontname" : "Arial",
					"id" : "obj-22"
				}

			}
, 			{
				"box" : 				{
					"maxclass" : "newobj",
					"text" : "open-help",
					"hidden" : 1,
					"fontsize" : 9.0,
					"numinlets" : 1,
					"numoutlets" : 0,
					"patching_rect" : [ 257.0, 4.0, 51.0, 17.0 ],
					"fontname" : "Arial",
					"id" : "obj-32"
				}

			}
, 			{
				"box" : 				{
					"maxclass" : "comment",
					"text" : "see also:",
					"fontsize" : 12.0,
					"numinlets" : 1,
					"numoutlets" : 0,
					"patching_rect" : [ 0.0, 114.0, 61.0, 20.0 ],
					"fontname" : "Arial",
					"id" : "obj-8"
				}

			}
, 			{
				"box" : 				{
					"maxclass" : "comment",
					"text" : "1994 by Karlheinz Essl",
					"fontsize" : 10.0,
					"numinlets" : 1,
					"numoutlets" : 0,
					"patching_rect" : [ 1.0, 358.0, 162.0, 18.0 ],
					"fontname" : "Arial",
					"id" : "obj-9"
				}

			}
, 			{
				"box" : 				{
					"maxclass" : "comment",
					"varname" : "autohelp_top_digest",
					"text" : "Rhythm generator",
					"textcolor" : [ 0.93, 0.93, 0.97, 1.0 ],
					"frgb" : [ 0.93, 0.93, 0.97, 1.0 ],
					"fontsize" : 12.754705,
					"numinlets" : 1,
					"numoutlets" : 0,
					"patching_rect" : [ 0.0, 24.0, 113.0, 21.0 ],
					"fontname" : "Arial",
					"id" : "obj-25"
				}

			}
, 			{
				"box" : 				{
					"maxclass" : "message",
					"text" : "RTC-Overview",
					"textcolor" : [ 1.0, 1.0, 1.0, 1.0 ],
					"fontface" : 1,
					"fontsize" : 12.0,
					"numinlets" : 2,
					"numoutlets" : 1,
					"bgcolor" : [ 0.360784, 0.360784, 0.360784, 1.0 ],
					"patching_rect" : [ 314.0, 27.0, 93.0, 18.0 ],
					"outlettype" : [ "" ],
					"fontname" : "Arial",
					"id" : "obj-23"
				}

			}
, 			{
				"box" : 				{
					"maxclass" : "message",
					"text" : "Rhythm",
					"textcolor" : [ 1.0, 1.0, 1.0, 1.0 ],
					"fontface" : 1,
					"fontsize" : 12.0,
					"numinlets" : 2,
					"numoutlets" : 1,
					"bgcolor" : [ 0.360784, 0.360784, 0.360784, 1.0 ],
					"patching_rect" : [ 352.0, 4.0, 55.0, 18.0 ],
					"outlettype" : [ "" ],
					"fontname" : "Arial",
					"id" : "obj-38"
				}

			}
, 			{
				"box" : 				{
					"maxclass" : "comment",
					"text" : "group-rhythm2",
					"textcolor" : [ 1.0, 1.0, 1.0, 1.0 ],
					"frgb" : [ 1.0, 1.0, 1.0, 1.0 ],
					"fontface" : 3,
					"fontsize" : 14.0,
					"numinlets" : 1,
					"numoutlets" : 0,
					"patching_rect" : [ 0.0, 1.0, 110.0, 23.0 ],
					"fontname" : "Arial",
					"id" : "obj-15"
				}

			}
, 			{
				"box" : 				{
					"maxclass" : "comment",
					"text" : "Another implementation of a group-rhythm. A list of ED-values is sent to the middle inlet, a list of desired group sizes is sent to the right-most inlet. A randomly chosen ED value from the ED list list will be repeated according to a randomly chosen group size from the group list.",
					"linecount" : 4,
					"fontsize" : 12.0,
					"numinlets" : 1,
					"numoutlets" : 0,
					"patching_rect" : [ 0.0, 51.0, 413.0, 62.0 ],
					"fontname" : "Arial",
					"id" : "obj-16"
				}

			}
, 			{
				"box" : 				{
					"maxclass" : "panel",
					"varname" : "autohelp_top_panel",
					"rounded" : 0,
					"grad2" : [ 0.85, 0.85, 0.85, 1.0 ],
					"mode" : 1,
					"numinlets" : 1,
					"background" : 1,
					"numoutlets" : 0,
					"patching_rect" : [ 0.0, 0.0, 416.0, 51.0 ],
					"grad1" : [ 0.0, 0.0, 0.0, 1.0 ],
					"id" : "obj-55"
				}

			}
 ],
		"lines" : [ 			{
				"patchline" : 				{
					"source" : [ "obj-39", 0 ],
					"destination" : [ "obj-33", 1 ],
					"hidden" : 1,
					"midpoints" : [  ]
				}

			}
, 			{
				"patchline" : 				{
					"source" : [ "obj-38", 0 ],
					"destination" : [ "obj-32", 0 ],
					"hidden" : 1,
					"midpoints" : [  ]
				}

			}
, 			{
				"patchline" : 				{
					"source" : [ "obj-23", 0 ],
					"destination" : [ "obj-32", 0 ],
					"hidden" : 1,
					"midpoints" : [  ]
				}

			}
, 			{
				"patchline" : 				{
					"source" : [ "obj-6", 0 ],
					"destination" : [ "obj-32", 0 ],
					"hidden" : 1,
					"midpoints" : [  ]
				}

			}
, 			{
				"patchline" : 				{
					"source" : [ "obj-4", 0 ],
					"destination" : [ "obj-32", 0 ],
					"hidden" : 1,
					"midpoints" : [  ]
				}

			}
, 			{
				"patchline" : 				{
					"source" : [ "obj-19", 0 ],
					"destination" : [ "obj-32", 0 ],
					"hidden" : 1,
					"midpoints" : [  ]
				}

			}
, 			{
				"patchline" : 				{
					"source" : [ "obj-12", 0 ],
					"destination" : [ "obj-32", 0 ],
					"hidden" : 1,
					"midpoints" : [  ]
				}

			}
, 			{
				"patchline" : 				{
					"source" : [ "obj-2", 0 ],
					"destination" : [ "obj-32", 0 ],
					"hidden" : 1,
					"midpoints" : [  ]
				}

			}
, 			{
				"patchline" : 				{
					"source" : [ "obj-21", 0 ],
					"destination" : [ "obj-32", 0 ],
					"hidden" : 1,
					"midpoints" : [  ]
				}

			}
, 			{
				"patchline" : 				{
					"source" : [ "obj-18", 0 ],
					"destination" : [ "obj-32", 0 ],
					"hidden" : 1,
					"midpoints" : [  ]
				}

			}
, 			{
				"patchline" : 				{
					"source" : [ "obj-20", 0 ],
					"destination" : [ "obj-32", 0 ],
					"hidden" : 1,
					"midpoints" : [  ]
				}

			}
, 			{
				"patchline" : 				{
					"source" : [ "obj-1", 0 ],
					"destination" : [ "obj-32", 0 ],
					"hidden" : 1,
					"midpoints" : [  ]
				}

			}
, 			{
				"patchline" : 				{
					"source" : [ "obj-5", 0 ],
					"destination" : [ "obj-32", 0 ],
					"hidden" : 1,
					"midpoints" : [  ]
				}

			}
, 			{
				"patchline" : 				{
					"source" : [ "obj-7", 0 ],
					"destination" : [ "obj-32", 0 ],
					"hidden" : 1,
					"midpoints" : [  ]
				}

			}
, 			{
				"patchline" : 				{
					"source" : [ "obj-22", 0 ],
					"destination" : [ "obj-32", 0 ],
					"hidden" : 1,
					"midpoints" : [  ]
				}

			}
, 			{
				"patchline" : 				{
					"source" : [ "obj-3", 0 ],
					"destination" : [ "obj-32", 0 ],
					"hidden" : 1,
					"midpoints" : [  ]
				}

			}
, 			{
				"patchline" : 				{
					"source" : [ "obj-11", 0 ],
					"destination" : [ "obj-33", 0 ],
					"hidden" : 0,
					"midpoints" : [  ]
				}

			}
, 			{
				"patchline" : 				{
					"source" : [ "obj-10", 2 ],
					"destination" : [ "obj-29", 0 ],
					"hidden" : 0,
					"midpoints" : [  ]
				}

			}
, 			{
				"patchline" : 				{
					"source" : [ "obj-10", 1 ],
					"destination" : [ "obj-27", 0 ],
					"hidden" : 0,
					"midpoints" : [  ]
				}

			}
, 			{
				"patchline" : 				{
					"source" : [ "obj-28", 0 ],
					"destination" : [ "obj-10", 0 ],
					"hidden" : 0,
					"midpoints" : [  ]
				}

			}
, 			{
				"patchline" : 				{
					"source" : [ "obj-10", 0 ],
					"destination" : [ "obj-11", 0 ],
					"hidden" : 0,
					"midpoints" : [  ]
				}

			}
, 			{
				"patchline" : 				{
					"source" : [ "obj-17", 0 ],
					"destination" : [ "obj-24", 0 ],
					"hidden" : 1,
					"midpoints" : [ 163.5, 199.0, 275.5, 199.0 ]
				}

			}
, 			{
				"patchline" : 				{
					"source" : [ "obj-17", 0 ],
					"destination" : [ "obj-14", 0 ],
					"hidden" : 1,
					"midpoints" : [  ]
				}

			}
, 			{
				"patchline" : 				{
					"source" : [ "obj-14", 0 ],
					"destination" : [ "obj-10", 1 ],
					"hidden" : 0,
					"midpoints" : [  ]
				}

			}
, 			{
				"patchline" : 				{
					"source" : [ "obj-24", 0 ],
					"destination" : [ "obj-10", 2 ],
					"hidden" : 0,
					"midpoints" : [  ]
				}

			}
 ]
	}

}
