{
	"patcher" : 	{
		"fileversion" : 1,
		"rect" : [ 385.0, 231.0, 322.0, 325.0 ],
		"bglocked" : 0,
		"defrect" : [ 385.0, 231.0, 322.0, 325.0 ],
		"openrect" : [ 0.0, 0.0, 0.0, 0.0 ],
		"openinpresentation" : 0,
		"default_fontsize" : 12.0,
		"default_fontface" : 0,
		"default_fontname" : "Arial",
		"gridonopen" : 0,
		"gridsize" : [ 15.0, 15.0 ],
		"gridsnaponopen" : 0,
		"toolbarvisible" : 1,
		"boxanimatetime" : 200,
		"imprint" : 0,
		"enablehscroll" : 1,
		"enablevscroll" : 1,
		"devicewidth" : 0.0,
		"boxes" : [ 			{
				"box" : 				{
					"maxclass" : "inlet",
					"numoutlets" : 1,
					"outlettype" : [ "" ],
					"id" : "obj-1",
					"patching_rect" : [ 139.0, 54.0, 15.0, 15.0 ],
					"numinlets" : 0,
					"comment" : "dev%"
				}

			}
, 			{
				"box" : 				{
					"maxclass" : "inlet",
					"numoutlets" : 1,
					"outlettype" : [ "" ],
					"id" : "obj-2",
					"patching_rect" : [ 253.0, 54.0, 15.0, 15.0 ],
					"numinlets" : 0,
					"comment" : "multiple list"
				}

			}
, 			{
				"box" : 				{
					"maxclass" : "inlet",
					"numoutlets" : 1,
					"outlettype" : [ "" ],
					"id" : "obj-3",
					"patching_rect" : [ 170.0, 54.0, 15.0, 15.0 ],
					"numinlets" : 0,
					"comment" : "selection principle (1 - 3)"
				}

			}
, 			{
				"box" : 				{
					"maxclass" : "inlet",
					"numoutlets" : 1,
					"outlettype" : [ "" ],
					"id" : "obj-4",
					"patching_rect" : [ 35.0, 54.0, 15.0, 15.0 ],
					"numinlets" : 0,
					"comment" : "toggle (on/off)"
				}

			}
, 			{
				"box" : 				{
					"maxclass" : "newobj",
					"text" : "sel-princ #3",
					"numoutlets" : 3,
					"outlettype" : [ "", "int", "bang" ],
					"id" : "obj-5",
					"fontname" : "Geneva",
					"patching_rect" : [ 87.0, 83.0, 185.0, 19.0 ],
					"fontsize" : 9.0,
					"numinlets" : 3
				}

			}
, 			{
				"box" : 				{
					"maxclass" : "outlet",
					"numoutlets" : 0,
					"id" : "obj-6",
					"patching_rect" : [ 35.0, 236.0, 15.0, 15.0 ],
					"numinlets" : 1,
					"comment" : "bangs"
				}

			}
, 			{
				"box" : 				{
					"maxclass" : "newobj",
					"text" : "metro-dev% 500 10",
					"numoutlets" : 2,
					"outlettype" : [ "bang", "int" ],
					"id" : "obj-7",
					"fontname" : "Geneva",
					"patching_rect" : [ 35.0, 204.0, 123.0, 19.0 ],
					"fontsize" : 9.0,
					"numinlets" : 3
				}

			}
, 			{
				"box" : 				{
					"maxclass" : "outlet",
					"numoutlets" : 0,
					"id" : "obj-8",
					"patching_rect" : [ 139.0, 236.0, 15.0, 15.0 ],
					"numinlets" : 1,
					"comment" : "ED (ms)"
				}

			}
, 			{
				"box" : 				{
					"maxclass" : "newobj",
					"text" : "int #2",
					"numoutlets" : 1,
					"outlettype" : [ "int" ],
					"id" : "obj-9",
					"fontname" : "Geneva",
					"patching_rect" : [ 139.0, 152.0, 56.0, 19.0 ],
					"fontsize" : 9.0,
					"numinlets" : 2
				}

			}
, 			{
				"box" : 				{
					"maxclass" : "number",
					"triscale" : 0.9,
					"numoutlets" : 2,
					"outlettype" : [ "int", "bang" ],
					"id" : "obj-10",
					"fontname" : "Geneva",
					"patching_rect" : [ 139.0, 181.0, 35.0, 19.0 ],
					"fontsize" : 9.0,
					"numinlets" : 1
				}

			}
, 			{
				"box" : 				{
					"maxclass" : "inlet",
					"numoutlets" : 1,
					"outlettype" : [ "" ],
					"id" : "obj-11",
					"patching_rect" : [ 108.0, 54.0, 15.0, 15.0 ],
					"numinlets" : 0,
					"comment" : "grid (ms)"
				}

			}
, 			{
				"box" : 				{
					"maxclass" : "newobj",
					"text" : "* #1",
					"numoutlets" : 1,
					"outlettype" : [ "int" ],
					"id" : "obj-12",
					"fontname" : "Geneva",
					"patching_rect" : [ 87.0, 152.0, 31.0, 19.0 ],
					"fontsize" : 9.0,
					"numinlets" : 2
				}

			}
, 			{
				"box" : 				{
					"maxclass" : "number",
					"triscale" : 0.9,
					"numoutlets" : 2,
					"outlettype" : [ "int", "bang" ],
					"id" : "obj-13",
					"fontname" : "Geneva",
					"patching_rect" : [ 87.0, 181.0, 35.0, 19.0 ],
					"fontsize" : 9.0,
					"numinlets" : 1
				}

			}
, 			{
				"box" : 				{
					"maxclass" : "newobj",
					"text" : "int",
					"numoutlets" : 1,
					"outlettype" : [ "int" ],
					"id" : "obj-14",
					"fontname" : "Geneva",
					"patching_rect" : [ 87.0, 125.0, 27.0, 19.0 ],
					"fontsize" : 9.0,
					"numinlets" : 2
				}

			}
, 			{
				"box" : 				{
					"maxclass" : "newobj",
					"text" : "sel 1",
					"numoutlets" : 2,
					"outlettype" : [ "bang", "" ],
					"id" : "obj-15",
					"fontname" : "Geneva",
					"patching_rect" : [ 52.0, 83.0, 30.0, 19.0 ],
					"fontsize" : 9.0,
					"numinlets" : 2
				}

			}
, 			{
				"box" : 				{
					"maxclass" : "comment",
					"text" : "1993 by Karlheinz Essl",
					"numoutlets" : 0,
					"id" : "obj-16",
					"fontname" : "Geneva",
					"patching_rect" : [ 163.0, 238.0, 112.0, 19.0 ],
					"fontsize" : 9.0,
					"numinlets" : 1
				}

			}
 ],
		"lines" : [ 			{
				"patchline" : 				{
					"source" : [ "obj-15", 0 ],
					"destination" : [ "obj-9", 0 ],
					"hidden" : 0,
					"midpoints" : [  ]
				}

			}
, 			{
				"patchline" : 				{
					"source" : [ "obj-15", 0 ],
					"destination" : [ "obj-14", 0 ],
					"hidden" : 0,
					"midpoints" : [  ]
				}

			}
, 			{
				"patchline" : 				{
					"source" : [ "obj-14", 0 ],
					"destination" : [ "obj-12", 0 ],
					"hidden" : 0,
					"midpoints" : [  ]
				}

			}
, 			{
				"patchline" : 				{
					"source" : [ "obj-13", 0 ],
					"destination" : [ "obj-7", 1 ],
					"hidden" : 0,
					"midpoints" : [  ]
				}

			}
, 			{
				"patchline" : 				{
					"source" : [ "obj-12", 0 ],
					"destination" : [ "obj-13", 0 ],
					"hidden" : 0,
					"midpoints" : [  ]
				}

			}
, 			{
				"patchline" : 				{
					"source" : [ "obj-11", 0 ],
					"destination" : [ "obj-12", 1 ],
					"hidden" : 0,
					"midpoints" : [  ]
				}

			}
, 			{
				"patchline" : 				{
					"source" : [ "obj-10", 0 ],
					"destination" : [ "obj-7", 2 ],
					"hidden" : 0,
					"midpoints" : [  ]
				}

			}
, 			{
				"patchline" : 				{
					"source" : [ "obj-9", 0 ],
					"destination" : [ "obj-10", 0 ],
					"hidden" : 0,
					"midpoints" : [  ]
				}

			}
, 			{
				"patchline" : 				{
					"source" : [ "obj-7", 1 ],
					"destination" : [ "obj-8", 0 ],
					"hidden" : 0,
					"midpoints" : [  ]
				}

			}
, 			{
				"patchline" : 				{
					"source" : [ "obj-7", 0 ],
					"destination" : [ "obj-5", 0 ],
					"hidden" : 0,
					"midpoints" : [  ]
				}

			}
, 			{
				"patchline" : 				{
					"source" : [ "obj-5", 0 ],
					"destination" : [ "obj-14", 0 ],
					"hidden" : 0,
					"midpoints" : [  ]
				}

			}
, 			{
				"patchline" : 				{
					"source" : [ "obj-7", 0 ],
					"destination" : [ "obj-6", 0 ],
					"hidden" : 0,
					"midpoints" : [  ]
				}

			}
, 			{
				"patchline" : 				{
					"source" : [ "obj-4", 0 ],
					"destination" : [ "obj-15", 0 ],
					"hidden" : 0,
					"midpoints" : [  ]
				}

			}
, 			{
				"patchline" : 				{
					"source" : [ "obj-4", 0 ],
					"destination" : [ "obj-7", 0 ],
					"hidden" : 0,
					"midpoints" : [  ]
				}

			}
, 			{
				"patchline" : 				{
					"source" : [ "obj-3", 0 ],
					"destination" : [ "obj-5", 1 ],
					"hidden" : 0,
					"midpoints" : [  ]
				}

			}
, 			{
				"patchline" : 				{
					"source" : [ "obj-2", 0 ],
					"destination" : [ "obj-5", 2 ],
					"hidden" : 0,
					"midpoints" : [  ]
				}

			}
, 			{
				"patchline" : 				{
					"source" : [ "obj-1", 0 ],
					"destination" : [ "obj-9", 0 ],
					"hidden" : 0,
					"midpoints" : [  ]
				}

			}
 ]
	}

}
