{
	"patcher" : 	{
		"fileversion" : 1,
		"rect" : [ 0.0, 44.0, 416.0, 363.0 ],
		"bglocked" : 0,
		"defrect" : [ 0.0, 44.0, 416.0, 363.0 ],
		"openrect" : [ 0.0, 0.0, 0.0, 0.0 ],
		"openinpresentation" : 0,
		"default_fontsize" : 12.0,
		"default_fontface" : 0,
		"default_fontname" : "Arial",
		"gridonopen" : 0,
		"gridsize" : [ 15.0, 15.0 ],
		"gridsnaponopen" : 0,
		"toolbarvisible" : 1,
		"boxanimatetime" : 200,
		"imprint" : 0,
		"enablehscroll" : 1,
		"enablevscroll" : 1,
		"devicewidth" : 0.0,
		"boxes" : [ 			{
				"box" : 				{
					"maxclass" : "message",
					"text" : "loop-buff~",
					"numinlets" : 2,
					"textcolor" : [ 1.0, 1.0, 1.0, 1.0 ],
					"numoutlets" : 1,
					"fontface" : 1,
					"fontsize" : 10.0,
					"outlettype" : [ "" ],
					"bgcolor" : [ 0.360784, 0.360784, 0.360784, 1.0 ],
					"bgcolor2" : [ 0.858824, 0.858824, 0.858824, 1.0 ],
					"patching_rect" : [ 191.0, 89.0, 60.0, 16.0 ],
					"fontname" : "Arial",
					"id" : "obj-10"
				}

			}
, 			{
				"box" : 				{
					"maxclass" : "comment",
					"text" : "Switch DAC on!",
					"numinlets" : 1,
					"numoutlets" : 0,
					"fontsize" : 12.0,
					"patching_rect" : [ 121.0, 260.0, 95.0, 20.0 ],
					"fontname" : "Arial",
					"id" : "obj-31"
				}

			}
, 			{
				"box" : 				{
					"maxclass" : "newobj",
					"text" : "lb 1",
					"numinlets" : 0,
					"hidden" : 1,
					"numoutlets" : 1,
					"fontsize" : 12.0,
					"outlettype" : [ "" ],
					"patching_rect" : [ 126.0, 117.0, 30.0, 20.0 ],
					"fontname" : "Arial",
					"id" : "obj-30"
				}

			}
, 			{
				"box" : 				{
					"maxclass" : "flonum",
					"numinlets" : 1,
					"numoutlets" : 2,
					"fontsize" : 12.0,
					"outlettype" : [ "float", "bang" ],
					"triscale" : 0.9,
					"bgcolor" : [ 0.866667, 0.866667, 0.866667, 1.0 ],
					"patching_rect" : [ 126.0, 183.0, 40.0, 20.0 ],
					"fontname" : "Arial",
					"htextcolor" : [ 0.870588, 0.870588, 0.870588, 1.0 ],
					"id" : "obj-1"
				}

			}
, 			{
				"box" : 				{
					"maxclass" : "toggle",
					"numinlets" : 1,
					"numoutlets" : 1,
					"outlettype" : [ "int" ],
					"patching_rect" : [ 83.0, 183.0, 20.0, 20.0 ],
					"id" : "obj-2"
				}

			}
, 			{
				"box" : 				{
					"maxclass" : "button",
					"numinlets" : 1,
					"numoutlets" : 1,
					"outlettype" : [ "bang" ],
					"patching_rect" : [ 105.0, 148.0, 20.0, 20.0 ],
					"id" : "obj-3"
				}

			}
, 			{
				"box" : 				{
					"maxclass" : "newobj",
					"text" : "loop-sf~",
					"numinlets" : 3,
					"numoutlets" : 1,
					"fontsize" : 12.0,
					"outlettype" : [ "signal" ],
					"patching_rect" : [ 83.0, 214.0, 62.0, 20.0 ],
					"fontname" : "Arial",
					"id" : "obj-11"
				}

			}
, 			{
				"box" : 				{
					"maxclass" : "comment",
					"text" : "3) start/stop",
					"numinlets" : 1,
					"numoutlets" : 0,
					"fontsize" : 12.0,
					"patching_rect" : [ 7.0, 183.0, 74.0, 20.0 ],
					"fontname" : "Arial",
					"id" : "obj-12"
				}

			}
, 			{
				"box" : 				{
					"maxclass" : "comment",
					"text" : "1) select a sndfile",
					"numinlets" : 1,
					"numoutlets" : 0,
					"fontsize" : 12.0,
					"patching_rect" : [ 128.0, 148.0, 104.0, 20.0 ],
					"fontname" : "Arial",
					"id" : "obj-13"
				}

			}
, 			{
				"box" : 				{
					"maxclass" : "comment",
					"text" : "speed/transp factor",
					"numinlets" : 1,
					"numoutlets" : 0,
					"fontsize" : 12.0,
					"patching_rect" : [ 167.0, 184.0, 113.0, 20.0 ],
					"fontname" : "Arial",
					"id" : "obj-14"
				}

			}
, 			{
				"box" : 				{
					"maxclass" : "ezdac~",
					"numinlets" : 2,
					"numoutlets" : 0,
					"patching_rect" : [ 83.0, 254.0, 33.0, 33.0 ],
					"id" : "obj-28"
				}

			}
, 			{
				"box" : 				{
					"maxclass" : "message",
					"text" : "samp10~",
					"numinlets" : 2,
					"textcolor" : [ 1.0, 1.0, 1.0, 1.0 ],
					"numoutlets" : 1,
					"fontface" : 1,
					"fontsize" : 10.0,
					"outlettype" : [ "" ],
					"bgcolor" : [ 0.360784, 0.360784, 0.360784, 1.0 ],
					"bgcolor2" : [ 0.858824, 0.858824, 0.858824, 1.0 ],
					"patching_rect" : [ 133.0, 89.0, 54.0, 16.0 ],
					"fontname" : "Arial",
					"id" : "obj-26"
				}

			}
, 			{
				"box" : 				{
					"maxclass" : "message",
					"text" : "play-samp~",
					"numinlets" : 2,
					"textcolor" : [ 1.0, 1.0, 1.0, 1.0 ],
					"numoutlets" : 1,
					"fontface" : 1,
					"fontsize" : 10.0,
					"outlettype" : [ "" ],
					"bgcolor" : [ 0.360784, 0.360784, 0.360784, 1.0 ],
					"bgcolor2" : [ 0.858824, 0.858824, 0.858824, 1.0 ],
					"patching_rect" : [ 65.0, 89.0, 66.0, 16.0 ],
					"fontname" : "Arial",
					"id" : "obj-22"
				}

			}
, 			{
				"box" : 				{
					"maxclass" : "newobj",
					"text" : "open-help",
					"numinlets" : 1,
					"hidden" : 1,
					"numoutlets" : 0,
					"fontsize" : 9.0,
					"patching_rect" : [ 257.0, 4.0, 51.0, 17.0 ],
					"fontname" : "Arial",
					"id" : "obj-32"
				}

			}
, 			{
				"box" : 				{
					"maxclass" : "comment",
					"text" : "see also:",
					"numinlets" : 1,
					"numoutlets" : 0,
					"fontsize" : 12.0,
					"patching_rect" : [ 0.0, 86.0, 61.0, 20.0 ],
					"fontname" : "Arial",
					"id" : "obj-8"
				}

			}
, 			{
				"box" : 				{
					"maxclass" : "comment",
					"text" : "2000-2008 by Karlheinz Essl, vs. 2.0",
					"numinlets" : 1,
					"numoutlets" : 0,
					"fontsize" : 10.0,
					"patching_rect" : [ 1.0, 332.0, 173.0, 18.0 ],
					"fontname" : "Arial",
					"id" : "obj-9"
				}

			}
, 			{
				"box" : 				{
					"maxclass" : "comment",
					"varname" : "autohelp_top_digest",
					"text" : "Sampler / Player",
					"numinlets" : 1,
					"textcolor" : [ 0.93, 0.93, 0.97, 1.0 ],
					"numoutlets" : 0,
					"frgb" : [ 0.93, 0.93, 0.97, 1.0 ],
					"fontsize" : 12.754705,
					"patching_rect" : [ 0.0, 24.0, 105.0, 21.0 ],
					"fontname" : "Arial",
					"id" : "obj-25"
				}

			}
, 			{
				"box" : 				{
					"maxclass" : "message",
					"text" : "RTC-Overview",
					"numinlets" : 2,
					"textcolor" : [ 1.0, 1.0, 1.0, 1.0 ],
					"numoutlets" : 1,
					"fontface" : 1,
					"fontsize" : 12.0,
					"outlettype" : [ "" ],
					"bgcolor" : [ 0.360784, 0.360784, 0.360784, 1.0 ],
					"patching_rect" : [ 314.0, 27.0, 93.0, 18.0 ],
					"fontname" : "Arial",
					"id" : "obj-23"
				}

			}
, 			{
				"box" : 				{
					"maxclass" : "message",
					"text" : "MSP-RTC",
					"numinlets" : 2,
					"textcolor" : [ 1.0, 1.0, 1.0, 1.0 ],
					"numoutlets" : 1,
					"fontface" : 1,
					"fontsize" : 12.0,
					"outlettype" : [ "" ],
					"bgcolor" : [ 0.360784, 0.360784, 0.360784, 1.0 ],
					"patching_rect" : [ 341.0, 4.0, 65.0, 18.0 ],
					"fontname" : "Arial",
					"id" : "obj-38"
				}

			}
, 			{
				"box" : 				{
					"maxclass" : "comment",
					"text" : "loop-sf~",
					"numinlets" : 1,
					"textcolor" : [ 1.0, 1.0, 1.0, 1.0 ],
					"numoutlets" : 0,
					"fontface" : 3,
					"frgb" : [ 1.0, 1.0, 1.0, 1.0 ],
					"fontsize" : 14.0,
					"patching_rect" : [ 0.0, 1.0, 65.0, 23.0 ],
					"fontname" : "Arial",
					"id" : "obj-15"
				}

			}
, 			{
				"box" : 				{
					"maxclass" : "comment",
					"text" : "Loops a selected mono sndfile and changes the transposition resp. speed. A negative factor plays the file backwards.",
					"linecount" : 2,
					"numinlets" : 1,
					"numoutlets" : 0,
					"fontsize" : 12.0,
					"patching_rect" : [ 0.0, 51.0, 410.0, 34.0 ],
					"fontname" : "Arial",
					"id" : "obj-16"
				}

			}
, 			{
				"box" : 				{
					"maxclass" : "panel",
					"varname" : "autohelp_top_panel",
					"numinlets" : 1,
					"rounded" : 0,
					"numoutlets" : 0,
					"mode" : 1,
					"grad1" : [ 0.0, 0.0, 0.0, 1.0 ],
					"grad2" : [ 0.85, 0.85, 0.85, 1.0 ],
					"background" : 1,
					"patching_rect" : [ 0.0, 0.0, 416.0, 51.0 ],
					"id" : "obj-55"
				}

			}
 ],
		"lines" : [ 			{
				"patchline" : 				{
					"source" : [ "obj-10", 0 ],
					"destination" : [ "obj-32", 0 ],
					"hidden" : 1,
					"midpoints" : [  ]
				}

			}
, 			{
				"patchline" : 				{
					"source" : [ "obj-38", 0 ],
					"destination" : [ "obj-32", 0 ],
					"hidden" : 1,
					"midpoints" : [  ]
				}

			}
, 			{
				"patchline" : 				{
					"source" : [ "obj-23", 0 ],
					"destination" : [ "obj-32", 0 ],
					"hidden" : 1,
					"midpoints" : [  ]
				}

			}
, 			{
				"patchline" : 				{
					"source" : [ "obj-22", 0 ],
					"destination" : [ "obj-32", 0 ],
					"hidden" : 1,
					"midpoints" : [  ]
				}

			}
, 			{
				"patchline" : 				{
					"source" : [ "obj-26", 0 ],
					"destination" : [ "obj-32", 0 ],
					"hidden" : 1,
					"midpoints" : [  ]
				}

			}
, 			{
				"patchline" : 				{
					"source" : [ "obj-1", 0 ],
					"destination" : [ "obj-11", 2 ],
					"hidden" : 0,
					"midpoints" : [  ]
				}

			}
, 			{
				"patchline" : 				{
					"source" : [ "obj-3", 0 ],
					"destination" : [ "obj-11", 1 ],
					"hidden" : 0,
					"midpoints" : [  ]
				}

			}
, 			{
				"patchline" : 				{
					"source" : [ "obj-2", 0 ],
					"destination" : [ "obj-11", 0 ],
					"hidden" : 0,
					"midpoints" : [  ]
				}

			}
, 			{
				"patchline" : 				{
					"source" : [ "obj-30", 0 ],
					"destination" : [ "obj-1", 0 ],
					"hidden" : 1,
					"midpoints" : [  ]
				}

			}
, 			{
				"patchline" : 				{
					"source" : [ "obj-11", 0 ],
					"destination" : [ "obj-28", 0 ],
					"hidden" : 0,
					"midpoints" : [  ]
				}

			}
, 			{
				"patchline" : 				{
					"source" : [ "obj-11", 0 ],
					"destination" : [ "obj-28", 1 ],
					"hidden" : 0,
					"midpoints" : [  ]
				}

			}
 ]
	}

}
