{
	"patcher" : 	{
		"fileversion" : 1,
		"rect" : [ 0.0, 44.0, 416.0, 403.0 ],
		"bglocked" : 0,
		"defrect" : [ 0.0, 44.0, 416.0, 403.0 ],
		"openrect" : [ 0.0, 0.0, 0.0, 0.0 ],
		"openinpresentation" : 0,
		"default_fontsize" : 12.0,
		"default_fontface" : 0,
		"default_fontname" : "Arial",
		"gridonopen" : 0,
		"gridsize" : [ 15.0, 15.0 ],
		"gridsnaponopen" : 0,
		"toolbarvisible" : 1,
		"boxanimatetime" : 200,
		"imprint" : 0,
		"enablehscroll" : 1,
		"enablevscroll" : 1,
		"devicewidth" : 0.0,
		"boxes" : [ 			{
				"box" : 				{
					"maxclass" : "newobj",
					"text" : "lb 0.4",
					"fontname" : "Arial",
					"numinlets" : 0,
					"hidden" : 1,
					"numoutlets" : 1,
					"outlettype" : [ "" ],
					"patching_rect" : [ 135.0, 195.0, 40.0, 20.0 ],
					"fontsize" : 12.0,
					"id" : "obj-2"
				}

			}
, 			{
				"box" : 				{
					"maxclass" : "newobj",
					"text" : "*~ 0.2",
					"fontname" : "Arial",
					"numinlets" : 2,
					"numoutlets" : 1,
					"outlettype" : [ "signal" ],
					"patching_rect" : [ 43.0, 223.0, 49.0, 20.0 ],
					"fontsize" : 12.0,
					"id" : "obj-1"
				}

			}
, 			{
				"box" : 				{
					"maxclass" : "flonum",
					"fontname" : "Arial",
					"numinlets" : 1,
					"htextcolor" : [ 0.870588, 0.870588, 0.870588, 1.0 ],
					"numoutlets" : 2,
					"outlettype" : [ "float", "bang" ],
					"patching_rect" : [ 135.0, 223.0, 51.0, 20.0 ],
					"fontsize" : 12.0,
					"minimum" : 0.0,
					"id" : "obj-10",
					"triscale" : 0.9,
					"maximum" : 1.0,
					"bgcolor" : [ 0.866667, 0.866667, 0.866667, 1.0 ]
				}

			}
, 			{
				"box" : 				{
					"maxclass" : "newobj",
					"text" : "noise~",
					"fontname" : "Arial",
					"numinlets" : 1,
					"numoutlets" : 1,
					"outlettype" : [ "signal" ],
					"patching_rect" : [ 43.0, 195.0, 44.0, 20.0 ],
					"fontsize" : 12.0,
					"id" : "obj-12"
				}

			}
, 			{
				"box" : 				{
					"maxclass" : "newobj",
					"text" : "random-pan~ 0.4",
					"fontname" : "Arial",
					"numinlets" : 2,
					"numoutlets" : 2,
					"outlettype" : [ "signal", "signal" ],
					"patching_rect" : [ 43.0, 250.0, 111.0, 20.0 ],
					"fontsize" : 12.0,
					"id" : "obj-13"
				}

			}
, 			{
				"box" : 				{
					"maxclass" : "comment",
					"text" : "pan strength",
					"fontname" : "Arial",
					"numinlets" : 1,
					"numoutlets" : 0,
					"patching_rect" : [ 187.0, 224.0, 77.0, 20.0 ],
					"fontsize" : 12.0,
					"id" : "obj-14"
				}

			}
, 			{
				"box" : 				{
					"maxclass" : "comment",
					"text" : "Switch DAC on!",
					"fontname" : "Arial",
					"numinlets" : 1,
					"numoutlets" : 0,
					"patching_rect" : [ 80.0, 319.0, 95.0, 20.0 ],
					"fontsize" : 12.0,
					"id" : "obj-31"
				}

			}
, 			{
				"box" : 				{
					"maxclass" : "ezdac~",
					"numinlets" : 2,
					"numoutlets" : 0,
					"patching_rect" : [ 43.0, 312.0, 33.0, 33.0 ],
					"id" : "obj-28"
				}

			}
, 			{
				"box" : 				{
					"maxclass" : "message",
					"text" : "sqrt-pan~",
					"fontname" : "Arial",
					"numinlets" : 2,
					"bgcolor2" : [ 0.858824, 0.858824, 0.858824, 1.0 ],
					"numoutlets" : 1,
					"fontface" : 1,
					"outlettype" : [ "" ],
					"patching_rect" : [ 118.0, 144.0, 56.0, 16.0 ],
					"fontsize" : 10.0,
					"id" : "obj-26",
					"textcolor" : [ 1.0, 1.0, 1.0, 1.0 ],
					"bgcolor" : [ 0.360784, 0.360784, 0.360784, 1.0 ]
				}

			}
, 			{
				"box" : 				{
					"maxclass" : "message",
					"text" : "cp-pan~",
					"fontname" : "Arial",
					"numinlets" : 2,
					"bgcolor2" : [ 0.858824, 0.858824, 0.858824, 1.0 ],
					"numoutlets" : 1,
					"fontface" : 1,
					"outlettype" : [ "" ],
					"patching_rect" : [ 65.0, 144.0, 49.0, 16.0 ],
					"fontsize" : 10.0,
					"id" : "obj-22",
					"textcolor" : [ 1.0, 1.0, 1.0, 1.0 ],
					"bgcolor" : [ 0.360784, 0.360784, 0.360784, 1.0 ]
				}

			}
, 			{
				"box" : 				{
					"maxclass" : "newobj",
					"text" : "open-help",
					"fontname" : "Arial",
					"numinlets" : 1,
					"hidden" : 1,
					"numoutlets" : 0,
					"patching_rect" : [ 257.0, 4.0, 51.0, 17.0 ],
					"fontsize" : 9.0,
					"id" : "obj-32"
				}

			}
, 			{
				"box" : 				{
					"maxclass" : "comment",
					"text" : "see also:",
					"fontname" : "Arial",
					"numinlets" : 1,
					"numoutlets" : 0,
					"patching_rect" : [ 0.0, 141.0, 61.0, 20.0 ],
					"fontsize" : 12.0,
					"id" : "obj-8"
				}

			}
, 			{
				"box" : 				{
					"maxclass" : "comment",
					"text" : "1999 by Gerhard Eckel & Karlheinz Essl",
					"fontname" : "Arial",
					"numinlets" : 1,
					"numoutlets" : 0,
					"patching_rect" : [ 0.0, 365.0, 188.0, 18.0 ],
					"fontsize" : 10.0,
					"id" : "obj-9"
				}

			}
, 			{
				"box" : 				{
					"maxclass" : "comment",
					"varname" : "autohelp_top_digest",
					"text" : "Panner",
					"fontname" : "Arial",
					"numinlets" : 1,
					"numoutlets" : 0,
					"frgb" : [ 0.93, 0.93, 0.97, 1.0 ],
					"patching_rect" : [ 0.0, 24.0, 52.0, 21.0 ],
					"fontsize" : 12.754705,
					"id" : "obj-25",
					"textcolor" : [ 0.93, 0.93, 0.97, 1.0 ]
				}

			}
, 			{
				"box" : 				{
					"maxclass" : "message",
					"text" : "RTC-Overview",
					"fontname" : "Arial",
					"numinlets" : 2,
					"numoutlets" : 1,
					"fontface" : 1,
					"outlettype" : [ "" ],
					"patching_rect" : [ 314.0, 27.0, 93.0, 18.0 ],
					"fontsize" : 12.0,
					"id" : "obj-23",
					"textcolor" : [ 1.0, 1.0, 1.0, 1.0 ],
					"bgcolor" : [ 0.360784, 0.360784, 0.360784, 1.0 ]
				}

			}
, 			{
				"box" : 				{
					"maxclass" : "message",
					"text" : "MSP-RTC",
					"fontname" : "Arial",
					"numinlets" : 2,
					"numoutlets" : 1,
					"fontface" : 1,
					"outlettype" : [ "" ],
					"patching_rect" : [ 341.0, 4.0, 65.0, 18.0 ],
					"fontsize" : 12.0,
					"id" : "obj-38",
					"textcolor" : [ 1.0, 1.0, 1.0, 1.0 ],
					"bgcolor" : [ 0.360784, 0.360784, 0.360784, 1.0 ]
				}

			}
, 			{
				"box" : 				{
					"maxclass" : "comment",
					"text" : "random-pan~",
					"fontname" : "Arial",
					"numinlets" : 1,
					"numoutlets" : 0,
					"frgb" : [ 1.0, 1.0, 1.0, 1.0 ],
					"fontface" : 3,
					"patching_rect" : [ 0.0, 1.0, 100.0, 23.0 ],
					"fontsize" : 14.0,
					"id" : "obj-15",
					"textcolor" : [ 1.0, 1.0, 1.0, 1.0 ]
				}

			}
, 			{
				"box" : 				{
					"maxclass" : "comment",
					"text" : "A mono signal send into the left inlet is turned into a pseudo-stereo signal by applying a slight time-variant delay. The strength of this effect can be controlled by the strength parameter sent to the rightmost inlet (a float between 0 and 1) - this parameter is also the function's argument. - NB: If the strength is 0, the effect is switched off entirely. The more the strength is raised, the more artefacts (\"doppler effects\") will occur.",
					"linecount" : 6,
					"fontname" : "Arial",
					"numinlets" : 1,
					"numoutlets" : 0,
					"patching_rect" : [ 0.0, 51.0, 404.0, 89.0 ],
					"fontsize" : 12.0,
					"id" : "obj-16"
				}

			}
, 			{
				"box" : 				{
					"maxclass" : "panel",
					"varname" : "autohelp_top_panel",
					"numinlets" : 1,
					"numoutlets" : 0,
					"mode" : 1,
					"patching_rect" : [ 0.0, 0.0, 416.0, 51.0 ],
					"id" : "obj-55",
					"rounded" : 0,
					"grad1" : [ 0.0, 0.0, 0.0, 1.0 ],
					"background" : 1,
					"grad2" : [ 0.85, 0.85, 0.85, 1.0 ]
				}

			}
 ],
		"lines" : [ 			{
				"patchline" : 				{
					"source" : [ "obj-2", 0 ],
					"destination" : [ "obj-10", 0 ],
					"hidden" : 1,
					"midpoints" : [  ]
				}

			}
, 			{
				"patchline" : 				{
					"source" : [ "obj-13", 1 ],
					"destination" : [ "obj-28", 1 ],
					"hidden" : 0,
					"midpoints" : [ 144.5, 293.5, 66.5, 293.5 ]
				}

			}
, 			{
				"patchline" : 				{
					"source" : [ "obj-13", 0 ],
					"destination" : [ "obj-28", 0 ],
					"hidden" : 0,
					"midpoints" : [  ]
				}

			}
, 			{
				"patchline" : 				{
					"source" : [ "obj-12", 0 ],
					"destination" : [ "obj-1", 0 ],
					"hidden" : 0,
					"midpoints" : [  ]
				}

			}
, 			{
				"patchline" : 				{
					"source" : [ "obj-1", 0 ],
					"destination" : [ "obj-13", 0 ],
					"hidden" : 0,
					"midpoints" : [  ]
				}

			}
, 			{
				"patchline" : 				{
					"source" : [ "obj-10", 0 ],
					"destination" : [ "obj-13", 1 ],
					"hidden" : 0,
					"midpoints" : [  ]
				}

			}
, 			{
				"patchline" : 				{
					"source" : [ "obj-26", 0 ],
					"destination" : [ "obj-32", 0 ],
					"hidden" : 1,
					"midpoints" : [  ]
				}

			}
, 			{
				"patchline" : 				{
					"source" : [ "obj-22", 0 ],
					"destination" : [ "obj-32", 0 ],
					"hidden" : 1,
					"midpoints" : [  ]
				}

			}
, 			{
				"patchline" : 				{
					"source" : [ "obj-23", 0 ],
					"destination" : [ "obj-32", 0 ],
					"hidden" : 1,
					"midpoints" : [  ]
				}

			}
, 			{
				"patchline" : 				{
					"source" : [ "obj-38", 0 ],
					"destination" : [ "obj-32", 0 ],
					"hidden" : 1,
					"midpoints" : [  ]
				}

			}
 ]
	}

}
