{
	"patcher" : 	{
		"fileversion" : 1,
		"rect" : [ 0.0, 44.0, 416.0, 425.0 ],
		"bglocked" : 0,
		"defrect" : [ 0.0, 44.0, 416.0, 425.0 ],
		"openrect" : [ 0.0, 0.0, 0.0, 0.0 ],
		"openinpresentation" : 0,
		"default_fontsize" : 12.0,
		"default_fontface" : 0,
		"default_fontname" : "Arial",
		"gridonopen" : 0,
		"gridsize" : [ 15.0, 15.0 ],
		"gridsnaponopen" : 0,
		"toolbarvisible" : 1,
		"boxanimatetime" : 200,
		"imprint" : 0,
		"enablehscroll" : 1,
		"enablevscroll" : 1,
		"devicewidth" : 0.0,
		"boxes" : [ 			{
				"box" : 				{
					"maxclass" : "newobj",
					"text" : "lb 3",
					"patching_rect" : [ 148.0, 202.0, 30.0, 20.0 ],
					"hidden" : 1,
					"id" : "obj-18",
					"fontname" : "Arial",
					"numinlets" : 0,
					"numoutlets" : 1,
					"fontsize" : 12.0,
					"outlettype" : [ "" ]
				}

			}
, 			{
				"box" : 				{
					"maxclass" : "newobj",
					"text" : "p musical-example",
					"patching_rect" : [ 236.0, 185.0, 120.0, 20.0 ],
					"id" : "obj-17",
					"fontname" : "Arial",
					"numinlets" : 0,
					"numoutlets" : 0,
					"fontsize" : 12.0,
					"patcher" : 					{
						"fileversion" : 1,
						"rect" : [ 416.0, 44.0, 473.0, 400.0 ],
						"bglocked" : 0,
						"defrect" : [ 416.0, 44.0, 473.0, 400.0 ],
						"openrect" : [ 0.0, 0.0, 0.0, 0.0 ],
						"openinpresentation" : 0,
						"default_fontsize" : 12.0,
						"default_fontface" : 0,
						"default_fontname" : "Arial",
						"gridonopen" : 0,
						"gridsize" : [ 15.0, 15.0 ],
						"gridsnaponopen" : 0,
						"toolbarvisible" : 1,
						"boxanimatetime" : 200,
						"imprint" : 0,
						"enablehscroll" : 1,
						"enablevscroll" : 1,
						"devicewidth" : 0.0,
						"boxes" : [ 							{
								"box" : 								{
									"maxclass" : "toggle",
									"patching_rect" : [ 39.0, 59.0, 24.0, 24.0 ],
									"id" : "obj-1",
									"numinlets" : 1,
									"numoutlets" : 1,
									"outlettype" : [ "int" ]
								}

							}
, 							{
								"box" : 								{
									"maxclass" : "comment",
									"text" : "start / stop",
									"patching_rect" : [ 64.0, 61.0, 80.0, 20.0 ],
									"id" : "obj-2",
									"fontname" : "Arial",
									"numinlets" : 1,
									"numoutlets" : 0,
									"fontsize" : 12.0
								}

							}
, 							{
								"box" : 								{
									"maxclass" : "button",
									"patching_rect" : [ 39.0, 120.0, 24.0, 24.0 ],
									"id" : "obj-3",
									"numinlets" : 1,
									"numoutlets" : 1,
									"outlettype" : [ "bang" ]
								}

							}
, 							{
								"box" : 								{
									"maxclass" : "newobj",
									"text" : "pitch2note",
									"patching_rect" : [ 39.0, 296.0, 174.0, 20.0 ],
									"id" : "obj-4",
									"fontname" : "Arial",
									"numinlets" : 2,
									"numoutlets" : 1,
									"fontsize" : 12.0,
									"outlettype" : [ "int" ]
								}

							}
, 							{
								"box" : 								{
									"maxclass" : "newobj",
									"text" : "pitch-from-intervals",
									"patching_rect" : [ 39.0, 233.0, 152.0, 20.0 ],
									"id" : "obj-5",
									"fontname" : "Arial",
									"numinlets" : 3,
									"numoutlets" : 2,
									"fontsize" : 12.0,
									"outlettype" : [ "int", "" ]
								}

							}
, 							{
								"box" : 								{
									"maxclass" : "number",
									"patching_rect" : [ 39.0, 328.0, 43.0, 20.0 ],
									"id" : "obj-6",
									"fontname" : "Arial",
									"htextcolor" : [ 0.870588, 0.870588, 0.870588, 1.0 ],
									"numinlets" : 1,
									"triscale" : 0.9,
									"triangle" : 0,
									"numoutlets" : 2,
									"cantchange" : 1,
									"fontface" : 1,
									"fontsize" : 12.0,
									"bgcolor" : [ 0.866667, 0.866667, 0.866667, 1.0 ],
									"outlettype" : [ "int", "bang" ],
									"format" : 4
								}

							}
, 							{
								"box" : 								{
									"maxclass" : "comment",
									"text" : "register",
									"patching_rect" : [ 219.0, 267.0, 57.0, 20.0 ],
									"id" : "obj-7",
									"fontname" : "Arial",
									"numinlets" : 1,
									"numoutlets" : 0,
									"fontsize" : 12.0
								}

							}
, 							{
								"box" : 								{
									"maxclass" : "number",
									"patching_rect" : [ 194.0, 266.0, 24.0, 20.0 ],
									"id" : "obj-8",
									"fontname" : "Arial",
									"htextcolor" : [ 0.870588, 0.870588, 0.870588, 1.0 ],
									"numinlets" : 1,
									"triscale" : 0.9,
									"triangle" : 0,
									"numoutlets" : 2,
									"cantchange" : 1,
									"fontface" : 1,
									"fontsize" : 12.0,
									"bgcolor" : [ 0.866667, 0.866667, 0.866667, 1.0 ],
									"outlettype" : [ "int", "bang" ]
								}

							}
, 							{
								"box" : 								{
									"maxclass" : "newobj",
									"text" : "brownian 2 9 0.25",
									"patching_rect" : [ 194.0, 233.0, 119.0, 20.0 ],
									"id" : "obj-9",
									"fontname" : "Arial",
									"numinlets" : 4,
									"numoutlets" : 1,
									"fontsize" : 12.0,
									"outlettype" : [ "int" ]
								}

							}
, 							{
								"box" : 								{
									"maxclass" : "flonum",
									"minimum" : 0.0,
									"patching_rect" : [ 294.0, 203.0, 40.0, 20.0 ],
									"maximum" : 1.0,
									"id" : "obj-10",
									"fontname" : "Arial",
									"htextcolor" : [ 0.870588, 0.870588, 0.870588, 1.0 ],
									"numinlets" : 1,
									"triscale" : 0.9,
									"numoutlets" : 2,
									"fontsize" : 12.0,
									"bgcolor" : [ 0.866667, 0.866667, 0.866667, 1.0 ],
									"outlettype" : [ "float", "bang" ]
								}

							}
, 							{
								"box" : 								{
									"maxclass" : "comment",
									"text" : "brown factor",
									"patching_rect" : [ 336.0, 203.0, 77.0, 20.0 ],
									"id" : "obj-11",
									"fontname" : "Arial",
									"numinlets" : 1,
									"numoutlets" : 0,
									"fontsize" : 12.0
								}

							}
, 							{
								"box" : 								{
									"maxclass" : "message",
									"text" : "3",
									"patching_rect" : [ 106.0, 147.0, 18.0, 18.0 ],
									"hidden" : 1,
									"id" : "obj-12",
									"fontname" : "Arial",
									"numinlets" : 2,
									"numoutlets" : 1,
									"fontsize" : 12.0,
									"outlettype" : [ "" ]
								}

							}
, 							{
								"box" : 								{
									"maxclass" : "umenu",
									"types" : [  ],
									"patching_rect" : [ 106.0, 175.0, 84.0, 20.0 ],
									"id" : "obj-13",
									"fontname" : "Arial",
									"numinlets" : 1,
									"numoutlets" : 3,
									"fontsize" : 12.0,
									"outlettype" : [ "int", "", "" ],
									"items" : [ ",", "alea", ",", "series", ",", "sequence" ]
								}

							}
, 							{
								"box" : 								{
									"maxclass" : "number",
									"minimum" : 1,
									"patching_rect" : [ 106.0, 203.0, 31.0, 20.0 ],
									"maximum" : 3,
									"id" : "obj-14",
									"fontname" : "Arial",
									"htextcolor" : [ 0.870588, 0.870588, 0.870588, 1.0 ],
									"numinlets" : 1,
									"triscale" : 0.9,
									"numoutlets" : 2,
									"fontface" : 1,
									"fontsize" : 12.0,
									"bgcolor" : [ 0.866667, 0.866667, 0.866667, 1.0 ],
									"outlettype" : [ "int", "bang" ]
								}

							}
, 							{
								"box" : 								{
									"maxclass" : "comment",
									"text" : "chosen intervals",
									"patching_rect" : [ 325.0, 151.0, 106.0, 20.0 ],
									"id" : "obj-15",
									"fontname" : "Arial",
									"numinlets" : 1,
									"numoutlets" : 0,
									"fontsize" : 12.0
								}

							}
, 							{
								"box" : 								{
									"maxclass" : "message",
									"text" : "2 5 -1",
									"patching_rect" : [ 235.0, 150.0, 88.0, 18.0 ],
									"id" : "obj-16",
									"fontname" : "Arial",
									"numinlets" : 2,
									"numoutlets" : 1,
									"fontsize" : 12.0,
									"outlettype" : [ "" ]
								}

							}
, 							{
								"box" : 								{
									"maxclass" : "newobj",
									"text" : "loadbang",
									"patching_rect" : [ 172.0, 26.0, 58.0, 20.0 ],
									"hidden" : 1,
									"id" : "obj-17",
									"fontname" : "Arial",
									"numinlets" : 1,
									"numoutlets" : 1,
									"fontsize" : 12.0,
									"outlettype" : [ "bang" ]
								}

							}
, 							{
								"box" : 								{
									"maxclass" : "button",
									"patching_rect" : [ 172.0, 59.0, 24.0, 24.0 ],
									"id" : "obj-18",
									"numinlets" : 1,
									"numoutlets" : 1,
									"outlettype" : [ "bang" ]
								}

							}
, 							{
								"box" : 								{
									"maxclass" : "comment",
									"text" : "new interval selection",
									"linecount" : 2,
									"patching_rect" : [ 200.0, 52.0, 89.0, 34.0 ],
									"id" : "obj-19",
									"fontname" : "Arial",
									"numinlets" : 1,
									"numoutlets" : 0,
									"fontsize" : 12.0
								}

							}
, 							{
								"box" : 								{
									"maxclass" : "comment",
									"text" : "number of intervals",
									"patching_rect" : [ 330.0, 59.0, 113.0, 20.0 ],
									"id" : "obj-20",
									"fontname" : "Arial",
									"numinlets" : 1,
									"numoutlets" : 0,
									"fontsize" : 12.0
								}

							}
, 							{
								"box" : 								{
									"maxclass" : "number",
									"minimum" : 2,
									"patching_rect" : [ 292.0, 59.0, 35.396095, 20.0 ],
									"maximum" : 5,
									"id" : "obj-21",
									"fontname" : "Arial",
									"htextcolor" : [ 0.870588, 0.870588, 0.870588, 1.0 ],
									"numinlets" : 1,
									"triscale" : 0.9,
									"numoutlets" : 2,
									"fontsize" : 12.0,
									"bgcolor" : [ 0.866667, 0.866667, 0.866667, 1.0 ],
									"outlettype" : [ "int", "bang" ]
								}

							}
, 							{
								"box" : 								{
									"maxclass" : "comment",
									"text" : "selection principle",
									"patching_rect" : [ 203.0, 175.0, 106.0, 20.0 ],
									"id" : "obj-22",
									"fontname" : "Arial",
									"numinlets" : 1,
									"numoutlets" : 0,
									"fontsize" : 12.0
								}

							}
, 							{
								"box" : 								{
									"maxclass" : "newobj",
									"text" : "metro 250",
									"patching_rect" : [ 39.0, 91.0, 72.0, 20.0 ],
									"id" : "obj-23",
									"fontname" : "Arial",
									"numinlets" : 2,
									"numoutlets" : 1,
									"fontsize" : 12.0,
									"outlettype" : [ "bang" ]
								}

							}
, 							{
								"box" : 								{
									"maxclass" : "newobj",
									"text" : "show",
									"patching_rect" : [ 235.0, 123.0, 39.0, 20.0 ],
									"id" : "obj-24",
									"fontname" : "Arial",
									"numinlets" : 2,
									"numoutlets" : 1,
									"fontsize" : 12.0,
									"outlettype" : [ "" ]
								}

							}
, 							{
								"box" : 								{
									"maxclass" : "newobj",
									"text" : "choose-intervals 3",
									"patching_rect" : [ 172.0, 91.0, 139.0, 20.0 ],
									"id" : "obj-25",
									"fontname" : "Arial",
									"numinlets" : 2,
									"numoutlets" : 2,
									"fontsize" : 12.0,
									"outlettype" : [ "", "bang" ]
								}

							}
, 							{
								"box" : 								{
									"maxclass" : "comment",
									"text" : "rhythm bangs",
									"linecount" : 2,
									"patching_rect" : [ 65.0, 120.0, 52.0, 34.0 ],
									"id" : "obj-26",
									"fontname" : "Arial",
									"numinlets" : 1,
									"numoutlets" : 0,
									"fontsize" : 12.0
								}

							}
, 							{
								"box" : 								{
									"maxclass" : "newobj",
									"text" : "play 127 500 1",
									"patching_rect" : [ 39.0, 356.0, 89.0, 20.0 ],
									"id" : "obj-27",
									"fontname" : "Arial",
									"numinlets" : 5,
									"numoutlets" : 0,
									"fontsize" : 12.0
								}

							}
, 							{
								"box" : 								{
									"maxclass" : "comment",
									"text" : "note",
									"patching_rect" : [ 83.0, 328.0, 34.0, 20.0 ],
									"id" : "obj-28",
									"fontname" : "Arial",
									"numinlets" : 1,
									"numoutlets" : 0,
									"fontsize" : 12.0
								}

							}
 ],
						"lines" : [ 							{
								"patchline" : 								{
									"source" : [ "obj-18", 0 ],
									"destination" : [ "obj-25", 0 ],
									"hidden" : 0,
									"midpoints" : [  ]
								}

							}
, 							{
								"patchline" : 								{
									"source" : [ "obj-25", 0 ],
									"destination" : [ "obj-5", 2 ],
									"hidden" : 0,
									"midpoints" : [  ]
								}

							}
, 							{
								"patchline" : 								{
									"source" : [ "obj-21", 0 ],
									"destination" : [ "obj-25", 1 ],
									"hidden" : 0,
									"midpoints" : [  ]
								}

							}
, 							{
								"patchline" : 								{
									"source" : [ "obj-25", 0 ],
									"destination" : [ "obj-24", 0 ],
									"hidden" : 0,
									"midpoints" : [ 181.5, 116.5, 244.5, 116.5 ]
								}

							}
, 							{
								"patchline" : 								{
									"source" : [ "obj-6", 0 ],
									"destination" : [ "obj-27", 0 ],
									"hidden" : 0,
									"midpoints" : [  ]
								}

							}
, 							{
								"patchline" : 								{
									"source" : [ "obj-14", 0 ],
									"destination" : [ "obj-5", 1 ],
									"hidden" : 0,
									"midpoints" : [  ]
								}

							}
, 							{
								"patchline" : 								{
									"source" : [ "obj-1", 0 ],
									"destination" : [ "obj-23", 0 ],
									"hidden" : 0,
									"midpoints" : [  ]
								}

							}
, 							{
								"patchline" : 								{
									"source" : [ "obj-23", 0 ],
									"destination" : [ "obj-3", 0 ],
									"hidden" : 0,
									"midpoints" : [  ]
								}

							}
, 							{
								"patchline" : 								{
									"source" : [ "obj-3", 0 ],
									"destination" : [ "obj-5", 0 ],
									"hidden" : 0,
									"midpoints" : [  ]
								}

							}
, 							{
								"patchline" : 								{
									"source" : [ "obj-5", 0 ],
									"destination" : [ "obj-4", 0 ],
									"hidden" : 0,
									"midpoints" : [  ]
								}

							}
, 							{
								"patchline" : 								{
									"source" : [ "obj-4", 0 ],
									"destination" : [ "obj-6", 0 ],
									"hidden" : 0,
									"midpoints" : [  ]
								}

							}
, 							{
								"patchline" : 								{
									"source" : [ "obj-18", 0 ],
									"destination" : [ "obj-12", 0 ],
									"hidden" : 1,
									"midpoints" : [  ]
								}

							}
, 							{
								"patchline" : 								{
									"source" : [ "obj-12", 0 ],
									"destination" : [ "obj-13", 0 ],
									"hidden" : 1,
									"midpoints" : [  ]
								}

							}
, 							{
								"patchline" : 								{
									"source" : [ "obj-13", 0 ],
									"destination" : [ "obj-14", 0 ],
									"hidden" : 0,
									"midpoints" : [  ]
								}

							}
, 							{
								"patchline" : 								{
									"source" : [ "obj-17", 0 ],
									"destination" : [ "obj-18", 0 ],
									"hidden" : 1,
									"midpoints" : [  ]
								}

							}
, 							{
								"patchline" : 								{
									"source" : [ "obj-3", 0 ],
									"destination" : [ "obj-9", 0 ],
									"hidden" : 0,
									"midpoints" : [ 48.5, 160.0, 203.5, 160.0 ]
								}

							}
, 							{
								"patchline" : 								{
									"source" : [ "obj-9", 0 ],
									"destination" : [ "obj-8", 0 ],
									"hidden" : 0,
									"midpoints" : [  ]
								}

							}
, 							{
								"patchline" : 								{
									"source" : [ "obj-8", 0 ],
									"destination" : [ "obj-4", 1 ],
									"hidden" : 0,
									"midpoints" : [  ]
								}

							}
, 							{
								"patchline" : 								{
									"source" : [ "obj-24", 0 ],
									"destination" : [ "obj-16", 0 ],
									"hidden" : 0,
									"midpoints" : [  ]
								}

							}
, 							{
								"patchline" : 								{
									"source" : [ "obj-10", 0 ],
									"destination" : [ "obj-9", 3 ],
									"hidden" : 0,
									"midpoints" : [  ]
								}

							}
 ]
					}
,
					"saved_object_attributes" : 					{
						"default_fontname" : "Arial",
						"fontname" : "Arial",
						"default_fontsize" : 12.0,
						"globalpatchername" : "",
						"fontface" : 0,
						"fontsize" : 12.0,
						"default_fontface" : 0
					}

				}

			}
, 			{
				"box" : 				{
					"maxclass" : "button",
					"patching_rect" : [ 91.0, 285.0, 20.0, 20.0 ],
					"id" : "obj-1",
					"numinlets" : 1,
					"numoutlets" : 1,
					"outlettype" : [ "bang" ]
				}

			}
, 			{
				"box" : 				{
					"maxclass" : "newobj",
					"text" : "loadbang",
					"patching_rect" : [ 91.0, 202.0, 58.0, 20.0 ],
					"hidden" : 1,
					"id" : "obj-3",
					"fontname" : "Arial",
					"numinlets" : 1,
					"numoutlets" : 1,
					"fontsize" : 12.0,
					"outlettype" : [ "bang" ]
				}

			}
, 			{
				"box" : 				{
					"maxclass" : "comment",
					"text" : "flashes when the sum of the chosen intervals would have been an octave",
					"linecount" : 3,
					"patching_rect" : [ 161.0, 284.0, 155.0, 48.0 ],
					"id" : "obj-4",
					"fontname" : "Arial",
					"numinlets" : 1,
					"numoutlets" : 0,
					"fontsize" : 12.0
				}

			}
, 			{
				"box" : 				{
					"maxclass" : "button",
					"patching_rect" : [ 141.0, 284.0, 20.0, 20.0 ],
					"id" : "obj-11",
					"numinlets" : 1,
					"numoutlets" : 1,
					"outlettype" : [ "bang" ]
				}

			}
, 			{
				"box" : 				{
					"maxclass" : "number",
					"minimum" : 1,
					"patching_rect" : [ 141.0, 226.0, 29.396093, 20.0 ],
					"maximum" : 5,
					"id" : "obj-5",
					"fontname" : "Arial",
					"htextcolor" : [ 0.870588, 0.870588, 0.870588, 1.0 ],
					"numinlets" : 1,
					"triscale" : 0.9,
					"numoutlets" : 2,
					"fontsize" : 12.0,
					"bgcolor" : [ 0.866667, 0.866667, 0.866667, 1.0 ],
					"outlettype" : [ "int", "bang" ]
				}

			}
, 			{
				"box" : 				{
					"maxclass" : "button",
					"patching_rect" : [ 52.0, 226.0, 20.0, 20.0 ],
					"id" : "obj-13",
					"numinlets" : 1,
					"numoutlets" : 1,
					"outlettype" : [ "bang" ]
				}

			}
, 			{
				"box" : 				{
					"maxclass" : "message",
					"patching_rect" : [ 52.0, 315.0, 95.0, 18.0 ],
					"id" : "obj-14",
					"fontname" : "Arial",
					"numinlets" : 2,
					"numoutlets" : 1,
					"fontsize" : 12.0,
					"outlettype" : [ "" ]
				}

			}
, 			{
				"box" : 				{
					"maxclass" : "newobj",
					"text" : "show",
					"patching_rect" : [ 52.0, 284.0, 39.0, 20.0 ],
					"id" : "obj-6",
					"fontname" : "Arial",
					"numinlets" : 2,
					"numoutlets" : 1,
					"fontsize" : 12.0,
					"outlettype" : [ "" ]
				}

			}
, 			{
				"box" : 				{
					"maxclass" : "newobj",
					"text" : "choose-intervals 3",
					"patching_rect" : [ 52.0, 255.0, 108.0, 20.0 ],
					"id" : "obj-7",
					"fontname" : "Arial",
					"numinlets" : 2,
					"numoutlets" : 2,
					"fontsize" : 12.0,
					"outlettype" : [ "", "bang" ]
				}

			}
, 			{
				"box" : 				{
					"maxclass" : "comment",
					"text" : "number of intervals to be chosen",
					"patching_rect" : [ 172.0, 227.0, 185.0, 20.0 ],
					"id" : "obj-19",
					"fontname" : "Arial",
					"numinlets" : 1,
					"numoutlets" : 0,
					"fontsize" : 12.0
				}

			}
, 			{
				"box" : 				{
					"maxclass" : "comment",
					"text" : "generate!",
					"patching_rect" : [ 75.0, 226.0, 63.0, 20.0 ],
					"id" : "obj-21",
					"fontname" : "Arial",
					"numinlets" : 1,
					"numoutlets" : 0,
					"fontsize" : 12.0
				}

			}
, 			{
				"box" : 				{
					"maxclass" : "message",
					"text" : "pitch-from-row-mod",
					"patching_rect" : [ 207.0, 134.0, 105.0, 16.0 ],
					"id" : "obj-2",
					"fontname" : "Arial",
					"textcolor" : [ 1.0, 1.0, 1.0, 1.0 ],
					"numinlets" : 2,
					"numoutlets" : 1,
					"fontface" : 1,
					"fontsize" : 10.0,
					"bgcolor" : [ 0.360784, 0.360784, 0.360784, 1.0 ],
					"outlettype" : [ "" ],
					"bgcolor2" : [ 0.858824, 0.858824, 0.858824, 1.0 ]
				}

			}
, 			{
				"box" : 				{
					"maxclass" : "message",
					"text" : "markov-harmony",
					"patching_rect" : [ 155.0, 114.0, 92.0, 16.0 ],
					"id" : "obj-12",
					"fontname" : "Arial",
					"textcolor" : [ 1.0, 1.0, 1.0, 1.0 ],
					"numinlets" : 2,
					"numoutlets" : 1,
					"fontface" : 1,
					"fontsize" : 10.0,
					"bgcolor" : [ 0.360784, 0.360784, 0.360784, 1.0 ],
					"outlettype" : [ "" ],
					"bgcolor2" : [ 0.858824, 0.858824, 0.858824, 1.0 ]
				}

			}
, 			{
				"box" : 				{
					"maxclass" : "message",
					"text" : "pitch-from-row",
					"patching_rect" : [ 315.0, 134.0, 81.0, 16.0 ],
					"id" : "obj-10",
					"fontname" : "Arial",
					"textcolor" : [ 1.0, 1.0, 1.0, 1.0 ],
					"numinlets" : 2,
					"numoutlets" : 1,
					"fontface" : 1,
					"fontsize" : 10.0,
					"bgcolor" : [ 0.360784, 0.360784, 0.360784, 1.0 ],
					"outlettype" : [ "" ],
					"bgcolor2" : [ 0.858824, 0.858824, 0.858824, 1.0 ]
				}

			}
, 			{
				"box" : 				{
					"maxclass" : "message",
					"text" : "infinity-row",
					"patching_rect" : [ 251.0, 114.0, 64.0, 16.0 ],
					"id" : "obj-30",
					"fontname" : "Arial",
					"textcolor" : [ 1.0, 1.0, 1.0, 1.0 ],
					"numinlets" : 2,
					"numoutlets" : 1,
					"fontface" : 1,
					"fontsize" : 10.0,
					"bgcolor" : [ 0.360784, 0.360784, 0.360784, 1.0 ],
					"outlettype" : [ "" ],
					"bgcolor2" : [ 0.858824, 0.858824, 0.858824, 1.0 ]
				}

			}
, 			{
				"box" : 				{
					"maxclass" : "message",
					"text" : "brown-melody",
					"patching_rect" : [ 126.0, 134.0, 79.0, 16.0 ],
					"id" : "obj-31",
					"fontname" : "Arial",
					"textcolor" : [ 1.0, 1.0, 1.0, 1.0 ],
					"numinlets" : 2,
					"numoutlets" : 1,
					"fontface" : 1,
					"fontsize" : 10.0,
					"bgcolor" : [ 0.360784, 0.360784, 0.360784, 1.0 ],
					"outlettype" : [ "" ],
					"bgcolor2" : [ 0.858824, 0.858824, 0.858824, 1.0 ]
				}

			}
, 			{
				"box" : 				{
					"maxclass" : "message",
					"text" : "pitch-from-intervals",
					"patching_rect" : [ 19.0, 134.0, 104.0, 16.0 ],
					"id" : "obj-33",
					"fontname" : "Arial",
					"textcolor" : [ 1.0, 1.0, 1.0, 1.0 ],
					"numinlets" : 2,
					"numoutlets" : 1,
					"fontface" : 1,
					"fontsize" : 10.0,
					"bgcolor" : [ 0.360784, 0.360784, 0.360784, 1.0 ],
					"outlettype" : [ "" ],
					"bgcolor2" : [ 0.858824, 0.858824, 0.858824, 1.0 ]
				}

			}
, 			{
				"box" : 				{
					"maxclass" : "message",
					"text" : "scale-changer",
					"patching_rect" : [ 319.0, 114.0, 78.0, 16.0 ],
					"id" : "obj-34",
					"fontname" : "Arial",
					"textcolor" : [ 1.0, 1.0, 1.0, 1.0 ],
					"numinlets" : 2,
					"numoutlets" : 1,
					"fontface" : 1,
					"fontsize" : 10.0,
					"bgcolor" : [ 0.360784, 0.360784, 0.360784, 1.0 ],
					"outlettype" : [ "" ],
					"bgcolor2" : [ 0.858824, 0.858824, 0.858824, 1.0 ]
				}

			}
, 			{
				"box" : 				{
					"maxclass" : "message",
					"text" : "neutral-harmony",
					"patching_rect" : [ 63.0, 114.0, 89.0, 16.0 ],
					"id" : "obj-24",
					"fontname" : "Arial",
					"textcolor" : [ 1.0, 1.0, 1.0, 1.0 ],
					"numinlets" : 2,
					"numoutlets" : 1,
					"fontface" : 1,
					"fontsize" : 10.0,
					"bgcolor" : [ 0.360784, 0.360784, 0.360784, 1.0 ],
					"outlettype" : [ "" ]
				}

			}
, 			{
				"box" : 				{
					"maxclass" : "newobj",
					"text" : "open-help",
					"patching_rect" : [ 257.0, 4.0, 51.0, 17.0 ],
					"hidden" : 1,
					"id" : "obj-32",
					"fontname" : "Arial",
					"numinlets" : 1,
					"numoutlets" : 0,
					"fontsize" : 9.0
				}

			}
, 			{
				"box" : 				{
					"maxclass" : "comment",
					"text" : "see also:",
					"patching_rect" : [ 0.0, 112.0, 61.0, 20.0 ],
					"id" : "obj-8",
					"fontname" : "Arial",
					"numinlets" : 1,
					"numoutlets" : 0,
					"fontsize" : 12.0
				}

			}
, 			{
				"box" : 				{
					"maxclass" : "comment",
					"text" : "1993-2010 by Karlheinz Essl, vs. 2.0",
					"patching_rect" : [ 0.0, 388.0, 173.0, 18.0 ],
					"id" : "obj-9",
					"fontname" : "Arial",
					"numinlets" : 1,
					"numoutlets" : 0,
					"fontsize" : 10.0
				}

			}
, 			{
				"box" : 				{
					"maxclass" : "comment",
					"varname" : "autohelp_top_digest",
					"text" : "Pitch generator",
					"patching_rect" : [ 0.0, 24.0, 97.0, 21.0 ],
					"id" : "obj-25",
					"frgb" : [ 0.93, 0.93, 0.97, 1.0 ],
					"fontname" : "Arial",
					"textcolor" : [ 0.93, 0.93, 0.97, 1.0 ],
					"numinlets" : 1,
					"numoutlets" : 0,
					"fontsize" : 12.754705
				}

			}
, 			{
				"box" : 				{
					"maxclass" : "message",
					"text" : "RTC-Overview",
					"patching_rect" : [ 314.0, 27.0, 93.0, 18.0 ],
					"id" : "obj-23",
					"fontname" : "Arial",
					"textcolor" : [ 1.0, 1.0, 1.0, 1.0 ],
					"numinlets" : 2,
					"numoutlets" : 1,
					"fontface" : 1,
					"fontsize" : 12.0,
					"bgcolor" : [ 0.360784, 0.360784, 0.360784, 1.0 ],
					"outlettype" : [ "" ]
				}

			}
, 			{
				"box" : 				{
					"maxclass" : "message",
					"text" : "Harmony",
					"patching_rect" : [ 343.0, 4.0, 63.0, 18.0 ],
					"id" : "obj-38",
					"fontname" : "Arial",
					"textcolor" : [ 1.0, 1.0, 1.0, 1.0 ],
					"numinlets" : 2,
					"numoutlets" : 1,
					"fontface" : 1,
					"fontsize" : 12.0,
					"bgcolor" : [ 0.360784, 0.360784, 0.360784, 1.0 ],
					"outlettype" : [ "" ]
				}

			}
, 			{
				"box" : 				{
					"maxclass" : "comment",
					"text" : "choose-intervals",
					"patching_rect" : [ 0.0, 1.0, 122.0, 23.0 ],
					"id" : "obj-15",
					"frgb" : [ 1.0, 1.0, 1.0, 1.0 ],
					"fontname" : "Arial",
					"textcolor" : [ 1.0, 1.0, 1.0, 1.0 ],
					"numinlets" : 1,
					"numoutlets" : 0,
					"fontface" : 3,
					"fontsize" : 14.0
				}

			}
, 			{
				"box" : 				{
					"maxclass" : "comment",
					"text" : "Chooses a supply between one to five different intervals. This set fullfills certain requirements: the sum of the chosen intervals will never be an octave, any pairs of intervals of that supply will never be an octave and there will never occur diminished chords from these intervals.",
					"linecount" : 4,
					"patching_rect" : [ 0.0, 51.0, 410.0, 62.0 ],
					"id" : "obj-16",
					"fontname" : "Arial",
					"numinlets" : 1,
					"numoutlets" : 0,
					"fontsize" : 12.0
				}

			}
, 			{
				"box" : 				{
					"maxclass" : "panel",
					"varname" : "autohelp_top_panel",
					"patching_rect" : [ 0.0, 0.0, 416.0, 51.0 ],
					"id" : "obj-55",
					"rounded" : 0,
					"mode" : 1,
					"numinlets" : 1,
					"grad1" : [ 0.0, 0.0, 0.0, 1.0 ],
					"numoutlets" : 0,
					"grad2" : [ 0.85, 0.85, 0.85, 1.0 ],
					"background" : 1
				}

			}
 ],
		"lines" : [ 			{
				"patchline" : 				{
					"source" : [ "obj-23", 0 ],
					"destination" : [ "obj-32", 0 ],
					"hidden" : 1,
					"midpoints" : [  ]
				}

			}
, 			{
				"patchline" : 				{
					"source" : [ "obj-38", 0 ],
					"destination" : [ "obj-32", 0 ],
					"hidden" : 1,
					"midpoints" : [  ]
				}

			}
, 			{
				"patchline" : 				{
					"source" : [ "obj-24", 0 ],
					"destination" : [ "obj-32", 0 ],
					"hidden" : 1,
					"midpoints" : [  ]
				}

			}
, 			{
				"patchline" : 				{
					"source" : [ "obj-12", 0 ],
					"destination" : [ "obj-32", 0 ],
					"hidden" : 1,
					"midpoints" : [  ]
				}

			}
, 			{
				"patchline" : 				{
					"source" : [ "obj-30", 0 ],
					"destination" : [ "obj-32", 0 ],
					"hidden" : 1,
					"midpoints" : [  ]
				}

			}
, 			{
				"patchline" : 				{
					"source" : [ "obj-2", 0 ],
					"destination" : [ "obj-32", 0 ],
					"hidden" : 1,
					"midpoints" : [  ]
				}

			}
, 			{
				"patchline" : 				{
					"source" : [ "obj-34", 0 ],
					"destination" : [ "obj-32", 0 ],
					"hidden" : 1,
					"midpoints" : [  ]
				}

			}
, 			{
				"patchline" : 				{
					"source" : [ "obj-31", 0 ],
					"destination" : [ "obj-32", 0 ],
					"hidden" : 1,
					"midpoints" : [  ]
				}

			}
, 			{
				"patchline" : 				{
					"source" : [ "obj-33", 0 ],
					"destination" : [ "obj-32", 0 ],
					"hidden" : 1,
					"midpoints" : [  ]
				}

			}
, 			{
				"patchline" : 				{
					"source" : [ "obj-10", 0 ],
					"destination" : [ "obj-32", 0 ],
					"hidden" : 1,
					"midpoints" : [  ]
				}

			}
, 			{
				"patchline" : 				{
					"source" : [ "obj-6", 0 ],
					"destination" : [ "obj-14", 0 ],
					"hidden" : 0,
					"midpoints" : [  ]
				}

			}
, 			{
				"patchline" : 				{
					"source" : [ "obj-1", 0 ],
					"destination" : [ "obj-6", 1 ],
					"hidden" : 1,
					"midpoints" : [  ]
				}

			}
, 			{
				"patchline" : 				{
					"source" : [ "obj-3", 0 ],
					"destination" : [ "obj-1", 0 ],
					"hidden" : 1,
					"midpoints" : [  ]
				}

			}
, 			{
				"patchline" : 				{
					"source" : [ "obj-7", 1 ],
					"destination" : [ "obj-11", 0 ],
					"hidden" : 0,
					"midpoints" : [  ]
				}

			}
, 			{
				"patchline" : 				{
					"source" : [ "obj-5", 0 ],
					"destination" : [ "obj-7", 1 ],
					"hidden" : 0,
					"midpoints" : [  ]
				}

			}
, 			{
				"patchline" : 				{
					"source" : [ "obj-7", 0 ],
					"destination" : [ "obj-6", 0 ],
					"hidden" : 0,
					"midpoints" : [  ]
				}

			}
, 			{
				"patchline" : 				{
					"source" : [ "obj-13", 0 ],
					"destination" : [ "obj-7", 0 ],
					"hidden" : 0,
					"midpoints" : [  ]
				}

			}
, 			{
				"patchline" : 				{
					"source" : [ "obj-18", 0 ],
					"destination" : [ "obj-5", 0 ],
					"hidden" : 1,
					"midpoints" : [  ]
				}

			}
 ]
	}

}
