{
	"patcher" : 	{
		"fileversion" : 1,
		"appversion" : 		{
			"major" : 6,
			"minor" : 1,
			"revision" : 6,
			"architecture" : "x86"
		}
,
		"rect" : [ 100.0, 100.0, 416.0, 339.0 ],
		"bglocked" : 0,
		"openinpresentation" : 0,
		"default_fontsize" : 12.0,
		"default_fontface" : 0,
		"default_fontname" : "Arial",
		"gridonopen" : 0,
		"gridsize" : [ 15.0, 15.0 ],
		"gridsnaponopen" : 0,
		"statusbarvisible" : 2,
		"toolbarvisible" : 1,
		"boxanimatetime" : 200,
		"imprint" : 0,
		"enablehscroll" : 1,
		"enablevscroll" : 1,
		"devicewidth" : 0.0,
		"description" : "",
		"digest" : "",
		"tags" : "",
		"boxes" : [ 			{
				"box" : 				{
					"fontname" : "Arial",
					"fontsize" : 12.0,
					"id" : "obj-11",
					"maxclass" : "newobj",
					"numinlets" : 1,
					"numoutlets" : 0,
					"patcher" : 					{
						"fileversion" : 1,
						"appversion" : 						{
							"major" : 6,
							"minor" : 1,
							"revision" : 6,
							"architecture" : "x86"
						}
,
						"rect" : [ 517.0, 189.0, 811.0, 191.0 ],
						"bglocked" : 0,
						"openinpresentation" : 0,
						"default_fontsize" : 12.0,
						"default_fontface" : 0,
						"default_fontname" : "Arial",
						"gridonopen" : 0,
						"gridsize" : [ 15.0, 15.0 ],
						"gridsnaponopen" : 0,
						"statusbarvisible" : 2,
						"toolbarvisible" : 1,
						"boxanimatetime" : 200,
						"imprint" : 0,
						"enablehscroll" : 1,
						"enablevscroll" : 1,
						"devicewidth" : 0.0,
						"description" : "",
						"digest" : "",
						"tags" : "",
						"visible" : 1,
						"boxes" : [ 							{
								"box" : 								{
									"comment" : "",
									"hidden" : 1,
									"id" : "obj-9",
									"maxclass" : "inlet",
									"numinlets" : 0,
									"numoutlets" : 1,
									"outlettype" : [ "" ],
									"patching_rect" : [ 25.0, 6.0, 25.0, 25.0 ]
								}

							}
, 							{
								"box" : 								{
									"id" : "obj-21",
									"maxclass" : "fpic",
									"numinlets" : 1,
									"numoutlets" : 0,
									"patching_rect" : [ 467.659058, 58.0, 64.0, 112.0 ],
									"pic" : "note-2.png"
								}

							}
, 							{
								"box" : 								{
									"id" : "obj-12",
									"maxclass" : "fpic",
									"numinlets" : 1,
									"numoutlets" : 0,
									"patching_rect" : [ 340.0, 58.0, 64.0, 112.0 ],
									"pic" : "note-4.png"
								}

							}
, 							{
								"box" : 								{
									"id" : "obj-4",
									"maxclass" : "fpic",
									"numinlets" : 1,
									"numoutlets" : 0,
									"patching_rect" : [ 276.909058, 58.0, 64.0, 112.0 ],
									"pic" : "note-3.png"
								}

							}
, 							{
								"box" : 								{
									"id" : "obj-2",
									"maxclass" : "fpic",
									"numinlets" : 1,
									"numoutlets" : 0,
									"patching_rect" : [ 151.0, 58.0, 64.0, 112.0 ],
									"pic" : "note-0.png"
								}

							}
, 							{
								"box" : 								{
									"fontname" : "Arial",
									"fontsize" : 12.0,
									"id" : "obj-18",
									"maxclass" : "newobj",
									"numinlets" : 1,
									"numoutlets" : 12,
									"outlettype" : [ "", "", "", "", "", "", "", "", "", "", "", "" ],
									"patching_rect" : [ 25.0, 38.0, 714.0, 20.0 ],
									"text" : "display-row"
								}

							}
, 							{
								"box" : 								{
									"id" : "obj-7",
									"maxclass" : "fpic",
									"numinlets" : 1,
									"numoutlets" : 0,
									"patching_rect" : [ 720.0, 58.0, 64.0, 112.0 ],
									"pic" : "note-7.png"
								}

							}
, 							{
								"box" : 								{
									"id" : "obj-11",
									"maxclass" : "fpic",
									"numinlets" : 1,
									"numoutlets" : 0,
									"patching_rect" : [ 657.0, 58.0, 64.0, 112.0 ],
									"pic" : "note-8.png"
								}

							}
, 							{
								"box" : 								{
									"id" : "obj-1",
									"maxclass" : "fpic",
									"numinlets" : 1,
									"numoutlets" : 0,
									"patching_rect" : [ 593.0, 58.0, 64.0, 112.0 ],
									"pic" : "note-5.png"
								}

							}
, 							{
								"box" : 								{
									"id" : "obj-13",
									"maxclass" : "fpic",
									"numinlets" : 1,
									"numoutlets" : 0,
									"patching_rect" : [ 530.0, 58.0, 64.0, 112.0 ],
									"pic" : "note-6.png"
								}

							}
, 							{
								"box" : 								{
									"id" : "obj-3",
									"maxclass" : "fpic",
									"numinlets" : 1,
									"numoutlets" : 0,
									"patching_rect" : [ 404.0, 58.0, 64.0, 112.0 ],
									"pic" : "note-1.png"
								}

							}
, 							{
								"box" : 								{
									"id" : "obj-5",
									"maxclass" : "fpic",
									"numinlets" : 1,
									"numoutlets" : 0,
									"patching_rect" : [ 214.0, 58.0, 64.0, 112.0 ],
									"pic" : "note-11.png"
								}

							}
, 							{
								"box" : 								{
									"id" : "obj-6",
									"maxclass" : "fpic",
									"numinlets" : 1,
									"numoutlets" : 0,
									"patching_rect" : [ 88.0, 58.0, 64.0, 112.0 ],
									"pic" : "note-9.png"
								}

							}
, 							{
								"box" : 								{
									"id" : "obj-36",
									"maxclass" : "fpic",
									"numinlets" : 1,
									"numoutlets" : 0,
									"patching_rect" : [ 25.0, 58.0, 64.0, 112.0 ],
									"pic" : "note-10.png"
								}

							}
 ],
						"lines" : [ 							{
								"patchline" : 								{
									"destination" : [ "obj-1", 0 ],
									"disabled" : 0,
									"hidden" : 0,
									"source" : [ "obj-18", 9 ]
								}

							}
, 							{
								"patchline" : 								{
									"destination" : [ "obj-11", 0 ],
									"disabled" : 0,
									"hidden" : 0,
									"source" : [ "obj-18", 10 ]
								}

							}
, 							{
								"patchline" : 								{
									"destination" : [ "obj-12", 0 ],
									"disabled" : 0,
									"hidden" : 0,
									"source" : [ "obj-18", 5 ]
								}

							}
, 							{
								"patchline" : 								{
									"destination" : [ "obj-13", 0 ],
									"disabled" : 0,
									"hidden" : 0,
									"source" : [ "obj-18", 8 ]
								}

							}
, 							{
								"patchline" : 								{
									"destination" : [ "obj-2", 0 ],
									"disabled" : 0,
									"hidden" : 0,
									"source" : [ "obj-18", 2 ]
								}

							}
, 							{
								"patchline" : 								{
									"destination" : [ "obj-21", 0 ],
									"disabled" : 0,
									"hidden" : 0,
									"source" : [ "obj-18", 7 ]
								}

							}
, 							{
								"patchline" : 								{
									"destination" : [ "obj-3", 0 ],
									"disabled" : 0,
									"hidden" : 0,
									"source" : [ "obj-18", 6 ]
								}

							}
, 							{
								"patchline" : 								{
									"destination" : [ "obj-36", 0 ],
									"disabled" : 0,
									"hidden" : 0,
									"source" : [ "obj-18", 0 ]
								}

							}
, 							{
								"patchline" : 								{
									"destination" : [ "obj-4", 0 ],
									"disabled" : 0,
									"hidden" : 0,
									"source" : [ "obj-18", 4 ]
								}

							}
, 							{
								"patchline" : 								{
									"destination" : [ "obj-5", 0 ],
									"disabled" : 0,
									"hidden" : 0,
									"source" : [ "obj-18", 3 ]
								}

							}
, 							{
								"patchline" : 								{
									"destination" : [ "obj-6", 0 ],
									"disabled" : 0,
									"hidden" : 0,
									"source" : [ "obj-18", 1 ]
								}

							}
, 							{
								"patchline" : 								{
									"destination" : [ "obj-7", 0 ],
									"disabled" : 0,
									"hidden" : 0,
									"source" : [ "obj-18", 11 ]
								}

							}
, 							{
								"patchline" : 								{
									"destination" : [ "obj-18", 0 ],
									"disabled" : 0,
									"hidden" : 1,
									"source" : [ "obj-9", 0 ]
								}

							}
 ]
					}
,
					"patching_rect" : [ 11.0, 231.0, 58.0, 20.0 ],
					"saved_object_attributes" : 					{
						"default_fontface" : 0,
						"default_fontname" : "Arial",
						"default_fontsize" : 12.0,
						"description" : "",
						"digest" : "",
						"fontface" : 0,
						"fontname" : "Arial",
						"fontsize" : 12.0,
						"globalpatchername" : "",
						"tags" : ""
					}
,
					"text" : "p display"
				}

			}
, 			{
				"box" : 				{
					"id" : "obj-1",
					"maxclass" : "button",
					"numinlets" : 1,
					"numoutlets" : 1,
					"outlettype" : [ "bang" ],
					"patching_rect" : [ 69.0, 175.0, 20.0, 20.0 ]
				}

			}
, 			{
				"box" : 				{
					"fontname" : "Arial",
					"fontsize" : 12.0,
					"frgb" : 0.0,
					"id" : "obj-3",
					"linecount" : 2,
					"maxclass" : "comment",
					"numinlets" : 1,
					"numoutlets" : 0,
					"patching_rect" : [ 287.0, 175.0, 93.0, 33.0 ],
					"text" : "row of Anton Webern, op. 28"
				}

			}
, 			{
				"box" : 				{
					"fontname" : "Arial",
					"fontsize" : 12.0,
					"id" : "obj-4",
					"maxclass" : "message",
					"numinlets" : 2,
					"numoutlets" : 1,
					"outlettype" : [ "" ],
					"patching_rect" : [ 138.0, 175.0, 141.0, 18.0 ],
					"text" : "10 9 0 11 3 4 1 2 6 5 8 7"
				}

			}
, 			{
				"box" : 				{
					"fontname" : "Arial",
					"fontsize" : 12.0,
					"id" : "obj-6",
					"maxclass" : "newobj",
					"numinlets" : 2,
					"numoutlets" : 1,
					"outlettype" : [ "" ],
					"patching_rect" : [ 69.0, 202.0, 88.0, 20.0 ],
					"text" : "permutate-row"
				}

			}
, 			{
				"box" : 				{
					"fontname" : "Arial",
					"fontsize" : 12.0,
					"id" : "obj-7",
					"maxclass" : "newobj",
					"numinlets" : 1,
					"numoutlets" : 0,
					"patching_rect" : [ 69.0, 231.0, 115.0, 20.0 ],
					"text" : "print permutate-row"
				}

			}
, 			{
				"box" : 				{
					"fontname" : "Arial",
					"fontsize" : 12.0,
					"hidden" : 1,
					"id" : "obj-2",
					"maxclass" : "newobj",
					"numinlets" : 1,
					"numoutlets" : 1,
					"outlettype" : [ "bang" ],
					"patching_rect" : [ 138.0, 144.0, 60.0, 20.0 ],
					"text" : "loadbang"
				}

			}
, 			{
				"box" : 				{
					"fontname" : "Arial",
					"fontsize" : 12.0,
					"frgb" : 0.0,
					"id" : "obj-5",
					"maxclass" : "comment",
					"numinlets" : 1,
					"numoutlets" : 0,
					"patching_rect" : [ 189.0, 231.0, 141.0, 20.0 ],
					"text" : "Watch the MAX-window!"
				}

			}
, 			{
				"box" : 				{
					"fontname" : "Arial",
					"fontsize" : 12.0,
					"frgb" : 0.0,
					"id" : "obj-14",
					"linecount" : 2,
					"maxclass" : "comment",
					"numinlets" : 1,
					"numoutlets" : 0,
					"patching_rect" : [ 50.0, 136.0, 75.0, 33.0 ],
					"text" : "generate a permutation"
				}

			}
, 			{
				"box" : 				{
					"bgcolor" : [ 0.360784, 0.360784, 0.360784, 1.0 ],
					"bgcolor2" : [ 0.858824, 0.858824, 0.858824, 1.0 ],
					"fontface" : 1,
					"fontname" : "Arial",
					"fontsize" : 10.0,
					"id" : "obj-10",
					"maxclass" : "message",
					"numinlets" : 2,
					"numoutlets" : 1,
					"outlettype" : [ "" ],
					"patching_rect" : [ 269.0, 88.0, 78.0, 16.0 ],
					"text" : "normalize-row",
					"textcolor" : [ 1.0, 1.0, 1.0, 1.0 ]
				}

			}
, 			{
				"box" : 				{
					"bgcolor" : [ 0.360784, 0.360784, 0.360784, 1.0 ],
					"bgcolor2" : [ 0.858824, 0.858824, 0.858824, 1.0 ],
					"fontface" : 1,
					"fontname" : "Arial",
					"fontsize" : 10.0,
					"id" : "obj-49",
					"maxclass" : "message",
					"numinlets" : 2,
					"numoutlets" : 1,
					"outlettype" : [ "" ],
					"patching_rect" : [ 132.0, 88.0, 52.0, 16.0 ],
					"text" : "matrix12",
					"textcolor" : [ 1.0, 1.0, 1.0, 1.0 ]
				}

			}
, 			{
				"box" : 				{
					"bgcolor" : [ 0.360784, 0.360784, 0.360784, 1.0 ],
					"bgcolor2" : [ 0.858824, 0.858824, 0.858824, 1.0 ],
					"fontface" : 1,
					"fontname" : "Arial",
					"fontsize" : 10.0,
					"id" : "obj-52",
					"maxclass" : "message",
					"numinlets" : 2,
					"numoutlets" : 1,
					"outlettype" : [ "" ],
					"patching_rect" : [ 64.0, 88.0, 64.0, 16.0 ],
					"text" : "row-modus",
					"textcolor" : [ 1.0, 1.0, 1.0, 1.0 ]
				}

			}
, 			{
				"box" : 				{
					"bgcolor" : [ 0.360784, 0.360784, 0.360784, 1.0 ],
					"bgcolor2" : [ 0.858824, 0.858824, 0.858824, 1.0 ],
					"fontface" : 1,
					"fontname" : "Arial",
					"fontsize" : 10.0,
					"id" : "obj-53",
					"maxclass" : "message",
					"numinlets" : 2,
					"numoutlets" : 1,
					"outlettype" : [ "" ],
					"patching_rect" : [ 189.0, 88.0, 74.0, 16.0 ],
					"text" : "tranpose-row",
					"textcolor" : [ 1.0, 1.0, 1.0, 1.0 ]
				}

			}
, 			{
				"box" : 				{
					"fontname" : "Arial",
					"fontsize" : 12.0,
					"frgb" : 0.0,
					"id" : "obj-8",
					"maxclass" : "comment",
					"numinlets" : 1,
					"numoutlets" : 0,
					"patching_rect" : [ 0.0, 86.0, 61.0, 20.0 ],
					"text" : "see also:"
				}

			}
, 			{
				"box" : 				{
					"fontname" : "Arial",
					"fontsize" : 9.0,
					"hidden" : 1,
					"id" : "obj-32",
					"maxclass" : "newobj",
					"numinlets" : 1,
					"numoutlets" : 0,
					"patching_rect" : [ 246.0, 16.0, 51.0, 17.0 ],
					"text" : "open-help"
				}

			}
, 			{
				"box" : 				{
					"fontname" : "Arial",
					"fontsize" : 10.0,
					"frgb" : 0.0,
					"id" : "obj-9",
					"maxclass" : "comment",
					"numinlets" : 1,
					"numoutlets" : 0,
					"patching_rect" : [ 0.0, 310.0, 162.0, 18.0 ],
					"text" : "1994 by Karlheinz Essl"
				}

			}
, 			{
				"box" : 				{
					"fontname" : "Arial",
					"fontsize" : 12.754705,
					"frgb" : 0.0,
					"id" : "obj-25",
					"maxclass" : "comment",
					"numinlets" : 1,
					"numoutlets" : 0,
					"patching_rect" : [ 0.0, 24.0, 84.0, 21.0 ],
					"text" : "Row checker",
					"textcolor" : [ 0.93, 0.93, 0.97, 1.0 ],
					"varname" : "autohelp_top_digest"
				}

			}
, 			{
				"box" : 				{
					"bgcolor" : [ 0.360784, 0.360784, 0.360784, 1.0 ],
					"fontface" : 1,
					"fontname" : "Arial",
					"fontsize" : 12.0,
					"id" : "obj-23",
					"maxclass" : "message",
					"numinlets" : 2,
					"numoutlets" : 1,
					"outlettype" : [ "" ],
					"patching_rect" : [ 314.0, 27.0, 93.0, 18.0 ],
					"text" : "RTC-Overview",
					"textcolor" : [ 1.0, 1.0, 1.0, 1.0 ]
				}

			}
, 			{
				"box" : 				{
					"bgcolor" : [ 0.360784, 0.360784, 0.360784, 1.0 ],
					"fontface" : 1,
					"fontname" : "Arial",
					"fontsize" : 12.0,
					"id" : "obj-38",
					"maxclass" : "message",
					"numinlets" : 2,
					"numoutlets" : 1,
					"outlettype" : [ "" ],
					"patching_rect" : [ 307.0, 4.0, 100.0, 18.0 ],
					"text" : "Dodecaphonics",
					"textcolor" : [ 1.0, 1.0, 1.0, 1.0 ]
				}

			}
, 			{
				"box" : 				{
					"fontface" : 3,
					"fontname" : "Arial",
					"fontsize" : 14.0,
					"frgb" : 0.0,
					"id" : "obj-15",
					"maxclass" : "comment",
					"numinlets" : 1,
					"numoutlets" : 0,
					"patching_rect" : [ 0.0, 1.0, 108.0, 22.0 ],
					"text" : "permutate-row",
					"textcolor" : [ 1.0, 1.0, 1.0, 1.0 ]
				}

			}
, 			{
				"box" : 				{
					"fontname" : "Arial",
					"fontsize" : 12.0,
					"frgb" : 0.0,
					"id" : "obj-16",
					"linecount" : 2,
					"maxclass" : "comment",
					"numinlets" : 1,
					"numoutlets" : 0,
					"patching_rect" : [ 0.0, 51.0, 407.0, 33.0 ],
					"text" : "Permutates a given row using its own structure as a permutation program. NB: The given row must be a twelve-note-row which smallest index is 0."
				}

			}
, 			{
				"box" : 				{
					"background" : 1,
					"grad1" : [ 0.0, 0.0, 0.0, 1.0 ],
					"grad2" : [ 0.85, 0.85, 0.85, 1.0 ],
					"id" : "obj-55",
					"maxclass" : "panel",
					"mode" : 1,
					"numinlets" : 1,
					"numoutlets" : 0,
					"patching_rect" : [ 0.0, 0.0, 416.0, 51.0 ],
					"rounded" : 0,
					"varname" : "autohelp_top_panel"
				}

			}
 ],
		"lines" : [ 			{
				"patchline" : 				{
					"destination" : [ "obj-6", 0 ],
					"disabled" : 0,
					"hidden" : 0,
					"source" : [ "obj-1", 0 ]
				}

			}
, 			{
				"patchline" : 				{
					"destination" : [ "obj-4", 0 ],
					"disabled" : 0,
					"hidden" : 1,
					"source" : [ "obj-2", 0 ]
				}

			}
, 			{
				"patchline" : 				{
					"destination" : [ "obj-32", 0 ],
					"disabled" : 0,
					"hidden" : 1,
					"source" : [ "obj-23", 0 ]
				}

			}
, 			{
				"patchline" : 				{
					"destination" : [ "obj-32", 0 ],
					"disabled" : 0,
					"hidden" : 1,
					"source" : [ "obj-38", 0 ]
				}

			}
, 			{
				"patchline" : 				{
					"destination" : [ "obj-6", 1 ],
					"disabled" : 0,
					"hidden" : 0,
					"source" : [ "obj-4", 0 ]
				}

			}
, 			{
				"patchline" : 				{
					"destination" : [ "obj-11", 0 ],
					"disabled" : 0,
					"hidden" : 0,
					"midpoints" : [ 78.5, 226.0, 20.5, 226.0 ],
					"source" : [ "obj-6", 0 ]
				}

			}
, 			{
				"patchline" : 				{
					"destination" : [ "obj-7", 0 ],
					"disabled" : 0,
					"hidden" : 0,
					"source" : [ "obj-6", 0 ]
				}

			}
 ],
		"dependency_cache" : [ 			{
				"name" : "open-help.maxpat",
				"bootpath" : "/Applications/Max 6.1/patches/3rd party/KHE/RTC-lib/Toolbox",
				"patcherrelativepath" : "../../Toolbox",
				"type" : "JSON",
				"implicit" : 1
			}
, 			{
				"name" : "permutate-row.maxpat",
				"bootpath" : "/Applications/Max 6.1/patches/3rd party/KHE/RTC-lib/Harmony/Dodecaphonics",
				"patcherrelativepath" : "../../Harmony/Dodecaphonics",
				"type" : "JSON",
				"implicit" : 1
			}
, 			{
				"name" : "nth.maxpat",
				"bootpath" : "/Applications/Max 6.1/patches/3rd party/KHE/RTC-lib/Lists",
				"patcherrelativepath" : "../../Lists",
				"type" : "JSON",
				"implicit" : 1
			}
, 			{
				"name" : "listreg.maxpat",
				"bootpath" : "/Applications/Max 6.1/patches/3rd party/KHE/RTC-lib/Lists/ListObjects_McCartney",
				"patcherrelativepath" : "../../Lists/ListObjects_McCartney",
				"type" : "JSON",
				"implicit" : 1
			}
, 			{
				"name" : "note-1.png",
				"bootpath" : "/Applications/Max 6.1/current/KHE Tools/Row-Permutation-with-Notation/notation",
				"patcherrelativepath" : "../../../../../../current/KHE Tools/Row-Permutation-with-Notation/notation",
				"type" : "PNG ",
				"implicit" : 1
			}
, 			{
				"name" : "note-3.png",
				"bootpath" : "/Applications/Max 6.1/current/KHE Tools/Row-Permutation-with-Notation/notation",
				"patcherrelativepath" : "../../../../../../current/KHE Tools/Row-Permutation-with-Notation/notation",
				"type" : "PNG ",
				"implicit" : 1
			}
, 			{
				"name" : "note-0.png",
				"bootpath" : "/Applications/Max 6.1/current/KHE Tools/Row-Permutation-with-Notation/notation",
				"patcherrelativepath" : "../../../../../../current/KHE Tools/Row-Permutation-with-Notation/notation",
				"type" : "PNG ",
				"implicit" : 1
			}
, 			{
				"name" : "note-4.png",
				"bootpath" : "/Applications/Max 6.1/current/KHE Tools/Row-Permutation-with-Notation/notation",
				"patcherrelativepath" : "../../../../../../current/KHE Tools/Row-Permutation-with-Notation/notation",
				"type" : "PNG ",
				"implicit" : 1
			}
, 			{
				"name" : "note-5.png",
				"bootpath" : "/Applications/Max 6.1/current/KHE Tools/Row-Permutation-with-Notation/notation",
				"patcherrelativepath" : "../../../../../../current/KHE Tools/Row-Permutation-with-Notation/notation",
				"type" : "PNG ",
				"implicit" : 1
			}
, 			{
				"name" : "note-11.png",
				"bootpath" : "/Applications/Max 6.1/current/KHE Tools/Row-Permutation-with-Notation/notation",
				"patcherrelativepath" : "../../../../../../current/KHE Tools/Row-Permutation-with-Notation/notation",
				"type" : "PNG ",
				"implicit" : 1
			}
, 			{
				"name" : "note-9.png",
				"bootpath" : "/Applications/Max 6.1/current/KHE Tools/Row-Permutation-with-Notation/notation",
				"patcherrelativepath" : "../../../../../../current/KHE Tools/Row-Permutation-with-Notation/notation",
				"type" : "PNG ",
				"implicit" : 1
			}
, 			{
				"name" : "note-10.png",
				"bootpath" : "/Applications/Max 6.1/current/KHE Tools/Row-Permutation-with-Notation/notation",
				"patcherrelativepath" : "../../../../../../current/KHE Tools/Row-Permutation-with-Notation/notation",
				"type" : "PNG ",
				"implicit" : 1
			}
, 			{
				"name" : "display-row.maxpat",
				"bootpath" : "/Applications/Max 6.1/patches/3rd party/KHE/RTC-lib/Harmony/Dodecaphonics",
				"patcherrelativepath" : "../../Harmony/Dodecaphonics",
				"type" : "JSON",
				"implicit" : 1
			}
, 			{
				"name" : "note-6.png",
				"bootpath" : "/Applications/Max 6.1/current/KHE Tools/Row-Permutation-with-Notation/notation",
				"patcherrelativepath" : "../../../../../../current/KHE Tools/Row-Permutation-with-Notation/notation",
				"type" : "PNG ",
				"implicit" : 1
			}
, 			{
				"name" : "note-2.png",
				"bootpath" : "/Applications/Max 6.1/current/KHE Tools/Row-Permutation-with-Notation/notation",
				"patcherrelativepath" : "../../../../../../current/KHE Tools/Row-Permutation-with-Notation/notation",
				"type" : "PNG ",
				"implicit" : 1
			}
, 			{
				"name" : "note-7.png",
				"bootpath" : "/Applications/Max 6.1/current/KHE Tools/Row-Permutation-with-Notation/notation",
				"patcherrelativepath" : "../../../../../../current/KHE Tools/Row-Permutation-with-Notation/notation",
				"type" : "PNG ",
				"implicit" : 1
			}
, 			{
				"name" : "note-8.png",
				"bootpath" : "/Applications/Max 6.1/current/KHE Tools/Row-Permutation-with-Notation/notation",
				"patcherrelativepath" : "../../../../../../current/KHE Tools/Row-Permutation-with-Notation/notation",
				"type" : "PNG ",
				"implicit" : 1
			}
 ]
	}

}
