{
	"patcher" : 	{
		"fileversion" : 1,
		"rect" : [ 0.0, 44.0, 416.0, 365.0 ],
		"bglocked" : 0,
		"defrect" : [ 0.0, 44.0, 416.0, 365.0 ],
		"openrect" : [ 0.0, 0.0, 0.0, 0.0 ],
		"openinpresentation" : 0,
		"default_fontsize" : 12.0,
		"default_fontface" : 0,
		"default_fontname" : "Arial",
		"gridonopen" : 0,
		"gridsize" : [ 15.0, 15.0 ],
		"gridsnaponopen" : 0,
		"toolbarvisible" : 1,
		"boxanimatetime" : 200,
		"imprint" : 0,
		"enablehscroll" : 1,
		"enablevscroll" : 1,
		"devicewidth" : 0.0,
		"boxes" : [ 			{
				"box" : 				{
					"maxclass" : "kslider",
					"id" : "obj-5",
					"numinlets" : 2,
					"numoutlets" : 2,
					"presentation_rect" : [ 105.0, 105.0, 147.0, 34.0 ],
					"hkeycolor" : [ 0.501961, 0.501961, 0.501961, 1.0 ],
					"outlettype" : [ "int", "int" ],
					"range" : 36,
					"patching_rect" : [ 56.0, 143.0, 189.0, 41.0 ]
				}

			}
, 			{
				"box" : 				{
					"maxclass" : "comment",
					"text" : "pitch",
					"id" : "obj-1",
					"fontsize" : 12.0,
					"numinlets" : 1,
					"numoutlets" : 0,
					"fontname" : "Arial",
					"patching_rect" : [ 93.0, 256.0, 37.0, 20.0 ]
				}

			}
, 			{
				"box" : 				{
					"maxclass" : "message",
					"text" : "A",
					"id" : "obj-2",
					"fontsize" : 12.0,
					"numinlets" : 2,
					"numoutlets" : 1,
					"outlettype" : [ "" ],
					"fontname" : "Arial",
					"patching_rect" : [ 56.0, 256.0, 35.0, 18.0 ]
				}

			}
, 			{
				"box" : 				{
					"maxclass" : "newobj",
					"text" : "show-pitchclass",
					"id" : "obj-3",
					"fontsize" : 12.0,
					"numinlets" : 1,
					"numoutlets" : 1,
					"outlettype" : [ "" ],
					"fontname" : "Arial",
					"patching_rect" : [ 56.0, 226.0, 106.0, 20.0 ]
				}

			}
, 			{
				"box" : 				{
					"maxclass" : "number",
					"htextcolor" : [ 0.870588, 0.870588, 0.870588, 1.0 ],
					"id" : "obj-4",
					"fontsize" : 12.0,
					"numinlets" : 1,
					"numoutlets" : 2,
					"minimum" : 0,
					"bgcolor" : [ 0.866667, 0.866667, 0.866667, 1.0 ],
					"outlettype" : [ "int", "bang" ],
					"fontname" : "Arial",
					"patching_rect" : [ 56.0, 197.0, 37.0, 20.0 ],
					"triscale" : 0.9
				}

			}
, 			{
				"box" : 				{
					"maxclass" : "comment",
					"text" : "MIDI note number",
					"id" : "obj-10",
					"fontsize" : 12.0,
					"numinlets" : 1,
					"numoutlets" : 0,
					"fontname" : "Arial",
					"patching_rect" : [ 93.0, 198.0, 118.0, 20.0 ]
				}

			}
, 			{
				"box" : 				{
					"maxclass" : "message",
					"text" : "show",
					"fontface" : 1,
					"id" : "obj-52",
					"fontsize" : 10.0,
					"numinlets" : 2,
					"numoutlets" : 1,
					"textcolor" : [ 1.0, 1.0, 1.0, 1.0 ],
					"bgcolor2" : [ 0.858824, 0.858824, 0.858824, 1.0 ],
					"bgcolor" : [ 0.360784, 0.360784, 0.360784, 1.0 ],
					"outlettype" : [ "" ],
					"fontname" : "Arial",
					"patching_rect" : [ 64.0, 74.0, 36.0, 16.0 ]
				}

			}
, 			{
				"box" : 				{
					"maxclass" : "newobj",
					"text" : "open-help",
					"hidden" : 1,
					"id" : "obj-32",
					"fontsize" : 9.0,
					"numinlets" : 1,
					"numoutlets" : 0,
					"fontname" : "Arial",
					"patching_rect" : [ 257.0, 4.0, 51.0, 17.0 ]
				}

			}
, 			{
				"box" : 				{
					"maxclass" : "comment",
					"text" : "see also:",
					"id" : "obj-8",
					"fontsize" : 12.0,
					"numinlets" : 1,
					"numoutlets" : 0,
					"fontname" : "Arial",
					"patching_rect" : [ 0.0, 72.0, 61.0, 20.0 ]
				}

			}
, 			{
				"box" : 				{
					"maxclass" : "comment",
					"text" : "2004 by Karlheinz Essl",
					"id" : "obj-9",
					"fontsize" : 10.0,
					"numinlets" : 1,
					"numoutlets" : 0,
					"fontname" : "Arial",
					"patching_rect" : [ 0.0, 330.0, 112.0, 18.0 ]
				}

			}
, 			{
				"box" : 				{
					"maxclass" : "comment",
					"varname" : "autohelp_top_digest",
					"text" : "Display",
					"frgb" : [ 0.93, 0.93, 0.97, 1.0 ],
					"id" : "obj-25",
					"fontsize" : 12.754705,
					"numinlets" : 1,
					"numoutlets" : 0,
					"textcolor" : [ 0.93, 0.93, 0.97, 1.0 ],
					"fontname" : "Arial",
					"patching_rect" : [ 0.0, 24.0, 101.0, 21.0 ]
				}

			}
, 			{
				"box" : 				{
					"maxclass" : "message",
					"text" : "RTC-Overview",
					"fontface" : 1,
					"id" : "obj-23",
					"fontsize" : 12.0,
					"numinlets" : 2,
					"numoutlets" : 1,
					"textcolor" : [ 1.0, 1.0, 1.0, 1.0 ],
					"bgcolor" : [ 0.360784, 0.360784, 0.360784, 1.0 ],
					"outlettype" : [ "" ],
					"fontname" : "Arial",
					"patching_rect" : [ 314.0, 27.0, 93.0, 18.0 ]
				}

			}
, 			{
				"box" : 				{
					"maxclass" : "message",
					"text" : "Harmony",
					"fontface" : 1,
					"id" : "obj-38",
					"fontsize" : 12.0,
					"numinlets" : 2,
					"numoutlets" : 1,
					"textcolor" : [ 1.0, 1.0, 1.0, 1.0 ],
					"bgcolor" : [ 0.360784, 0.360784, 0.360784, 1.0 ],
					"outlettype" : [ "" ],
					"fontname" : "Arial",
					"patching_rect" : [ 343.0, 4.0, 63.0, 18.0 ]
				}

			}
, 			{
				"box" : 				{
					"maxclass" : "comment",
					"text" : "show-pitchclass",
					"frgb" : [ 1.0, 1.0, 1.0, 1.0 ],
					"fontface" : 3,
					"id" : "obj-15",
					"fontsize" : 14.0,
					"numinlets" : 1,
					"numoutlets" : 0,
					"textcolor" : [ 1.0, 1.0, 1.0, 1.0 ],
					"fontname" : "Arial",
					"patching_rect" : [ 0.0, 1.0, 133.0, 23.0 ]
				}

			}
, 			{
				"box" : 				{
					"maxclass" : "comment",
					"text" : "Shows the pitch class of a MIDI note number.",
					"id" : "obj-16",
					"fontsize" : 12.0,
					"numinlets" : 1,
					"numoutlets" : 0,
					"fontname" : "Arial",
					"patching_rect" : [ 0.0, 51.0, 414.0, 20.0 ]
				}

			}
, 			{
				"box" : 				{
					"maxclass" : "panel",
					"varname" : "autohelp_top_panel",
					"rounded" : 0,
					"grad1" : [ 0.0, 0.0, 0.0, 1.0 ],
					"mode" : 1,
					"id" : "obj-55",
					"numinlets" : 1,
					"grad2" : [ 0.85, 0.85, 0.85, 1.0 ],
					"numoutlets" : 0,
					"background" : 1,
					"patching_rect" : [ 0.0, 0.0, 416.0, 51.0 ]
				}

			}
 ],
		"lines" : [ 			{
				"patchline" : 				{
					"source" : [ "obj-5", 0 ],
					"destination" : [ "obj-4", 0 ],
					"hidden" : 0,
					"midpoints" : [  ]
				}

			}
, 			{
				"patchline" : 				{
					"source" : [ "obj-4", 0 ],
					"destination" : [ "obj-3", 0 ],
					"hidden" : 0,
					"midpoints" : [  ]
				}

			}
, 			{
				"patchline" : 				{
					"source" : [ "obj-3", 0 ],
					"destination" : [ "obj-2", 0 ],
					"hidden" : 0,
					"midpoints" : [  ]
				}

			}
, 			{
				"patchline" : 				{
					"source" : [ "obj-52", 0 ],
					"destination" : [ "obj-32", 0 ],
					"hidden" : 1,
					"midpoints" : [  ]
				}

			}
, 			{
				"patchline" : 				{
					"source" : [ "obj-38", 0 ],
					"destination" : [ "obj-32", 0 ],
					"hidden" : 1,
					"midpoints" : [  ]
				}

			}
, 			{
				"patchline" : 				{
					"source" : [ "obj-23", 0 ],
					"destination" : [ "obj-32", 0 ],
					"hidden" : 1,
					"midpoints" : [  ]
				}

			}
 ]
	}

}
