{
	"patcher" : 	{
		"fileversion" : 1,
		"rect" : [ 1.0, 44.0, 579.0, 459.0 ],
		"bglocked" : 0,
		"defrect" : [ 1.0, 44.0, 579.0, 459.0 ],
		"openrect" : [ 0.0, 0.0, 0.0, 0.0 ],
		"openinpresentation" : 0,
		"default_fontsize" : 12.0,
		"default_fontface" : 0,
		"default_fontname" : "Arial",
		"gridonopen" : 0,
		"gridsize" : [ 15.0, 15.0 ],
		"gridsnaponopen" : 0,
		"toolbarvisible" : 1,
		"boxanimatetime" : 200,
		"imprint" : 0,
		"enablehscroll" : 1,
		"enablevscroll" : 1,
		"devicewidth" : 0.0,
		"boxes" : [ 			{
				"box" : 				{
					"maxclass" : "flonum",
					"fontname" : "Arial",
					"numinlets" : 1,
					"numoutlets" : 2,
					"fontface" : 1,
					"outlettype" : [ "float", "bang" ],
					"patching_rect" : [ 64.0, 307.0, 50.0, 20.0 ],
					"fontsize" : 12.0,
					"id" : "obj-39",
					"bgcolor" : [ 0.858824, 0.858824, 0.858824, 1.0 ]
				}

			}
, 			{
				"box" : 				{
					"maxclass" : "slider",
					"numinlets" : 1,
					"numoutlets" : 1,
					"outlettype" : [ "" ],
					"patching_rect" : [ 64.0, 378.0, 217.0, 19.0 ],
					"id" : "obj-1",
					"orientation" : 1
				}

			}
, 			{
				"box" : 				{
					"maxclass" : "comment",
					"text" : "graphical display",
					"fontname" : "Arial",
					"numinlets" : 1,
					"numoutlets" : 0,
					"patching_rect" : [ 284.0, 378.0, 111.0, 20.0 ],
					"fontsize" : 12.0,
					"id" : "obj-36"
				}

			}
, 			{
				"box" : 				{
					"maxclass" : "newobj",
					"text" : "scale 0.5 22.7 0 127",
					"fontname" : "Arial",
					"numinlets" : 6,
					"numoutlets" : 1,
					"outlettype" : [ "" ],
					"patching_rect" : [ 64.0, 342.0, 137.0, 20.0 ],
					"fontsize" : 12.0,
					"id" : "obj-2"
				}

			}
, 			{
				"box" : 				{
					"maxclass" : "flonum",
					"fontname" : "Arial",
					"numinlets" : 1,
					"numoutlets" : 2,
					"outlettype" : [ "float", "bang" ],
					"patching_rect" : [ 204.0, 243.0, 45.0, 20.0 ],
					"fontsize" : 12.0,
					"id" : "obj-7",
					"bgcolor" : [ 0.858824, 0.858824, 0.858824, 1.0 ]
				}

			}
, 			{
				"box" : 				{
					"maxclass" : "flonum",
					"fontname" : "Arial",
					"numinlets" : 1,
					"numoutlets" : 2,
					"outlettype" : [ "float", "bang" ],
					"patching_rect" : [ 134.0, 243.0, 45.0, 20.0 ],
					"fontsize" : 12.0,
					"id" : "obj-6",
					"bgcolor" : [ 0.858824, 0.858824, 0.858824, 1.0 ]
				}

			}
, 			{
				"box" : 				{
					"maxclass" : "newobj",
					"text" : "lb 7",
					"fontname" : "Arial",
					"numinlets" : 0,
					"hidden" : 1,
					"numoutlets" : 1,
					"outlettype" : [ "" ],
					"patching_rect" : [ 484.0, 163.0, 30.0, 20.0 ],
					"fontsize" : 12.0,
					"id" : "obj-58"
				}

			}
, 			{
				"box" : 				{
					"maxclass" : "newobj",
					"text" : "lb 2000",
					"fontname" : "Arial",
					"numinlets" : 0,
					"hidden" : 1,
					"numoutlets" : 1,
					"outlettype" : [ "" ],
					"patching_rect" : [ 414.0, 163.0, 50.0, 20.0 ],
					"fontsize" : 12.0,
					"id" : "obj-57"
				}

			}
, 			{
				"box" : 				{
					"maxclass" : "newobj",
					"text" : "lb 250",
					"fontname" : "Arial",
					"numinlets" : 0,
					"hidden" : 1,
					"numoutlets" : 1,
					"outlettype" : [ "" ],
					"patching_rect" : [ 344.0, 163.0, 43.0, 20.0 ],
					"fontsize" : 12.0,
					"id" : "obj-56"
				}

			}
, 			{
				"box" : 				{
					"maxclass" : "newobj",
					"text" : "lb 5",
					"fontname" : "Arial",
					"numinlets" : 0,
					"hidden" : 1,
					"numoutlets" : 1,
					"outlettype" : [ "" ],
					"patching_rect" : [ 274.0, 163.0, 30.0, 20.0 ],
					"fontsize" : 12.0,
					"id" : "obj-54"
				}

			}
, 			{
				"box" : 				{
					"maxclass" : "newobj",
					"text" : "lb 22.7",
					"fontname" : "Arial",
					"numinlets" : 0,
					"hidden" : 1,
					"numoutlets" : 1,
					"outlettype" : [ "" ],
					"patching_rect" : [ 204.0, 163.0, 47.0, 20.0 ],
					"fontsize" : 12.0,
					"id" : "obj-53"
				}

			}
, 			{
				"box" : 				{
					"maxclass" : "newobj",
					"text" : "lb 5",
					"fontname" : "Arial",
					"numinlets" : 0,
					"hidden" : 1,
					"numoutlets" : 1,
					"outlettype" : [ "" ],
					"patching_rect" : [ 165.0, 164.0, 30.0, 20.0 ],
					"fontsize" : 12.0,
					"id" : "obj-52"
				}

			}
, 			{
				"box" : 				{
					"maxclass" : "comment",
					"text" : "ramp time",
					"fontname" : "Arial",
					"numinlets" : 1,
					"numoutlets" : 0,
					"patching_rect" : [ 483.0, 327.0, 65.0, 20.0 ],
					"fontsize" : 12.0,
					"id" : "obj-28"
				}

			}
, 			{
				"box" : 				{
					"maxclass" : "number",
					"fontname" : "Arial",
					"numinlets" : 1,
					"htextcolor" : [ 0.870588, 0.870588, 0.870588, 1.0 ],
					"numoutlets" : 2,
					"fontface" : 1,
					"outlettype" : [ "int", "bang" ],
					"patching_rect" : [ 484.0, 307.0, 38.0, 20.0 ],
					"fontsize" : 12.0,
					"id" : "obj-10",
					"triscale" : 0.9,
					"bgcolor" : [ 0.866667, 0.866667, 0.866667, 1.0 ],
					"triangle" : 0,
					"cantchange" : 1
				}

			}
, 			{
				"box" : 				{
					"maxclass" : "comment",
					"text" : "velocity destination",
					"fontname" : "Arial",
					"numinlets" : 1,
					"numoutlets" : 0,
					"patching_rect" : [ 273.0, 327.0, 123.0, 20.0 ],
					"fontsize" : 12.0,
					"id" : "obj-11"
				}

			}
, 			{
				"box" : 				{
					"maxclass" : "number",
					"fontname" : "Arial",
					"numinlets" : 1,
					"htextcolor" : [ 0.870588, 0.870588, 0.870588, 1.0 ],
					"numoutlets" : 2,
					"fontface" : 1,
					"outlettype" : [ "int", "bang" ],
					"patching_rect" : [ 274.0, 307.0, 30.0, 20.0 ],
					"fontsize" : 12.0,
					"id" : "obj-12",
					"triscale" : 0.9,
					"bgcolor" : [ 0.866667, 0.866667, 0.866667, 1.0 ],
					"triangle" : 0,
					"cantchange" : 1
				}

			}
, 			{
				"box" : 				{
					"maxclass" : "comment",
					"text" : "nr. of values",
					"linecount" : 2,
					"fontname" : "Arial",
					"numinlets" : 1,
					"numoutlets" : 0,
					"patching_rect" : [ 274.0, 209.0, 46.0, 34.0 ],
					"fontsize" : 12.0,
					"id" : "obj-13"
				}

			}
, 			{
				"box" : 				{
					"maxclass" : "number",
					"fontname" : "Arial",
					"numinlets" : 1,
					"htextcolor" : [ 0.870588, 0.870588, 0.870588, 1.0 ],
					"numoutlets" : 2,
					"outlettype" : [ "int", "bang" ],
					"patching_rect" : [ 274.0, 243.0, 37.0, 20.0 ],
					"fontsize" : 12.0,
					"minimum" : 2,
					"id" : "obj-14",
					"triscale" : 0.9,
					"bgcolor" : [ 0.866667, 0.866667, 0.866667, 1.0 ]
				}

			}
, 			{
				"box" : 				{
					"maxclass" : "comment",
					"text" : "min. ramp time",
					"linecount" : 2,
					"fontname" : "Arial",
					"numinlets" : 1,
					"numoutlets" : 0,
					"patching_rect" : [ 344.0, 209.0, 69.0, 34.0 ],
					"fontsize" : 12.0,
					"id" : "obj-29"
				}

			}
, 			{
				"box" : 				{
					"maxclass" : "number",
					"fontname" : "Arial",
					"numinlets" : 1,
					"htextcolor" : [ 0.870588, 0.870588, 0.870588, 1.0 ],
					"numoutlets" : 2,
					"outlettype" : [ "int", "bang" ],
					"patching_rect" : [ 344.0, 243.0, 44.0, 20.0 ],
					"fontsize" : 12.0,
					"minimum" : 50,
					"id" : "obj-30",
					"triscale" : 0.9,
					"bgcolor" : [ 0.866667, 0.866667, 0.866667, 1.0 ]
				}

			}
, 			{
				"box" : 				{
					"maxclass" : "comment",
					"text" : "max. ramp time",
					"linecount" : 2,
					"fontname" : "Arial",
					"numinlets" : 1,
					"numoutlets" : 0,
					"patching_rect" : [ 414.0, 209.0, 62.0, 34.0 ],
					"fontsize" : 12.0,
					"id" : "obj-17"
				}

			}
, 			{
				"box" : 				{
					"maxclass" : "number",
					"fontname" : "Arial",
					"numinlets" : 1,
					"htextcolor" : [ 0.870588, 0.870588, 0.870588, 1.0 ],
					"numoutlets" : 2,
					"outlettype" : [ "int", "bang" ],
					"patching_rect" : [ 414.0, 243.0, 50.0, 20.0 ],
					"fontsize" : 12.0,
					"minimum" : 50,
					"id" : "obj-18",
					"triscale" : 0.9,
					"bgcolor" : [ 0.866667, 0.866667, 0.866667, 1.0 ]
				}

			}
, 			{
				"box" : 				{
					"maxclass" : "number",
					"fontname" : "Arial",
					"numinlets" : 1,
					"htextcolor" : [ 0.870588, 0.870588, 0.870588, 1.0 ],
					"numoutlets" : 2,
					"outlettype" : [ "int", "bang" ],
					"patching_rect" : [ 484.0, 243.0, 37.0, 20.0 ],
					"fontsize" : 12.0,
					"minimum" : 2,
					"id" : "obj-19",
					"triscale" : 0.9,
					"bgcolor" : [ 0.866667, 0.866667, 0.866667, 1.0 ]
				}

			}
, 			{
				"box" : 				{
					"maxclass" : "comment",
					"text" : "nr. of values",
					"linecount" : 2,
					"fontname" : "Arial",
					"numinlets" : 1,
					"numoutlets" : 0,
					"patching_rect" : [ 483.0, 209.0, 46.0, 34.0 ],
					"fontsize" : 12.0,
					"id" : "obj-20"
				}

			}
, 			{
				"box" : 				{
					"maxclass" : "comment",
					"text" : "max. velocity",
					"linecount" : 2,
					"fontname" : "Arial",
					"numinlets" : 1,
					"numoutlets" : 0,
					"patching_rect" : [ 204.0, 209.0, 57.0, 34.0 ],
					"fontsize" : 12.0,
					"id" : "obj-21"
				}

			}
, 			{
				"box" : 				{
					"maxclass" : "comment",
					"text" : "min. velocity",
					"linecount" : 2,
					"fontname" : "Arial",
					"numinlets" : 1,
					"numoutlets" : 0,
					"patching_rect" : [ 135.0, 209.0, 57.0, 34.0 ],
					"fontsize" : 12.0,
					"id" : "obj-33"
				}

			}
, 			{
				"box" : 				{
					"maxclass" : "toggle",
					"numinlets" : 1,
					"numoutlets" : 1,
					"outlettype" : [ "int" ],
					"patching_rect" : [ 64.0, 167.0, 20.0, 20.0 ],
					"id" : "obj-34"
				}

			}
, 			{
				"box" : 				{
					"maxclass" : "newobj",
					"text" : "random-rampf-urn 0.5 22.7 5 1000 4000 7",
					"fontname" : "Arial",
					"numinlets" : 7,
					"numoutlets" : 3,
					"outlettype" : [ "float", "", "" ],
					"patching_rect" : [ 64.0, 273.0, 439.0, 20.0 ],
					"fontsize" : 12.0,
					"id" : "obj-35"
				}

			}
, 			{
				"box" : 				{
					"maxclass" : "comment",
					"text" : "- - - - - dynamic scale - - - - -",
					"fontname" : "Arial",
					"numinlets" : 1,
					"numoutlets" : 0,
					"fontface" : 1,
					"patching_rect" : [ 135.0, 188.0, 192.0, 23.0 ],
					"fontsize" : 14.0,
					"id" : "obj-40"
				}

			}
, 			{
				"box" : 				{
					"maxclass" : "comment",
					"text" : "- - - - - ramp durations - - - - -",
					"fontname" : "Arial",
					"numinlets" : 1,
					"numoutlets" : 0,
					"fontface" : 1,
					"patching_rect" : [ 336.0, 188.0, 198.0, 23.0 ],
					"fontsize" : 14.0,
					"id" : "obj-41"
				}

			}
, 			{
				"box" : 				{
					"maxclass" : "comment",
					"text" : "output",
					"fontname" : "Arial",
					"numinlets" : 1,
					"numoutlets" : 0,
					"patching_rect" : [ 116.0, 307.0, 44.0, 20.0 ],
					"fontsize" : 12.0,
					"id" : "obj-42"
				}

			}
, 			{
				"box" : 				{
					"maxclass" : "comment",
					"text" : "start/stop",
					"fontname" : "Arial",
					"numinlets" : 1,
					"numoutlets" : 0,
					"patching_rect" : [ 86.0, 167.0, 60.0, 20.0 ],
					"fontsize" : 12.0,
					"id" : "obj-48"
				}

			}
, 			{
				"box" : 				{
					"maxclass" : "newobj",
					"text" : "qmetro 20",
					"fontname" : "Arial",
					"numinlets" : 2,
					"numoutlets" : 1,
					"outlettype" : [ "bang" ],
					"patching_rect" : [ 64.0, 216.0, 67.0, 20.0 ],
					"fontsize" : 12.0,
					"id" : "obj-49"
				}

			}
, 			{
				"box" : 				{
					"maxclass" : "button",
					"numinlets" : 1,
					"numoutlets" : 1,
					"outlettype" : [ "bang" ],
					"patching_rect" : [ 64.0, 244.0, 20.0, 20.0 ],
					"id" : "obj-50"
				}

			}
, 			{
				"box" : 				{
					"maxclass" : "message",
					"text" : "random-rampf",
					"fontname" : "Arial",
					"numinlets" : 2,
					"bgcolor2" : [ 0.858824, 0.858824, 0.858824, 1.0 ],
					"numoutlets" : 1,
					"fontface" : 1,
					"outlettype" : [ "" ],
					"patching_rect" : [ 244.0, 132.0, 78.0, 16.0 ],
					"fontsize" : 10.0,
					"id" : "obj-27",
					"textcolor" : [ 1.0, 1.0, 1.0, 1.0 ],
					"bgcolor" : [ 0.360784, 0.360784, 0.360784, 1.0 ]
				}

			}
, 			{
				"box" : 				{
					"maxclass" : "message",
					"text" : "random-ramp-urn",
					"fontname" : "Arial",
					"numinlets" : 2,
					"bgcolor2" : [ 0.858824, 0.858824, 0.858824, 1.0 ],
					"numoutlets" : 1,
					"fontface" : 1,
					"outlettype" : [ "" ],
					"patching_rect" : [ 145.0, 132.0, 94.0, 16.0 ],
					"fontsize" : 10.0,
					"id" : "obj-26",
					"textcolor" : [ 1.0, 1.0, 1.0, 1.0 ],
					"bgcolor" : [ 0.360784, 0.360784, 0.360784, 1.0 ]
				}

			}
, 			{
				"box" : 				{
					"maxclass" : "message",
					"text" : "random-ramp",
					"fontname" : "Arial",
					"numinlets" : 2,
					"bgcolor2" : [ 0.858824, 0.858824, 0.858824, 1.0 ],
					"numoutlets" : 1,
					"fontface" : 1,
					"outlettype" : [ "" ],
					"patching_rect" : [ 65.0, 132.0, 75.0, 16.0 ],
					"fontsize" : 10.0,
					"id" : "obj-22",
					"textcolor" : [ 1.0, 1.0, 1.0, 1.0 ],
					"bgcolor" : [ 0.360784, 0.360784, 0.360784, 1.0 ]
				}

			}
, 			{
				"box" : 				{
					"maxclass" : "newobj",
					"text" : "open-help",
					"fontname" : "Arial",
					"numinlets" : 1,
					"hidden" : 1,
					"numoutlets" : 0,
					"patching_rect" : [ 257.0, 4.0, 51.0, 17.0 ],
					"fontsize" : 9.0,
					"id" : "obj-32"
				}

			}
, 			{
				"box" : 				{
					"maxclass" : "comment",
					"text" : "see also:",
					"fontname" : "Arial",
					"numinlets" : 1,
					"numoutlets" : 0,
					"patching_rect" : [ 0.0, 130.0, 61.0, 20.0 ],
					"fontsize" : 12.0,
					"id" : "obj-8"
				}

			}
, 			{
				"box" : 				{
					"maxclass" : "comment",
					"text" : "1994-2008 by Karlheinz Essl, vs. 1.1",
					"fontname" : "Arial",
					"numinlets" : 1,
					"numoutlets" : 0,
					"patching_rect" : [ 0.0, 423.0, 176.0, 18.0 ],
					"fontsize" : 10.0,
					"id" : "obj-9"
				}

			}
, 			{
				"box" : 				{
					"maxclass" : "comment",
					"varname" : "autohelp_top_digest",
					"text" : "Probabilistic",
					"fontname" : "Arial",
					"numinlets" : 1,
					"numoutlets" : 0,
					"frgb" : [ 0.93, 0.93, 0.97, 1.0 ],
					"patching_rect" : [ 0.0, 24.0, 79.0, 21.0 ],
					"fontsize" : 12.754705,
					"id" : "obj-25",
					"textcolor" : [ 0.93, 0.93, 0.97, 1.0 ]
				}

			}
, 			{
				"box" : 				{
					"maxclass" : "message",
					"text" : "RTC-Overview",
					"fontname" : "Arial",
					"numinlets" : 2,
					"numoutlets" : 1,
					"fontface" : 1,
					"outlettype" : [ "" ],
					"patching_rect" : [ 476.0, 27.0, 93.0, 18.0 ],
					"fontsize" : 12.0,
					"id" : "obj-23",
					"textcolor" : [ 1.0, 1.0, 1.0, 1.0 ],
					"bgcolor" : [ 0.360784, 0.360784, 0.360784, 1.0 ]
				}

			}
, 			{
				"box" : 				{
					"maxclass" : "message",
					"text" : "Envelopes",
					"fontname" : "Arial",
					"numinlets" : 2,
					"numoutlets" : 1,
					"fontface" : 1,
					"outlettype" : [ "" ],
					"patching_rect" : [ 498.0, 4.0, 71.0, 18.0 ],
					"fontsize" : 12.0,
					"id" : "obj-38",
					"textcolor" : [ 1.0, 1.0, 1.0, 1.0 ],
					"bgcolor" : [ 0.360784, 0.360784, 0.360784, 1.0 ]
				}

			}
, 			{
				"box" : 				{
					"maxclass" : "comment",
					"text" : "random-rampf-urn",
					"fontname" : "Arial",
					"numinlets" : 1,
					"numoutlets" : 0,
					"frgb" : [ 1.0, 1.0, 1.0, 1.0 ],
					"fontface" : 3,
					"patching_rect" : [ 0.0, 1.0, 133.0, 23.0 ],
					"fontsize" : 14.0,
					"id" : "obj-15",
					"textcolor" : [ 1.0, 1.0, 1.0, 1.0 ]
				}

			}
, 			{
				"box" : 				{
					"maxclass" : "comment",
					"text" : "Float version of random-ramp-urn. Generates randomly fluctuating shapes of a given value scale (defined by a min and a max value and a certain number of values) within a time scale (defined by a min and a max ramp time and a certain number of values). A rhythm bang set to the left inlet outputs a value value. A stop message sent to the same inlet will stop the whole process. As opposed to \"random-ramp-urn\", this version performs a repetition check of the randomly chosen parameters.",
					"linecount" : 5,
					"fontname" : "Arial",
					"numinlets" : 1,
					"numoutlets" : 0,
					"patching_rect" : [ 0.0, 55.0, 576.0, 75.0 ],
					"fontsize" : 12.0,
					"id" : "obj-16"
				}

			}
, 			{
				"box" : 				{
					"maxclass" : "panel",
					"varname" : "autohelp_top_panel",
					"numinlets" : 1,
					"numoutlets" : 0,
					"mode" : 1,
					"patching_rect" : [ 0.0, 0.0, 578.0, 55.0 ],
					"id" : "obj-55",
					"rounded" : 0,
					"grad1" : [ 0.0, 0.0, 0.0, 1.0 ],
					"background" : 1,
					"grad2" : [ 0.85, 0.85, 0.85, 1.0 ]
				}

			}
 ],
		"lines" : [ 			{
				"patchline" : 				{
					"source" : [ "obj-58", 0 ],
					"destination" : [ "obj-19", 0 ],
					"hidden" : 1,
					"midpoints" : [  ]
				}

			}
, 			{
				"patchline" : 				{
					"source" : [ "obj-38", 0 ],
					"destination" : [ "obj-32", 0 ],
					"hidden" : 1,
					"midpoints" : [  ]
				}

			}
, 			{
				"patchline" : 				{
					"source" : [ "obj-23", 0 ],
					"destination" : [ "obj-32", 0 ],
					"hidden" : 1,
					"midpoints" : [  ]
				}

			}
, 			{
				"patchline" : 				{
					"source" : [ "obj-22", 0 ],
					"destination" : [ "obj-32", 0 ],
					"hidden" : 1,
					"midpoints" : [  ]
				}

			}
, 			{
				"patchline" : 				{
					"source" : [ "obj-54", 0 ],
					"destination" : [ "obj-14", 0 ],
					"hidden" : 1,
					"midpoints" : [  ]
				}

			}
, 			{
				"patchline" : 				{
					"source" : [ "obj-56", 0 ],
					"destination" : [ "obj-30", 0 ],
					"hidden" : 1,
					"midpoints" : [  ]
				}

			}
, 			{
				"patchline" : 				{
					"source" : [ "obj-57", 0 ],
					"destination" : [ "obj-18", 0 ],
					"hidden" : 1,
					"midpoints" : [  ]
				}

			}
, 			{
				"patchline" : 				{
					"source" : [ "obj-34", 0 ],
					"destination" : [ "obj-49", 0 ],
					"hidden" : 0,
					"midpoints" : [  ]
				}

			}
, 			{
				"patchline" : 				{
					"source" : [ "obj-49", 0 ],
					"destination" : [ "obj-50", 0 ],
					"hidden" : 0,
					"midpoints" : [  ]
				}

			}
, 			{
				"patchline" : 				{
					"source" : [ "obj-52", 0 ],
					"destination" : [ "obj-6", 0 ],
					"hidden" : 1,
					"midpoints" : [  ]
				}

			}
, 			{
				"patchline" : 				{
					"source" : [ "obj-53", 0 ],
					"destination" : [ "obj-7", 0 ],
					"hidden" : 1,
					"midpoints" : [  ]
				}

			}
, 			{
				"patchline" : 				{
					"source" : [ "obj-2", 0 ],
					"destination" : [ "obj-1", 0 ],
					"hidden" : 0,
					"midpoints" : [  ]
				}

			}
, 			{
				"patchline" : 				{
					"source" : [ "obj-7", 0 ],
					"destination" : [ "obj-35", 2 ],
					"hidden" : 0,
					"midpoints" : [  ]
				}

			}
, 			{
				"patchline" : 				{
					"source" : [ "obj-6", 0 ],
					"destination" : [ "obj-35", 1 ],
					"hidden" : 0,
					"midpoints" : [  ]
				}

			}
, 			{
				"patchline" : 				{
					"source" : [ "obj-50", 0 ],
					"destination" : [ "obj-35", 0 ],
					"hidden" : 0,
					"midpoints" : [  ]
				}

			}
, 			{
				"patchline" : 				{
					"source" : [ "obj-14", 0 ],
					"destination" : [ "obj-35", 3 ],
					"hidden" : 0,
					"midpoints" : [  ]
				}

			}
, 			{
				"patchline" : 				{
					"source" : [ "obj-35", 1 ],
					"destination" : [ "obj-12", 0 ],
					"hidden" : 0,
					"midpoints" : [  ]
				}

			}
, 			{
				"patchline" : 				{
					"source" : [ "obj-30", 0 ],
					"destination" : [ "obj-35", 4 ],
					"hidden" : 0,
					"midpoints" : [  ]
				}

			}
, 			{
				"patchline" : 				{
					"source" : [ "obj-18", 0 ],
					"destination" : [ "obj-35", 5 ],
					"hidden" : 0,
					"midpoints" : [  ]
				}

			}
, 			{
				"patchline" : 				{
					"source" : [ "obj-19", 0 ],
					"destination" : [ "obj-35", 6 ],
					"hidden" : 0,
					"midpoints" : [  ]
				}

			}
, 			{
				"patchline" : 				{
					"source" : [ "obj-35", 2 ],
					"destination" : [ "obj-10", 0 ],
					"hidden" : 0,
					"midpoints" : [  ]
				}

			}
, 			{
				"patchline" : 				{
					"source" : [ "obj-35", 0 ],
					"destination" : [ "obj-39", 0 ],
					"hidden" : 0,
					"midpoints" : [  ]
				}

			}
, 			{
				"patchline" : 				{
					"source" : [ "obj-39", 0 ],
					"destination" : [ "obj-2", 0 ],
					"hidden" : 0,
					"midpoints" : [  ]
				}

			}
 ]
	}

}
